AcariSans-ExtraBoldItalic.ufo
<glyph name="exclam" format="2">
  <advance width="634"/>
  <unicode hex="0021"/>
  <outline>
    <contour>
      <point x="407" y="443" type="line"/>
      <point x="201" y="443" type="line"/>
      <point x="400" y="1433" type="line"/>
      <point x="663" y="1433" type="line"/>
    </contour>
    <contour>
      <point x="347" y="0" type="line"/>
      <point x="59" y="0" type="line"/>
      <point x="122" y="286" type="line"/>
      <point x="410" y="286" type="line"/>
    </contour>
  </outline>
</glyph>
<glyph name="dollar" format="2">
  <advance width="1114"/>
  <unicode hex="0024"/>
  <outline>
    <contour>
      <point x="508" y="-246" type="line"/>
      <point x="278" y="-246" type="line"/>
      <point x="339" y="-10" type="line"/>
      <point x="246" y="10"/>
      <point x="96" y="109"/>
      <point x="7" y="266"/>
      <point x="7" y="370" type="qcurve" smooth="yes"/>
      <point x="7" y="389"/>
      <point x="8" y="401" type="qcurve"/>
      <point x="203" y="426"/>
      <point x="287" y="436" type="qcurve"/>
      <point x="285" y="409" type="line"/>
      <point x="285" y="347"/>
      <point x="342" y="270"/>
      <point x="442" y="235"/>
      <point x="509" y="235" type="qcurve" smooth="yes"/>
      <point x="739" y="235"/>
      <point x="790" y="435" type="qcurve"/>
      <point x="793" y="458" type="line"/>
      <point x="793" y="497"/>
      <point x="739" y="550"/>
      <point x="687" y="575" type="qcurve" smooth="yes"/>
      <point x="654" y="591"/>
      <point x="613" y="609" type="qcurve" smooth="yes"/>
      <point x="402" y="698"/>
      <point x="327" y="775" type="qcurve" smooth="yes"/>
      <point x="244" y="860"/>
      <point x="244" y="979" type="qcurve" smooth="yes"/>
      <point x="244" y="1098"/>
      <point x="361" y="1283"/>
      <point x="549" y="1405"/>
      <point x="659" y="1430" type="qcurve"/>
      <point x="718" y="1659" type="line"/>
      <point x="948" y="1659" type="line"/>
      <point x="888" y="1429" type="line"/>
      <point x="988" y="1410"/>
      <point x="1137" y="1292"/>
      <point x="1172" y="1186" type="qcurve"/>
      <point x="921" y="1076" type="line"/>
      <point x="888" y="1189"/>
      <point x="744" y="1189" type="qcurve" smooth="yes"/>
      <point x="698" y="1189"/>
      <point x="596" y="1145"/>
      <point x="525" y="1066"/>
      <point x="525" y="1013" type="qcurve" smooth="yes"/>
      <point x="525" y="975"/>
      <point x="584" y="925"/>
      <point x="637" y="901" type="qcurve" smooth="yes"/>
      <point x="695" y="875" type="line"/>
      <point x="786" y="839"/>
      <point x="902" y="772" type="qcurve" smooth="yes"/>
      <point x="947" y="745"/>
      <point x="1024" y="668"/>
      <point x="1071" y="563"/>
      <point x="1071" y="494" type="qcurve" smooth="yes"/>
      <point x="1071" y="359"/>
      <point x="931" y="138"/>
      <point x="703" y="-2"/>
      <point x="567" y="-19" type="qcurve"/>
    </contour>
  </outline>
</glyph>
<glyph name="ampersand" format="2">
  <advance width="1381"/>
  <unicode hex="0026"/>
  <outline>
    <contour>
      <point x="1016" y="-83" type="line"/>
      <point x="883" y="121" type="line"/>
      <point x="780" y="53"/>
      <point x="550" y="-24"/>
      <point x="434" y="-24" type="qcurve" smooth="yes"/>
      <point x="313" y="-24"/>
      <point x="122" y="46"/>
      <point x="63" y="113" type="qcurve"/>
      <point x="19" y="176"/>
      <point x="17" y="259" type="qcurve" smooth="yes"/>
      <point x="16" y="281" type="line"/>
      <point x="16" y="365"/>
      <point x="49" y="435" type="qcurve" smooth="yes"/>
      <point x="87" y="513"/>
      <point x="209" y="639"/>
      <point x="367" y="739"/>
      <point x="446" y="779" type="qcurve"/>
      <point x="406" y="829"/>
      <point x="352" y="947"/>
      <point x="352" y="1025" type="qcurve" smooth="yes"/>
      <point x="352" y="1106"/>
      <point x="428" y="1255"/>
      <point x="558" y="1367"/>
      <point x="645" y="1400" type="qcurve" smooth="yes"/>
      <point x="727" y="1430"/>
      <point x="818" y="1430" type="qcurve" smooth="yes"/>
      <point x="827" y="1430" type="line" smooth="yes"/>
      <point x="950" y="1430"/>
      <point x="1130" y="1307"/>
      <point x="1155" y="1198" type="qcurve"/>
      <point x="1159" y="1174" type="line"/>
      <point x="1160" y="1154"/>
      <point x="1160" y="1133" type="qcurve" smooth="yes"/>
      <point x="1160" y="1072"/>
      <point x="1140" y="1018" type="qcurve"/>
      <point x="1072" y="845"/>
      <point x="829" y="708" type="qcurve"/>
      <point x="948" y="535" type="line"/>
      <point x="1000" y="625"/>
      <point x="1014" y="710" type="qcurve"/>
      <point x="1272" y="659" type="line"/>
      <point x="1227" y="481"/>
      <point x="1095" y="317" type="qcurve"/>
      <point x="1246" y="92" type="line"/>
    </contour>
    <contour>
      <point x="668" y="891" type="qcurve"/>
      <point x="780" y="948"/>
      <point x="908" y="1068"/>
      <point x="908" y="1138" type="qcurve" smooth="yes"/>
      <point x="908" y="1173"/>
      <point x="862" y="1218"/>
      <point x="810" y="1218" type="qcurve" smooth="yes"/>
      <point x="742" y="1218"/>
      <point x="638" y="1133"/>
      <point x="618" y="1064" type="qcurve" smooth="yes"/>
      <point x="616" y="1056"/>
      <point x="616" y="1039" type="qcurve" smooth="yes"/>
      <point x="616" y="981"/>
    </contour>
    <contour>
      <point x="453" y="206" type="qcurve" smooth="yes"/>
      <point x="534" y="206"/>
      <point x="689" y="266"/>
      <point x="756" y="315" type="qcurve"/>
      <point x="687" y="419" type="line" smooth="yes"/>
      <point x="635" y="498"/>
      <point x="585" y="576" type="qcurve"/>
      <point x="459" y="512"/>
      <point x="305" y="388"/>
      <point x="286" y="312" type="qcurve" smooth="yes"/>
      <point x="283" y="300"/>
      <point x="283" y="289" type="qcurve" smooth="yes"/>
      <point x="283" y="206"/>
    </contour>
  </outline>
</glyph>
<glyph name="quotesingle" format="2">
  <advance width="609"/>
  <unicode hex="0027"/>
  <outline>
    <contour>
      <point x="503" y="858" type="line"/>
      <point x="275" y="858" type="line"/>
      <point x="409" y="1442" type="line"/>
      <point x="636" y="1442" type="line"/>
    </contour>
  </outline>
</glyph>
<glyph name="parenleft" format="2">
  <advance width="575"/>
  <unicode hex="0028"/>
  <outline>
    <contour>
      <point x="423" y="-163" type="qcurve"/>
      <point x="309" y="-155"/>
      <point x="195" y="-145" type="qcurve"/>
      <point x="95" y="-8"/>
      <point x="95" y="298" type="qcurve" smooth="yes"/>
      <point x="95" y="452"/>
      <point x="149" y="771"/>
      <point x="237" y="1057"/>
      <point x="288" y="1167" type="qcurve"/>
      <point x="416" y="1435"/>
      <point x="576" y="1572" type="qcurve"/>
      <point x="703" y="1562"/>
      <point x="830" y="1554" type="qcurve"/>
      <point x="679" y="1414"/>
      <point x="439" y="1032"/>
      <point x="297" y="566"/>
      <point x="297" y="302" type="qcurve" smooth="yes"/>
      <point x="297" y="59"/>
    </contour>
  </outline>
</glyph>
<glyph name="period" format="2">
  <advance width="640"/>
  <unicode hex="002E"/>
  <outline>
    <contour>
      <point x="336" y="0" type="line"/>
      <point x="75" y="0" type="line"/>
      <point x="139" y="286" type="line"/>
      <point x="400" y="286" type="line"/>
    </contour>
  </outline>
</glyph>
<glyph name="slash" format="2">
  <advance width="933"/>
  <unicode hex="002F"/>
  <outline>
    <contour>
      <point x="-17" y="-430" type="line"/>
      <point x="-271" y="-430" type="line"/>
      <point x="966" y="1516" type="line"/>
      <point x="1224" y="1516" type="line"/>
    </contour>
  </outline>
</glyph>
<glyph name="four" format="2">
  <advance width="1200"/>
  <unicode hex="0034"/>
  <outline>
    <contour>
      <point x="835" y="0" type="line"/>
      <point x="556" y="0" type="line"/>
      <point x="628" y="317" type="line"/>
      <point x="-25" y="317" type="line"/>
      <point x="11" y="481" type="line"/>
      <point x="924" y="1413" type="line"/>
      <point x="1161" y="1413" type="line"/>
      <point x="968" y="578" type="line"/>
      <point x="1193" y="578" type="line"/>
      <point x="1133" y="317" type="line"/>
      <point x="908" y="317" type="line"/>
    </contour>
    <contour>
      <point x="688" y="578" type="line"/>
      <point x="783" y="977" type="line"/>
      <point x="406" y="578" type="line"/>
    </contour>
  </outline>
</glyph>
<glyph name="five" format="2">
  <advance width="1200"/>
  <unicode hex="0035"/>
  <outline>
    <contour>
      <point x="483" y="-20" type="qcurve" smooth="yes"/>
      <point x="469" y="-20" type="line" smooth="yes"/>
      <point x="385" y="-20"/>
      <point x="311" y="13" type="qcurve" smooth="yes"/>
      <point x="230" y="48"/>
      <point x="112" y="173"/>
      <point x="80" y="257" type="qcurve" smooth="yes"/>
      <point x="50" y="333"/>
      <point x="50" y="418" type="qcurve" smooth="yes"/>
      <point x="50" y="433" type="line"/>
      <point x="322" y="481" type="line"/>
      <point x="322" y="429"/>
      <point x="341" y="340"/>
      <point x="387" y="276"/>
      <point x="462" y="239"/>
      <point x="517" y="239" type="qcurve" smooth="yes"/>
      <point x="524" y="239" type="line" smooth="yes"/>
      <point x="559" y="239"/>
      <point x="634" y="265"/>
      <point x="707" y="313"/>
      <point x="770" y="377"/>
      <point x="817" y="450"/>
      <point x="844" y="526"/>
      <point x="844" y="563" type="qcurve" smooth="yes"/>
      <point x="844" y="637"/>
      <point x="744" y="727"/>
      <point x="652" y="727" type="qcurve" smooth="yes"/>
      <point x="585" y="727"/>
      <point x="438" y="650"/>
      <point x="388" y="593" type="qcurve"/>
      <point x="140" y="660" type="line"/>
      <point x="218" y="849"/>
      <point x="297" y="1037" type="qcurve" smooth="yes"/>
      <point x="375" y="1225"/>
      <point x="453" y="1413" type="qcurve"/>
      <point x="1269" y="1413" type="line"/>
      <point x="1209" y="1150" type="line"/>
      <point x="621" y="1150" type="line"/>
      <point x="526" y="953" type="line"/>
      <point x="584" y="973"/>
      <point x="682" y="986"/>
      <point x="735" y="986" type="qcurve" smooth="yes"/>
      <point x="814" y="986"/>
      <point x="957" y="927"/>
      <point x="1066" y="817"/>
      <point x="1127" y="670"/>
      <point x="1127" y="588" type="qcurve" smooth="yes"/>
      <point x="1127" y="580" type="line" smooth="yes"/>
      <point x="1127" y="513"/>
      <point x="1082" y="372"/>
      <point x="1001" y="239"/>
      <point x="884" y="120"/>
      <point x="741" y="32"/>
      <point x="575" y="-20"/>
    </contour>
  </outline>
</glyph>
<glyph name="seven" format="2">
  <advance width="1200"/>
  <unicode hex="0037"/>
  <outline>
    <contour>
      <point x="381" y="0" type="line"/>
      <point x="63" y="0" type="line"/>
      <point x="928" y="1153" type="line"/>
      <point x="232" y="1153" type="line"/>
      <point x="292" y="1413" type="line"/>
      <point x="1337" y="1413" type="line"/>
      <point x="1304" y="1268" type="line"/>
    </contour>
  </outline>
</glyph>
<glyph name="eight" format="2">
  <advance width="1200"/>
  <unicode hex="0038"/>
  <outline>
    <contour>
      <point x="504" y="-20" type="qcurve" smooth="yes"/>
      <point x="480" y="-20" type="line" smooth="yes"/>
      <point x="396" y="-20"/>
      <point x="318" y="1" type="qcurve" smooth="yes"/>
      <point x="234" y="24"/>
      <point x="108" y="114"/>
      <point x="35" y="245"/>
      <point x="35" y="328" type="qcurve"/>
      <point x="36" y="403"/>
      <point x="54" y="465" type="qcurve" smooth="yes"/>
      <point x="92" y="591"/>
      <point x="199" y="691" type="qcurve" smooth="yes"/>
      <point x="251" y="741"/>
      <point x="318" y="778" type="qcurve"/>
      <point x="254" y="857"/>
      <point x="254" y="972" type="qcurve" smooth="yes"/>
      <point x="254" y="1076"/>
      <point x="348" y="1248"/>
      <point x="500" y="1370"/>
      <point x="599" y="1403" type="qcurve" smooth="yes"/>
      <point x="694" y="1434"/>
      <point x="793" y="1434" type="qcurve" smooth="yes"/>
      <point x="802" y="1434" type="line" smooth="yes"/>
      <point x="940" y="1434"/>
      <point x="1040" y="1377" type="qcurve"/>
      <point x="1145" y="1315"/>
      <point x="1182" y="1208" type="qcurve"/>
      <point x="1187" y="1188"/>
      <point x="1195" y="1145"/>
      <point x="1195" y="1121" type="qcurve"/>
      <point x="1196" y="1104" type="line"/>
      <point x="1191" y="1054" type="line"/>
      <point x="1184" y="1017" type="line"/>
      <point x="1150" y="869"/>
      <point x="1002" y="750" type="qcurve"/>
      <point x="1125" y="665"/>
      <point x="1125" y="498" type="qcurve" smooth="yes"/>
      <point x="1125" y="342"/>
      <point x="1032" y="215" type="qcurve"/>
      <point x="949" y="104"/>
      <point x="798" y="39" type="qcurve" smooth="yes"/>
      <point x="659" y="-20"/>
    </contour>
    <contour>
      <point x="676" y="873" type="qcurve" smooth="yes"/>
      <point x="761" y="873"/>
      <point x="900" y="967"/>
      <point x="920" y="1046" type="qcurve" smooth="yes"/>
      <point x="923" y="1058"/>
      <point x="923" y="1073" type="qcurve" smooth="yes"/>
      <point x="923" y="1169"/>
      <point x="771" y="1172" type="qcurve"/>
      <point x="718" y="1172"/>
      <point x="604" y="1124"/>
      <point x="526" y="1036"/>
      <point x="526" y="977" type="qcurve" smooth="yes"/>
      <point x="526" y="923"/>
      <point x="610" y="873"/>
    </contour>
    <contour>
      <point x="524" y="237" type="qcurve" smooth="yes"/>
      <point x="635" y="237"/>
      <point x="818" y="352"/>
      <point x="845" y="459" type="qcurve"/>
      <point x="850" y="476"/>
      <point x="850" y="498" type="qcurve" smooth="yes"/>
      <point x="850" y="562"/>
      <point x="734" y="627"/>
      <point x="641" y="627" type="qcurve" smooth="yes"/>
      <point x="587" y="627"/>
      <point x="472" y="597"/>
      <point x="375" y="534"/>
      <point x="315" y="437"/>
      <point x="315" y="371" type="qcurve" smooth="yes"/>
      <point x="315" y="311"/>
      <point x="419" y="237"/>
    </contour>
  </outline>
</glyph>
<glyph name="semicolon" format="2">
  <advance width="659"/>
  <unicode hex="003B"/>
  <outline>
    <contour>
      <point x="541" y="668" type="line"/>
      <point x="251" y="668" type="line"/>
      <point x="319" y="954" type="line"/>
      <point x="607" y="954" type="line"/>
    </contour>
    <contour>
      <point x="175" y="-225" type="line"/>
      <point x="-10" y="-225" type="line"/>
      <point x="202" y="264" type="line"/>
      <point x="515" y="264" type="line"/>
    </contour>
  </outline>
</glyph>
<glyph name="question" format="2">
  <advance width="987"/>
  <unicode hex="003F"/>
  <outline>
    <contour>
      <point x="583" y="439" type="line"/>
      <point x="356" y="439" type="line"/>
      <point x="372" y="504"/>
      <point x="387" y="570" type="qcurve" smooth="yes"/>
      <point x="400" y="628"/>
      <point x="419" y="668" type="qcurve" smooth="yes"/>
      <point x="455" y="742"/>
      <point x="515" y="785" type="qcurve" smooth="yes"/>
      <point x="543" y="805"/>
      <point x="614" y="844"/>
      <point x="651" y="864" type="qcurve" smooth="yes"/>
      <point x="688" y="883"/>
      <point x="732" y="912" type="qcurve" smooth="yes"/>
      <point x="779" y="943"/>
      <point x="808" y="992" type="qcurve" smooth="yes"/>
      <point x="839" y="1044"/>
      <point x="839" y="1102" type="qcurve"/>
      <point x="838" y="1141"/>
      <point x="822" y="1165" type="qcurve"/>
      <point x="778" y="1209"/>
      <point x="662" y="1209" type="qcurve" smooth="yes"/>
      <point x="539" y="1209"/>
      <point x="399" y="1082"/>
      <point x="371" y="958" type="qcurve"/>
      <point x="141" y="980" type="line"/>
      <point x="189" y="1196"/>
      <point x="471" y="1434"/>
      <point x="678" y="1434" type="qcurve" smooth="yes"/>
      <point x="816" y="1434"/>
      <point x="921" y="1373" type="qcurve"/>
      <point x="1027" y="1309"/>
      <point x="1059" y="1194" type="qcurve" smooth="yes"/>
      <point x="1070" y="1154"/>
      <point x="1072" y="1098" type="qcurve"/>
      <point x="1072" y="1026"/>
      <point x="1052" y="964" type="qcurve"/>
      <point x="1002" y="820"/>
      <point x="881" y="729" type="qcurve" smooth="yes"/>
      <point x="803" y="671"/>
      <point x="685" y="623" type="qcurve" smooth="yes"/>
      <point x="655" y="611"/>
      <point x="636" y="597" type="qcurve" smooth="yes"/>
      <point x="624" y="589"/>
      <point x="616" y="571" type="qcurve" smooth="yes"/>
      <point x="603" y="542"/>
      <point x="593" y="483" type="qcurve" smooth="yes"/>
      <point x="590" y="465"/>
      <point x="586" y="451" type="qcurve" smooth="yes"/>
    </contour>
    <contour>
      <point x="518" y="0" type="line"/>
      <point x="230" y="0" type="line"/>
      <point x="293" y="286" type="line"/>
      <point x="581" y="286" type="line"/>
    </contour>
  </outline>
</glyph>
<glyph name="C" format="2">
  <advance width="1432"/>
  <unicode hex="0043"/>
  <outline>
    <contour>
      <point x="660" y="-20" type="qcurve" smooth="yes"/>
      <point x="649" y="-20" type="line" smooth="yes"/>
      <point x="515" y="-20"/>
      <point x="413" y="18" type="qcurve" smooth="yes"/>
      <point x="201" y="98"/>
      <point x="130" y="302" type="qcurve"/>
      <point x="95" y="398"/>
      <point x="95" y="511" type="qcurve"/>
      <point x="96" y="668"/>
      <point x="144" y="813" type="qcurve"/>
      <point x="187" y="950"/>
      <point x="277" y="1083" type="qcurve"/>
      <point x="395" y="1248"/>
      <point x="568" y="1340" type="qcurve" smooth="yes"/>
      <point x="750" y="1436"/>
      <point x="967" y="1436" type="qcurve" smooth="yes"/>
      <point x="1184" y="1436"/>
      <point x="1477" y="1213"/>
      <point x="1513" y="1010" type="qcurve"/>
      <point x="1229" y="927" type="line"/>
      <point x="1227" y="993"/>
      <point x="1204" y="1042" type="qcurve" smooth="yes"/>
      <point x="1159" y="1140"/>
      <point x="1049" y="1173" type="qcurve" smooth="yes"/>
      <point x="996" y="1189"/>
      <point x="923" y="1189" type="qcurve" smooth="yes"/>
      <point x="726" y="1189"/>
      <point x="579" y="1045" type="qcurve" smooth="yes"/>
      <point x="510" y="978"/>
      <point x="415" y="795"/>
      <point x="393" y="691" type="qcurve" smooth="yes"/>
      <point x="375" y="610"/>
      <point x="375" y="542" type="qcurve" smooth="yes"/>
      <point x="375" y="401"/>
      <point x="534" y="251"/>
      <point x="694" y="251" type="qcurve" smooth="yes"/>
      <point x="835" y="251"/>
      <point x="1050" y="378"/>
      <point x="1136" y="514" type="qcurve"/>
      <point x="1374" y="385" type="line"/>
      <point x="1244" y="184"/>
      <point x="878" y="-20"/>
    </contour>
  </outline>
</glyph>
<glyph name="I" format="2">
  <advance width="627"/>
  <unicode hex="0049"/>
  <outline>
    <contour>
      <point x="341" y="0" type="line"/>
      <point x="58" y="0" type="line"/>
      <point x="383" y="1413" type="line"/>
      <point x="666" y="1413" type="line"/>
    </contour>
  </outline>
</glyph>
<glyph name="K" format="2">
  <advance width="1501"/>
  <unicode hex="004B"/>
  <outline>
    <contour>
      <point x="1381" y="0" type="line"/>
      <point x="1032" y="0" type="line"/>
      <point x="759" y="635" type="line"/>
      <point x="426" y="360" type="line"/>
      <point x="341" y="0" type="line"/>
      <point x="58" y="0" type="line"/>
      <point x="383" y="1413" type="line"/>
      <point x="666" y="1413" type="line"/>
      <point x="501" y="705" type="line"/>
      <point x="1323" y="1413" type="line"/>
      <point x="1710" y="1413" type="line"/>
      <point x="998" y="827" type="line"/>
    </contour>
  </outline>
</glyph>
<glyph name="R" format="2">
  <advance width="1281"/>
  <unicode hex="0052"/>
  <outline>
    <contour>
      <point x="1157" y="-2" type="qcurve"/>
      <point x="851" y="-2" type="line"/>
      <point x="797" y="148"/>
      <point x="746" y="297" type="qcurve" smooth="yes"/>
      <point x="694" y="446"/>
      <point x="641" y="595" type="qcurve"/>
      <point x="478" y="595" type="line"/>
      <point x="338" y="-2" type="line"/>
      <point x="56" y="-2" type="line"/>
      <point x="383" y="1413" type="line"/>
      <point x="860" y="1413" type="line" smooth="yes"/>
      <point x="943" y="1413"/>
      <point x="1015" y="1391" type="qcurve" smooth="yes"/>
      <point x="1092" y="1368"/>
      <point x="1206" y="1278"/>
      <point x="1270" y="1151"/>
      <point x="1270" y="1076" type="qcurve"/>
      <point x="1269" y="994"/>
      <point x="1245" y="927" type="qcurve" smooth="yes"/>
      <point x="1193" y="786"/>
      <point x="1060" y="693" type="qcurve" smooth="yes"/>
      <point x="993" y="646"/>
      <point x="911" y="617" type="qcurve"/>
      <point x="973" y="463"/>
      <point x="1096" y="153"/>
    </contour>
    <contour>
      <point x="734" y="821" type="line"/>
      <point x="790" y="824"/>
      <point x="906" y="872"/>
      <point x="988" y="968"/>
      <point x="988" y="1044" type="qcurve" smooth="yes"/>
      <point x="988" y="1096"/>
      <point x="900" y="1159"/>
      <point x="807" y="1159" type="qcurve" smooth="yes"/>
      <point x="609" y="1159" type="line"/>
      <point x="532" y="821" type="line"/>
    </contour>
  </outline>
</glyph>
<glyph name="T" format="2">
  <advance width="1159"/>
  <unicode hex="0054"/>
  <outline>
    <contour>
      <point x="606" y="0" type="line"/>
      <point x="323" y="0" type="line"/>
      <point x="589" y="1156" type="line"/>
      <point x="156" y="1156" type="line"/>
      <point x="216" y="1413" type="line"/>
      <point x="1363" y="1413" type="line"/>
      <point x="1303" y="1156" type="line"/>
      <point x="871" y="1156" type="line"/>
    </contour>
  </outline>
</glyph>
<glyph name="U" format="2">
  <advance width="1387"/>
  <unicode hex="0055"/>
  <outline>
    <contour>
      <point x="589" y="-20" type="qcurve" smooth="yes"/>
      <point x="131" y="-20"/>
      <point x="130" y="373" type="qcurve"/>
      <point x="130" y="469"/>
      <point x="155" y="572" type="qcurve"/>
      <point x="348" y="1413" type="line"/>
      <point x="632" y="1413" type="line"/>
      <point x="439" y="573" type="line" smooth="yes"/>
      <point x="417" y="479"/>
      <point x="417" y="415" type="qcurve" smooth="yes"/>
      <point x="417" y="329"/>
      <point x="516" y="255"/>
      <point x="625" y="255" type="qcurve" smooth="yes"/>
      <point x="792" y="255"/>
      <point x="954" y="427"/>
      <point x="987" y="596" type="qcurve"/>
      <point x="1177" y="1413" type="line"/>
      <point x="1460" y="1413" type="line"/>
      <point x="1263" y="560" type="line"/>
      <point x="1199" y="276"/>
      <point x="872" y="-20"/>
    </contour>
  </outline>
</glyph>
<glyph name="X" format="2">
  <advance width="1366"/>
  <unicode hex="0058"/>
  <outline>
    <contour>
      <point x="1239" y="0" type="line"/>
      <point x="905" y="0" type="line"/>
      <point x="693" y="525" type="line"/>
      <point x="234" y="0" type="line"/>
      <point x="-111" y="0" type="line"/>
      <point x="530" y="707" type="line"/>
      <point x="224" y="1413" type="line"/>
      <point x="558" y="1413" type="line"/>
      <point x="766" y="881" type="line"/>
      <point x="1226" y="1413" type="line"/>
      <point x="1569" y="1413" type="line"/>
      <point x="930" y="707" type="line"/>
    </contour>
  </outline>
</glyph>
<glyph name="Z" format="2">
  <advance width="1268"/>
  <unicode hex="005A"/>
  <outline>
    <contour>
      <point x="1088" y="0" type="line"/>
      <point x="-65" y="0" type="line"/>
      <point x="-25" y="192" type="line"/>
      <point x="953" y="1150" type="line"/>
      <point x="245" y="1150" type="line"/>
      <point x="305" y="1413" type="line"/>
      <point x="1415" y="1413" type="line"/>
      <point x="1369" y="1212" type="line"/>
      <point x="397" y="255" type="line"/>
      <point x="1149" y="255" type="line"/>
    </contour>
  </outline>
</glyph>
<glyph name="bracketleft" format="2">
  <advance width="641"/>
  <unicode hex="005B"/>
  <outline>
    <contour>
      <point x="462" y="-186" type="line"/>
      <point x="8" y="-186" type="line"/>
      <point x="419" y="1594" type="line"/>
      <point x="873" y="1594" type="line"/>
      <point x="831" y="1410" type="line"/>
      <point x="596" y="1410" type="line"/>
      <point x="270" y="0" type="line"/>
      <point x="506" y="0" type="line"/>
    </contour>
  </outline>
</glyph>
<glyph name="bracketright" format="2">
  <advance width="641"/>
  <unicode hex="005D"/>
  <outline>
    <contour>
      <point x="315" y="-186" type="line"/>
      <point x="-139" y="-186" type="line"/>
      <point x="-94" y="0" type="line"/>
      <point x="142" y="0" type="line"/>
      <point x="467" y="1410" type="line"/>
      <point x="232" y="1410" type="line"/>
      <point x="274" y="1594" type="line"/>
      <point x="728" y="1594" type="line"/>
    </contour>
  </outline>
</glyph>
<glyph name="grave" format="2">
  <advance width="530"/>
  <unicode hex="0060"/>
  <outline>
    <contour>
      <point x="645" y="1098" type="line"/>
      <point x="463" y="1098" type="line"/>
      <point x="213" y="1413" type="line"/>
      <point x="490" y="1413" type="line"/>
    </contour>
  </outline>
</glyph>
<glyph name="b" format="2">
  <advance width="1189"/>
  <unicode hex="0062"/>
  <outline>
    <contour>
      <point x="611" y="-20" type="qcurve" smooth="yes"/>
      <point x="595" y="-20" type="line" smooth="yes"/>
      <point x="555" y="-20"/>
      <point x="477" y="-5"/>
      <point x="408" y="25"/>
      <point x="353" y="70"/>
      <point x="335" y="98" type="qcurve"/>
      <point x="310" y="0" type="line"/>
      <point x="25" y="0" type="line"/>
      <point x="106" y="355"/>
      <point x="188" y="707" type="qcurve" smooth="yes"/>
      <point x="269" y="1058"/>
      <point x="350" y="1410" type="qcurve"/>
      <point x="634" y="1410" type="line"/>
      <point x="605" y="1287"/>
      <point x="575" y="1166" type="qcurve" smooth="yes"/>
      <point x="545" y="1044"/>
      <point x="516" y="919" type="qcurve"/>
      <point x="629" y="1019"/>
      <point x="801" y="1019" type="qcurve" smooth="yes"/>
      <point x="967" y="1019"/>
      <point x="1061" y="913" type="qcurve"/>
      <point x="1150" y="810"/>
      <point x="1150" y="636" type="qcurve" smooth="yes"/>
      <point x="1150" y="558"/>
      <point x="1113" y="400"/>
      <point x="1045" y="253"/>
      <point x="947" y="124"/>
      <point x="824" y="30"/>
      <point x="750" y="4" type="qcurve" smooth="yes"/>
      <point x="685" y="-20"/>
    </contour>
    <contour>
      <point x="556" y="234" type="qcurve" smooth="yes"/>
      <point x="665" y="234"/>
      <point x="830" y="376"/>
      <point x="865" y="524" type="qcurve" smooth="yes"/>
      <point x="877" y="573"/>
      <point x="877" y="611" type="qcurve" smooth="yes"/>
      <point x="877" y="682"/>
      <point x="798" y="770"/>
      <point x="708" y="770" type="qcurve" smooth="yes"/>
      <point x="623" y="770"/>
      <point x="475" y="675"/>
      <point x="384" y="506"/>
      <point x="384" y="395" type="qcurve" smooth="yes"/>
      <point x="384" y="324"/>
      <point x="464" y="234"/>
    </contour>
  </outline>
</glyph>
<glyph name="d" format="2">
  <advance width="1183"/>
  <unicode hex="0064"/>
  <outline>
    <contour>
      <point x="388" y="-20" type="qcurve" smooth="yes"/>
      <point x="297" y="-20"/>
      <point x="165" y="40"/>
      <point x="79" y="143"/>
      <point x="37" y="283"/>
      <point x="37" y="362" type="qcurve" smooth="yes"/>
      <point x="37" y="433"/>
      <point x="71" y="587"/>
      <point x="137" y="734"/>
      <point x="234" y="866"/>
      <point x="358" y="966"/>
      <point x="433" y="994" type="qcurve" smooth="yes"/>
      <point x="504" y="1020"/>
      <point x="585" y="1020" type="qcurve" smooth="yes"/>
      <point x="595" y="1020" type="line" smooth="yes"/>
      <point x="677" y="1020"/>
      <point x="817" y="957"/>
      <point x="853" y="901" type="qcurve"/>
      <point x="976" y="1413" type="line"/>
      <point x="1254" y="1413" type="line"/>
      <point x="928" y="0" type="line"/>
      <point x="676" y="0" type="line"/>
      <point x="685" y="91" type="line"/>
      <point x="572" y="-20"/>
    </contour>
    <contour>
      <point x="484" y="233" type="qcurve" smooth="yes"/>
      <point x="591" y="233"/>
      <point x="766" y="380"/>
      <point x="793" y="524" type="qcurve"/>
      <point x="804" y="576"/>
      <point x="804" y="612" type="qcurve" smooth="yes"/>
      <point x="804" y="685"/>
      <point x="726" y="773"/>
      <point x="636" y="773" type="qcurve" smooth="yes"/>
      <point x="523" y="773"/>
      <point x="348" y="607"/>
      <point x="325" y="474" type="qcurve"/>
      <point x="314" y="432"/>
      <point x="314" y="391" type="qcurve" smooth="yes"/>
      <point x="314" y="321"/>
      <point x="394" y="233"/>
    </contour>
  </outline>
</glyph>
<glyph name="e" format="2">
  <advance width="1076"/>
  <unicode hex="0065"/>
  <outline>
    <contour>
      <point x="456" y="-12" type="qcurve" smooth="yes"/>
      <point x="350" y="-12"/>
      <point x="191" y="48"/>
      <point x="85" y="154"/>
      <point x="32" y="297"/>
      <point x="32" y="381" type="qcurve" smooth="yes"/>
      <point x="32" y="527"/>
      <point x="106" y="673" type="qcurve" smooth="yes"/>
      <point x="184" y="825"/>
      <point x="316" y="916" type="qcurve" smooth="yes"/>
      <point x="457" y="1012"/>
      <point x="634" y="1012" type="qcurve" smooth="yes"/>
      <point x="644" y="1012" type="line" smooth="yes"/>
      <point x="845" y="1012"/>
      <point x="947" y="912" type="qcurve" smooth="yes"/>
      <point x="1043" y="819"/>
      <point x="1043" y="648" type="qcurve" smooth="yes"/>
      <point x="1043" y="593"/>
      <point x="1032" y="532" type="qcurve" smooth="yes"/>
      <point x="1026" y="495"/>
      <point x="1006" y="423"/>
      <point x="996" y="400" type="qcurve"/>
      <point x="308" y="400" type="line"/>
      <point x="310" y="391" type="line"/>
      <point x="310" y="246"/>
      <point x="486" y="245" type="qcurve"/>
      <point x="573" y="245"/>
      <point x="630" y="267" type="qcurve"/>
      <point x="689" y="286"/>
      <point x="754" y="342" type="qcurve"/>
      <point x="833" y="250"/>
      <point x="911" y="157" type="qcurve"/>
      <point x="806" y="66"/>
      <point x="584" y="-12"/>
    </contour>
    <contour>
      <point x="783" y="593" type="line"/>
      <point x="785" y="619" type="line"/>
      <point x="784" y="661"/>
      <point x="780" y="677" type="qcurve"/>
      <point x="770" y="734"/>
      <point x="694" y="784"/>
      <point x="620" y="784" type="qcurve" smooth="yes"/>
      <point x="528" y="784"/>
      <point x="395" y="681"/>
      <point x="356" y="593" type="qcurve"/>
    </contour>
  </outline>
</glyph>
<glyph name="g" format="2">
  <advance width="1177"/>
  <unicode hex="0067"/>
  <outline>
    <contour>
      <point x="352" y="-440" type="qcurve" smooth="yes"/>
      <point x="197" y="-440"/>
      <point x="90" y="-380" type="qcurve" smooth="yes"/>
      <point x="-5" y="-327"/>
      <point x="-66" y="-211" type="qcurve"/>
      <point x="115" y="-108"/>
      <point x="166" y="-80" type="qcurve"/>
      <point x="181" y="-131"/>
      <point x="294" y="-200"/>
      <point x="385" y="-200" type="qcurve" smooth="yes"/>
      <point x="435" y="-200"/>
      <point x="522" y="-175"/>
      <point x="590" y="-123"/>
      <point x="639" y="-44"/>
      <point x="651" y="11" type="qcurve"/>
      <point x="657" y="35"/>
      <point x="663" y="59" type="qcurve" smooth="yes"/>
      <point x="668" y="83"/>
      <point x="675" y="106" type="qcurve"/>
      <point x="616" y="52"/>
      <point x="477" y="5"/>
      <point x="388" y="5" type="qcurve" smooth="yes"/>
      <point x="303" y="5"/>
      <point x="173" y="63"/>
      <point x="86" y="162"/>
      <point x="40" y="300"/>
      <point x="40" y="381" type="qcurve" smooth="yes"/>
      <point x="40" y="449"/>
      <point x="74" y="597"/>
      <point x="138" y="740"/>
      <point x="233" y="869"/>
      <point x="355" y="966"/>
      <point x="430" y="994" type="qcurve" smooth="yes"/>
      <point x="501" y="1020"/>
      <point x="581" y="1020" type="qcurve" smooth="yes"/>
      <point x="590" y="1020" type="line" smooth="yes"/>
      <point x="671" y="1020"/>
      <point x="742" y="992" type="qcurve"/>
      <point x="816" y="960"/>
      <point x="850" y="902" type="qcurve"/>
      <point x="857" y="924"/>
      <point x="877" y="999" type="qcurve"/>
      <point x="1153" y="999" type="line"/>
      <point x="919" y="-11" type="line"/>
      <point x="875" y="-215"/>
      <point x="724" y="-329" type="qcurve" smooth="yes"/>
      <point x="577" y="-440"/>
    </contour>
    <contour>
      <point x="489" y="259" type="qcurve" smooth="yes"/>
      <point x="596" y="259"/>
      <point x="759" y="395"/>
      <point x="795" y="537" type="qcurve"/>
      <point x="804" y="579"/>
      <point x="804" y="610" type="qcurve" smooth="yes"/>
      <point x="804" y="683"/>
      <point x="723" y="771"/>
      <point x="633" y="771" type="qcurve" smooth="yes"/>
      <point x="553" y="771"/>
      <point x="424" y="692"/>
      <point x="340" y="564"/>
      <point x="325" y="487" type="qcurve" smooth="yes"/>
      <point x="316" y="445"/>
      <point x="316" y="415" type="qcurve" smooth="yes"/>
      <point x="316" y="259"/>
    </contour>
  </outline>
</glyph>
<glyph name="h" format="2">
  <advance width="1177"/>
  <unicode hex="0068"/>
  <outline>
    <contour>
      <point x="958" y="0" type="line"/>
      <point x="680" y="0" type="line"/>
      <point x="712" y="144"/>
      <point x="778" y="431" type="qcurve" smooth="yes"/>
      <point x="817" y="598"/>
      <point x="825" y="641"/>
      <point x="825" y="669" type="qcurve" smooth="yes"/>
      <point x="825" y="716"/>
      <point x="780" y="761"/>
      <point x="724" y="761" type="qcurve" smooth="yes"/>
      <point x="718" y="761" type="line" smooth="yes"/>
      <point x="674" y="761"/>
      <point x="627" y="742" type="qcurve" smooth="yes"/>
      <point x="576" y="721"/>
      <point x="491" y="656"/>
      <point x="430" y="575"/>
      <point x="423" y="536" type="qcurve"/>
      <point x="392" y="401"/>
      <point x="363" y="268" type="qcurve" smooth="yes"/>
      <point x="333" y="135"/>
      <point x="302" y="0" type="qcurve"/>
      <point x="23" y="0" type="line"/>
      <point x="104" y="355"/>
      <point x="186" y="708" type="qcurve" smooth="yes"/>
      <point x="267" y="1060"/>
      <point x="348" y="1413" type="qcurve"/>
      <point x="627" y="1413" type="line"/>
      <point x="505" y="906" type="line"/>
      <point x="631" y="1016"/>
      <point x="799" y="1016" type="qcurve" smooth="yes"/>
      <point x="948" y="1016"/>
      <point x="1106" y="853"/>
      <point x="1106" y="708" type="qcurve" smooth="yes"/>
      <point x="1106" y="645"/>
      <point x="1091" y="584" type="qcurve"/>
    </contour>
  </outline>
</glyph>
<glyph name="i" format="2">
  <advance width="545"/>
  <unicode hex="0069"/>
  <outline>
    <contour>
      <point x="572" y="1178" type="line"/>
      <point x="290" y="1178" type="line"/>
      <point x="343" y="1413" type="line"/>
      <point x="625" y="1413" type="line"/>
    </contour>
    <contour>
      <point x="292" y="0" type="line"/>
      <point x="23" y="0" type="line"/>
      <point x="252" y="999" type="line"/>
      <point x="522" y="999" type="line"/>
    </contour>
  </outline>
</glyph>
<glyph name="j" format="2">
  <advance width="557"/>
  <unicode hex="006A"/>
  <outline>
    <contour>
      <point x="577" y="1149" type="line"/>
      <point x="295" y="1149" type="line"/>
      <point x="325" y="1283"/>
      <point x="356" y="1411" type="qcurve"/>
      <point x="637" y="1411" type="line"/>
    </contour>
    <contour>
      <point x="-86" y="-438" type="qcurve" smooth="yes"/>
      <point x="-185" y="-438"/>
      <point x="-267" y="-400" type="qcurve"/>
      <point x="-156" y="-168" type="line"/>
      <point x="-137" y="-178"/>
      <point x="-107" y="-187"/>
      <point x="-87" y="-187" type="qcurve" smooth="yes"/>
      <point x="-44" y="-187"/>
      <point x="1" y="-125"/>
      <point x="12" y="-67" type="qcurve"/>
      <point x="257" y="999" type="line"/>
      <point x="532" y="999" type="line"/>
      <point x="273" y="-127" type="line"/>
      <point x="238" y="-254"/>
      <point x="151" y="-343" type="qcurve"/>
      <point x="56" y="-438"/>
    </contour>
  </outline>
</glyph>
<glyph name="l" format="2">
  <advance width="588"/>
  <unicode hex="006C"/>
  <outline>
    <contour>
      <point x="256" y="-20" type="qcurve" smooth="yes"/>
      <point x="200" y="-20"/>
      <point x="109" y="9"/>
      <point x="55" y="79"/>
      <point x="55" y="141" type="qcurve" smooth="yes"/>
      <point x="55" y="179"/>
      <point x="72" y="248" type="qcurve"/>
      <point x="341" y="1413" type="line"/>
      <point x="614" y="1413" type="line"/>
      <point x="550" y="1133"/>
      <point x="486" y="863" type="qcurve"/>
      <point x="348" y="267" type="line"/>
      <point x="352" y="283" type="line"/>
      <point x="349" y="272"/>
      <point x="349" y="263" type="qcurve" smooth="yes"/>
      <point x="349" y="243"/>
      <point x="381" y="228"/>
      <point x="419" y="228" type="qcurve"/>
      <point x="447" y="229"/>
      <point x="484" y="234" type="qcurve"/>
      <point x="443" y="-2" type="line"/>
      <point x="312" y="-20"/>
    </contour>
  </outline>
</glyph>
<glyph name="m" format="2">
  <advance width="1756"/>
  <unicode hex="006D"/>
  <outline>
    <contour>
      <point x="1533" y="0" type="qcurve"/>
      <point x="1256" y="0" type="line"/>
      <point x="1288" y="144"/>
      <point x="1322" y="287" type="qcurve" smooth="yes"/>
      <point x="1393" y="593"/>
      <point x="1397" y="624" type="qcurve"/>
      <point x="1399" y="647"/>
      <point x="1399" y="664" type="qcurve" smooth="yes"/>
      <point x="1399" y="711"/>
      <point x="1354" y="760"/>
      <point x="1297" y="760" type="qcurve" smooth="yes"/>
      <point x="1290" y="760" type="line" smooth="yes"/>
      <point x="1200" y="760"/>
      <point x="1126" y="689" type="qcurve" smooth="yes"/>
      <point x="1091" y="656"/>
      <point x="1044" y="573"/>
      <point x="1036" y="531" type="qcurve"/>
      <point x="1004" y="396"/>
      <point x="915" y="0" type="qcurve"/>
      <point x="637" y="0" type="line"/>
      <point x="670" y="146"/>
      <point x="704" y="290" type="qcurve" smooth="yes"/>
      <point x="738" y="434"/>
      <point x="771" y="578" type="qcurve" smooth="yes"/>
      <point x="777" y="605"/>
      <point x="782" y="651"/>
      <point x="782" y="667" type="qcurve" smooth="yes"/>
      <point x="782" y="712"/>
      <point x="738" y="760"/>
      <point x="681" y="760" type="qcurve" smooth="yes"/>
      <point x="673" y="760" type="line" smooth="yes"/>
      <point x="630" y="760"/>
      <point x="590" y="743" type="qcurve"/>
      <point x="502" y="703"/>
      <point x="452" y="616" type="qcurve" smooth="yes"/>
      <point x="428" y="574"/>
      <point x="419" y="531" type="qcurve"/>
      <point x="387" y="396"/>
      <point x="298" y="0" type="qcurve"/>
      <point x="23" y="0" type="line"/>
      <point x="80" y="251"/>
      <point x="138" y="501" type="qcurve" smooth="yes"/>
      <point x="195" y="750"/>
      <point x="252" y="999" type="qcurve"/>
      <point x="528" y="999" type="line"/>
      <point x="507" y="924" type="line"/>
      <point x="571" y="980"/>
      <point x="696" y="1018"/>
      <point x="759" y="1018" type="qcurve" smooth="yes"/>
      <point x="849" y="1018"/>
      <point x="972" y="945"/>
      <point x="1012" y="879" type="qcurve"/>
      <point x="1090" y="950"/>
      <point x="1282" y="1016"/>
      <point x="1376" y="1016" type="qcurve" smooth="yes"/>
      <point x="1527" y="1016"/>
      <point x="1609" y="925" type="qcurve" smooth="yes"/>
      <point x="1682" y="842"/>
      <point x="1682" y="705" type="qcurve" smooth="yes"/>
      <point x="1682" y="677"/>
      <point x="1676" y="616"/>
      <point x="1634" y="441" type="qcurve"/>
      <point x="1566" y="149"/>
    </contour>
  </outline>
</glyph>
<glyph name="n" format="2">
  <advance width="1180"/>
  <unicode hex="006E"/>
  <outline>
    <contour>
      <point x="959" y="0" type="line"/>
      <point x="680" y="0" type="line"/>
      <point x="812" y="574"/>
      <point x="822" y="626" type="qcurve"/>
      <point x="825" y="649"/>
      <point x="825" y="670" type="qcurve" smooth="yes"/>
      <point x="825" y="714"/>
      <point x="782" y="761"/>
      <point x="726" y="761" type="qcurve" smooth="yes"/>
      <point x="719" y="761" type="line" smooth="yes"/>
      <point x="676" y="761"/>
      <point x="629" y="742" type="qcurve" smooth="yes"/>
      <point x="578" y="721"/>
      <point x="491" y="654"/>
      <point x="430" y="570"/>
      <point x="422" y="529" type="qcurve"/>
      <point x="302" y="0" type="line"/>
      <point x="23" y="0" type="line"/>
      <point x="80" y="251"/>
      <point x="138" y="501" type="qcurve" smooth="yes"/>
      <point x="195" y="750"/>
      <point x="252" y="999" type="qcurve"/>
      <point x="531" y="999" type="line"/>
      <point x="525" y="980"/>
      <point x="521" y="961" type="qcurve"/>
      <point x="513" y="932"/>
      <point x="504" y="904" type="qcurve"/>
      <point x="576" y="967"/>
      <point x="727" y="1016"/>
      <point x="803" y="1016" type="qcurve" smooth="yes"/>
      <point x="952" y="1016"/>
      <point x="1107" y="849"/>
      <point x="1107" y="709" type="qcurve" smooth="yes"/>
      <point x="1107" y="641"/>
      <point x="1093" y="587" type="qcurve"/>
    </contour>
  </outline>
</glyph>
<glyph name="r" format="2">
  <advance width="819"/>
  <unicode hex="0072"/>
  <outline>
    <contour>
      <point x="285" y="0" type="line"/>
      <point x="23" y="0" type="line"/>
      <point x="252" y="999" type="line"/>
      <point x="509" y="999" type="line"/>
      <point x="482" y="851" type="line"/>
      <point x="580" y="1014"/>
      <point x="733" y="1014" type="qcurve" smooth="yes"/>
      <point x="791" y="1014"/>
      <point x="907" y="975"/>
      <point x="949" y="935" type="qcurve"/>
      <point x="779" y="728" type="line"/>
      <point x="722" y="757"/>
      <point x="660" y="757" type="qcurve" smooth="yes"/>
      <point x="575" y="757"/>
      <point x="430" y="617"/>
      <point x="392" y="464" type="qcurve"/>
    </contour>
  </outline>
</glyph>
<glyph name="w" format="2">
  <advance width="1478"/>
  <unicode hex="0077"/>
  <outline>
    <contour>
      <point x="440" y="-5" type="line"/>
      <point x="198" y="-5" type="line"/>
      <point x="114" y="999" type="line"/>
      <point x="403" y="999" type="line"/>
      <point x="428" y="428" type="line"/>
      <point x="735" y="999" type="line"/>
      <point x="969" y="999" type="line"/>
      <point x="1010" y="430" type="line"/>
      <point x="1308" y="999" type="line"/>
      <point x="1602" y="999" type="line"/>
      <point x="1054" y="0" type="line"/>
      <point x="809" y="0" type="line"/>
      <point x="766" y="606" type="line"/>
    </contour>
  </outline>
</glyph>
<glyph name="x" format="2">
  <advance width="1062"/>
  <unicode hex="0078"/>
  <outline>
    <contour>
      <point x="945" y="0" type="line"/>
      <point x="614" y="0" type="line"/>
      <point x="493" y="323" type="line"/>
      <point x="219" y="0" type="line"/>
      <point x="-122" y="0" type="line"/>
      <point x="341" y="504" type="line"/>
      <point x="117" y="999" type="line"/>
      <point x="443" y="999" type="line"/>
      <point x="567" y="683" type="line"/>
      <point x="841" y="999" type="line"/>
      <point x="1184" y="999" type="line"/>
      <point x="717" y="504" type="line"/>
    </contour>
  </outline>
</glyph>
<glyph name="y" format="2">
  <advance width="1047"/>
  <unicode hex="0079"/>
  <outline>
    <contour>
      <point x="272" y="-430" type="line"/>
      <point x="-32" y="-430" type="line"/>
      <point x="265" y="34" type="line"/>
      <point x="97" y="999" type="line"/>
      <point x="392" y="999" type="line"/>
      <point x="479" y="343" type="line"/>
      <point x="879" y="999" type="line"/>
      <point x="1184" y="999" type="line"/>
    </contour>
  </outline>
</glyph>
<glyph name="braceleft" format="2">
  <advance width="622"/>
  <unicode hex="007B"/>
  <outline>
    <contour>
      <point x="331" y="-167" type="qcurve" smooth="yes"/>
      <point x="259" y="-167" type="line" smooth="yes"/>
      <point x="192" y="-167"/>
      <point x="112" y="-93"/>
      <point x="94" y="-35" type="qcurve"/>
      <point x="77" y="-12"/>
      <point x="77" y="37" type="qcurve" smooth="yes"/>
      <point x="77" y="94"/>
      <point x="91" y="145" type="qcurve"/>
      <point x="173" y="493" type="line" smooth="yes"/>
      <point x="176" y="506"/>
      <point x="176" y="519" type="qcurve" smooth="yes"/>
      <point x="176" y="534"/>
      <point x="163" y="556"/>
      <point x="137" y="571"/>
      <point x="71" y="598" type="qcurve"/>
      <point x="98" y="772" type="line"/>
      <point x="183" y="800"/>
      <point x="217" y="827" type="qcurve" smooth="yes"/>
      <point x="257" y="860"/>
      <point x="271" y="916" type="qcurve" smooth="yes"/>
      <point x="296" y="1023"/>
      <point x="320" y="1130" type="qcurve" smooth="yes"/>
      <point x="344" y="1236"/>
      <point x="369" y="1342" type="qcurve"/>
      <point x="398" y="1476"/>
      <point x="546" y="1602"/>
      <point x="678" y="1602" type="qcurve" smooth="yes"/>
      <point x="770" y="1602" type="line"/>
      <point x="798" y="1599" type="line"/>
      <point x="803" y="1599" type="line" smooth="yes"/>
      <point x="812" y="1599"/>
      <point x="823" y="1597" type="qcurve"/>
      <point x="809" y="1504"/>
      <point x="793" y="1412" type="qcurve"/>
      <point x="768" y="1418" type="line"/>
      <point x="704" y="1427"/>
      <point x="690" y="1427" type="qcurve" smooth="yes"/>
      <point x="617" y="1427"/>
      <point x="607" y="1390" type="qcurve"/>
      <point x="490" y="878" type="line" smooth="yes"/>
      <point x="473" y="805"/>
      <point x="426" y="750" type="qcurve"/>
      <point x="384" y="703"/>
      <point x="312" y="662" type="qcurve"/>
      <point x="326" y="654"/>
      <point x="359" y="623"/>
      <point x="376" y="607" type="qcurve"/>
      <point x="402" y="567"/>
      <point x="403" y="522" type="qcurve" smooth="yes"/>
      <point x="404" y="500" type="line"/>
      <point x="404" y="417"/>
      <point x="342" y="222" type="qcurve" smooth="yes"/>
      <point x="308" y="114"/>
      <point x="308" y="71" type="qcurve" smooth="yes"/>
      <point x="308" y="14"/>
      <point x="369" y="14" type="qcurve" smooth="yes"/>
      <point x="401" y="14"/>
      <point x="460" y="27" type="qcurve"/>
      <point x="431" y="-162" type="line"/>
      <point x="415" y="-162"/>
      <point x="380" y="-165" type="qcurve" smooth="yes"/>
      <point x="345" y="-167"/>
    </contour>
  </outline>
</glyph>
<glyph name="bar" format="2">
  <advance width="621"/>
  <unicode hex="007C"/>
  <outline>
    <contour>
      <point x="178" y="-512" type="line"/>
      <point x="-24" y="-512" type="line"/>
      <point x="449" y="1534" type="line"/>
      <point x="651" y="1534" type="line"/>
    </contour>
  </outline>
</glyph>
<glyph name="asciitilde" format="2">
  <advance width="1154"/>
  <unicode hex="007E"/>
  <outline>
    <contour>
      <point x="733" y="379" type="qcurve" smooth="yes"/>
      <point x="656" y="379"/>
      <point x="543" y="406"/>
      <point x="483" y="437" type="qcurve"/>
      <point x="430" y="455" type="line"/>
      <point x="414" y="459"/>
      <point x="399" y="459" type="qcurve" smooth="yes"/>
      <point x="372" y="459"/>
      <point x="353" y="449"/>
      <point x="353" y="435" type="qcurve"/>
      <point x="352" y="420"/>
      <point x="351" y="406" type="qcurve"/>
      <point x="159" y="406" type="line"/>
      <point x="159" y="651"/>
      <point x="397" y="651" type="qcurve" smooth="yes"/>
      <point x="487" y="651"/>
      <point x="612" y="621"/>
      <point x="667" y="594" type="qcurve"/>
      <point x="687" y="588" type="line"/>
      <point x="717" y="575"/>
      <point x="739" y="575" type="qcurve" smooth="yes"/>
      <point x="779" y="575"/>
      <point x="794" y="601"/>
      <point x="794" y="645" type="qcurve"/>
      <point x="994" y="645" type="line"/>
      <point x="994" y="507"/>
      <point x="863" y="379"/>
    </contour>
  </outline>
</glyph>
<glyph name="cent" format="2">
  <advance width="1107"/>
  <unicode hex="00A2"/>
  <outline>
    <contour>
      <point x="516" y="-205" type="line"/>
      <point x="313" y="-205" type="line"/>
      <point x="327" y="-155"/>
      <point x="340" y="-104" type="qcurve" smooth="yes"/>
      <point x="363" y="-19" type="line"/>
      <point x="224" y="13"/>
      <point x="83" y="216"/>
      <point x="83" y="362" type="qcurve" smooth="yes"/>
      <point x="83" y="507"/>
      <point x="203" y="787"/>
      <point x="428" y="987"/>
      <point x="588" y="1019" type="qcurve"/>
      <point x="637" y="1200" type="line"/>
      <point x="841" y="1200" type="line"/>
      <point x="827" y="1152"/>
      <point x="816" y="1107" type="qcurve" smooth="yes"/>
      <point x="804" y="1062"/>
      <point x="790" y="1014" type="qcurve"/>
      <point x="1017" y="977"/>
      <point x="1074" y="702" type="qcurve"/>
      <point x="825" y="633" type="line"/>
      <point x="822" y="728"/>
      <point x="750" y="806"/>
      <point x="664" y="806" type="qcurve" smooth="yes"/>
      <point x="589" y="806"/>
      <point x="465" y="728"/>
      <point x="376" y="601"/>
      <point x="327" y="445"/>
      <point x="327" y="367" type="qcurve" smooth="yes"/>
      <point x="327" y="287"/>
      <point x="406" y="188"/>
      <point x="495" y="188" type="qcurve" smooth="yes"/>
      <point x="589" y="188"/>
      <point x="715" y="288"/>
      <point x="762" y="385" type="qcurve"/>
      <point x="965" y="275" type="line"/>
      <point x="883" y="142"/>
      <point x="694" y="-2"/>
      <point x="563" y="-25" type="qcurve"/>
    </contour>
  </outline>
</glyph>
<glyph name="sterling" format="2">
  <advance width="1186"/>
  <unicode hex="00A3"/>
  <outline>
    <contour>
      <point x="1062" y="0" type="qcurve"/>
      <point x="15" y="0" type="line"/>
      <point x="66" y="224" type="line"/>
      <point x="219" y="281"/>
      <point x="383" y="465"/>
      <point x="383" y="600" type="qcurve"/>
      <point x="156" y="600" type="line"/>
      <point x="170" y="654"/>
      <point x="183" y="708" type="qcurve" smooth="yes"/>
      <point x="195" y="762"/>
      <point x="208" y="817" type="qcurve"/>
      <point x="383" y="817" type="line"/>
      <point x="375" y="863"/>
      <point x="374" y="928" type="qcurve"/>
      <point x="374" y="995"/>
      <point x="391" y="1059" type="qcurve"/>
      <point x="423" y="1190"/>
      <point x="522" y="1296" type="qcurve" smooth="yes"/>
      <point x="614" y="1394"/>
      <point x="753" y="1434" type="qcurve"/>
      <point x="815" y="1450"/>
      <point x="882" y="1450" type="qcurve" smooth="yes"/>
      <point x="902" y="1450" type="line" smooth="yes"/>
      <point x="974" y="1450"/>
      <point x="1100" y="1399"/>
      <point x="1198" y="1308"/>
      <point x="1261" y="1187"/>
      <point x="1268" y="1119" type="qcurve"/>
      <point x="1048" y="1065" type="line"/>
      <point x="1037" y="1139"/>
      <point x="940" y="1222"/>
      <point x="869" y="1222" type="qcurve" smooth="yes"/>
      <point x="863" y="1222" type="line" smooth="yes"/>
      <point x="805" y="1222"/>
      <point x="706" y="1171"/>
      <point x="633" y="1082"/>
      <point x="613" y="1025" type="qcurve" smooth="yes"/>
      <point x="594" y="972"/>
      <point x="594" y="915" type="qcurve"/>
      <point x="595" y="857"/>
      <point x="605" y="817" type="qcurve"/>
      <point x="1090" y="817" type="line"/>
      <point x="1076" y="762"/>
      <point x="1064" y="708" type="qcurve" smooth="yes"/>
      <point x="1052" y="654"/>
      <point x="1038" y="600" type="qcurve"/>
      <point x="604" y="600" type="line"/>
      <point x="604" y="546"/>
      <point x="592" y="484" type="qcurve" smooth="yes"/>
      <point x="566" y="349"/>
      <point x="502" y="272" type="qcurve" smooth="yes"/>
      <point x="469" y="232"/>
      <point x="427" y="223" type="qcurve"/>
      <point x="1114" y="227" type="line"/>
      <point x="1093" y="134" type="line" smooth="yes"/>
      <point x="1089" y="114"/>
    </contour>
  </outline>
</glyph>
<glyph name="currency" format="2">
  <advance width="1190"/>
  <unicode hex="00A4"/>
  <outline>
    <contour>
      <point x="881" y="117" type="line"/>
      <point x="796" y="220" type="line"/>
      <point x="666" y="148"/>
      <point x="537" y="148" type="qcurve" smooth="yes"/>
      <point x="385" y="148"/>
      <point x="277" y="234" type="qcurve"/>
      <point x="139" y="117" type="line"/>
      <point x="28" y="264" type="line"/>
      <point x="166" y="378" type="line"/>
      <point x="135" y="447"/>
      <point x="135" y="537" type="qcurve" smooth="yes"/>
      <point x="135" y="631"/>
      <point x="210" y="820"/>
      <point x="283" y="901" type="qcurve"/>
      <point x="200" y="995" type="line"/>
      <point x="369" y="1141" type="line"/>
      <point x="389" y="1115"/>
      <point x="411" y="1090" type="qcurve" smooth="yes"/>
      <point x="432" y="1065"/>
      <point x="452" y="1039" type="qcurve"/>
      <point x="581" y="1113"/>
      <point x="716" y="1113" type="qcurve" smooth="yes"/>
      <point x="863" y="1113"/>
      <point x="971" y="1028" type="qcurve"/>
      <point x="1013" y="1064"/>
      <point x="1054" y="1096" type="qcurve" smooth="yes"/>
      <point x="1107" y="1139" type="line"/>
      <point x="1220" y="999" type="line"/>
      <point x="1083" y="885" type="line"/>
      <point x="1117" y="809"/>
      <point x="1117" y="721" type="qcurve" smooth="yes"/>
      <point x="1117" y="630"/>
      <point x="1045" y="442"/>
      <point x="967" y="357" type="qcurve"/>
      <point x="1052" y="264" type="line"/>
    </contour>
    <contour>
      <point x="557" y="353" type="qcurve" smooth="yes"/>
      <point x="648" y="353"/>
      <point x="837" y="463"/>
      <point x="896" y="564" type="qcurve"/>
      <point x="931" y="628"/>
      <point x="931" y="703" type="qcurve" smooth="yes"/>
      <point x="931" y="788"/>
      <point x="815" y="910"/>
      <point x="717" y="910" type="qcurve" smooth="yes"/>
      <point x="656" y="910"/>
      <point x="525" y="859"/>
      <point x="412" y="767"/>
      <point x="342" y="639"/>
      <point x="342" y="562" type="qcurve" smooth="yes"/>
      <point x="342" y="476"/>
      <point x="458" y="353"/>
    </contour>
  </outline>
</glyph>
<glyph name="dieresis" format="2">
  <advance width="844"/>
  <unicode hex="00A8"/>
  <outline>
    <contour>
      <point x="635" y="1178" type="line"/>
      <point x="419" y="1178" type="line"/>
      <point x="472" y="1413" type="line"/>
      <point x="688" y="1413" type="line"/>
    </contour>
    <contour>
      <point x="995" y="1178" type="line"/>
      <point x="778" y="1178" type="line"/>
      <point x="833" y="1413" type="line"/>
      <point x="1048" y="1413" type="line"/>
    </contour>
  </outline>
</glyph>
<glyph name="macron" format="2">
  <advance width="828"/>
  <unicode hex="00AF"/>
  <outline>
    <contour>
      <point x="814" y="1136" type="line"/>
      <point x="249" y="1136" type="line"/>
      <point x="284" y="1284" type="line"/>
      <point x="848" y="1284" type="line"/>
    </contour>
  </outline>
</glyph>
<glyph name="degree" format="2">
  <advance width="754"/>
  <unicode hex="00B0"/>
  <outline>
    <contour>
      <point x="382" y="848" type="qcurve" smooth="yes"/>
      <point x="368" y="848" type="line" smooth="yes"/>
      <point x="313" y="848"/>
      <point x="263" y="870" type="qcurve" smooth="yes"/>
      <point x="209" y="894"/>
      <point x="128" y="976"/>
      <point x="105" y="1030" type="qcurve" smooth="yes"/>
      <point x="83" y="1079"/>
      <point x="83" y="1134" type="qcurve" smooth="yes"/>
      <point x="83" y="1148" type="line" smooth="yes"/>
      <point x="83" y="1204"/>
      <point x="130" y="1307"/>
      <point x="212" y="1387"/>
      <point x="317" y="1434"/>
      <point x="375" y="1434" type="qcurve" smooth="yes"/>
      <point x="382" y="1434" type="line" smooth="yes"/>
      <point x="437" y="1434"/>
      <point x="542" y="1390"/>
      <point x="623" y="1308"/>
      <point x="669" y="1203"/>
      <point x="669" y="1148" type="qcurve" smooth="yes"/>
      <point x="669" y="1134" type="line" smooth="yes"/>
      <point x="669" y="1079"/>
      <point x="623" y="975"/>
      <point x="542" y="894"/>
      <point x="438" y="848"/>
    </contour>
    <contour>
      <point x="375" y="1034" type="qcurve" smooth="yes"/>
      <point x="415" y="1034"/>
      <point x="485" y="1088"/>
      <point x="485" y="1141" type="qcurve" smooth="yes"/>
      <point x="485" y="1188"/>
      <point x="421" y="1248"/>
      <point x="375" y="1248" type="qcurve" smooth="yes"/>
      <point x="327" y="1248"/>
      <point x="268" y="1181"/>
      <point x="268" y="1141" type="qcurve" smooth="yes"/>
      <point x="268" y="1097"/>
      <point x="332" y="1034"/>
    </contour>
  </outline>
</glyph>
<glyph name="plusminus" format="2">
  <advance width="1332"/>
  <unicode hex="00B1"/>
  <outline>
    <contour>
      <point x="770" y="106" type="line"/>
      <point x="563" y="106" type="line"/>
      <point x="563" y="520" type="line"/>
      <point x="107" y="520" type="line"/>
      <point x="107" y="728" type="line"/>
      <point x="563" y="728" type="line"/>
      <point x="563" y="1143" type="line"/>
      <point x="770" y="1143" type="line"/>
      <point x="770" y="728" type="line"/>
      <point x="1226" y="728" type="line"/>
      <point x="1226" y="520" type="line"/>
      <point x="770" y="520" type="line"/>
    </contour>
    <contour>
      <point x="1223" y="-206" type="line"/>
      <point x="109" y="-206" type="line"/>
      <point x="109" y="0" type="line"/>
      <point x="1223" y="0" type="line"/>
    </contour>
  </outline>
</glyph>
<glyph name="acute" format="2">
  <advance width="537"/>
  <unicode hex="00B4"/>
  <outline>
    <contour>
      <point x="429" y="1124" type="line"/>
      <point x="231" y="1124" type="line"/>
      <point x="526" y="1413" type="line"/>
      <point x="811" y="1413" type="line"/>
    </contour>
  </outline>
</glyph>
<glyph name="mu" format="2">
  <advance width="1291"/>
  <unicode hex="00B5"/>
  <outline>
    <contour>
      <point x="257" y="-266" type="qcurve"/>
      <point x="31" y="-266" type="line"/>
      <point x="322" y="999" type="line"/>
      <point x="571" y="999" type="line"/>
      <point x="538" y="852"/>
      <point x="504" y="706" type="qcurve" smooth="yes"/>
      <point x="470" y="559"/>
      <point x="437" y="412" type="qcurve"/>
      <point x="422" y="353"/>
      <point x="422" y="315" type="qcurve" smooth="yes"/>
      <point x="422" y="266"/>
      <point x="472" y="210"/>
      <point x="535" y="210" type="qcurve" smooth="yes"/>
      <point x="542" y="210" type="line" smooth="yes"/>
      <point x="590" y="210"/>
      <point x="693" y="250"/>
      <point x="783" y="320"/>
      <point x="848" y="411"/>
      <point x="857" y="459" type="qcurve"/>
      <point x="981" y="999" type="line"/>
      <point x="1231" y="999" type="line"/>
      <point x="1001" y="0" type="line"/>
      <point x="752" y="0" type="line"/>
      <point x="771" y="67" type="line"/>
      <point x="651" y="-23"/>
      <point x="490" y="-23" type="qcurve" smooth="yes"/>
      <point x="415" y="-23"/>
      <point x="343" y="6" type="qcurve"/>
      <point x="327" y="-46"/>
      <point x="311" y="-96" type="qcurve" smooth="yes"/>
      <point x="289" y="-164" type="line" smooth="yes"/>
      <point x="273" y="-214"/>
    </contour>
  </outline>
</glyph>
<glyph name="periodcentered" format="2">
  <advance width="605"/>
  <unicode hex="00B7"/>
  <outline>
    <contour>
      <point x="345" y="636" type="qcurve" smooth="yes"/>
      <point x="287" y="636"/>
      <point x="214" y="715"/>
      <point x="214" y="776" type="qcurve" smooth="yes"/>
      <point x="214" y="844"/>
      <point x="315" y="948"/>
      <point x="391" y="948" type="qcurve" smooth="yes"/>
      <point x="451" y="948"/>
      <point x="525" y="868"/>
      <point x="525" y="812" type="qcurve" smooth="yes"/>
      <point x="525" y="745"/>
      <point x="424" y="636"/>
    </contour>
  </outline>
</glyph>
<glyph name="cedilla" format="2">
  <advance width="547"/>
  <unicode hex="00B8"/>
  <anchor x="37" y="-500" name="b.uni0326_2"/>
  <outline>
    <contour>
      <point x="19" y="-528" type="qcurve" smooth="yes"/>
      <point x="-46" y="-528"/>
      <point x="-147" y="-448"/>
      <point x="-162" y="-386" type="qcurve"/>
      <point x="-10" y="-349" type="line"/>
      <point x="-3" y="-377"/>
      <point x="32" y="-377" type="qcurve" smooth="yes"/>
      <point x="54" y="-377"/>
      <point x="108" y="-348"/>
      <point x="146" y="-299"/>
      <point x="146" y="-268" type="qcurve" smooth="yes"/>
      <point x="146" y="-235"/>
      <point x="70" y="-200"/>
      <point x="12" y="-200" type="qcurve" smooth="yes"/>
      <point x="-74" y="-200" type="line"/>
      <point x="93" y="-3" type="line"/>
      <point x="251" y="-3" type="line"/>
      <point x="141" y="-97" type="line"/>
      <point x="212" y="-109"/>
      <point x="295" y="-193"/>
      <point x="295" y="-265" type="qcurve" smooth="yes"/>
      <point x="295" y="-334"/>
      <point x="220" y="-454"/>
      <point x="95" y="-528"/>
    </contour>
  </outline>
</glyph>
<glyph name="AE" format="2">
  <advance width="1868"/>
  <unicode hex="00C6"/>
  <outline>
    <contour>
      <point x="1656" y="0" type="line"/>
      <point x="652" y="0" type="line"/>
      <point x="721" y="307" type="line"/>
      <point x="347" y="307" type="line"/>
      <point x="168" y="0" type="line"/>
      <point x="-121" y="0" type="line"/>
      <point x="773" y="1413" type="line"/>
      <point x="1982" y="1413" type="line"/>
      <point x="1927" y="1174" type="line"/>
      <point x="1179" y="1174" type="line"/>
      <point x="1098" y="825" type="line"/>
      <point x="1758" y="825" type="line"/>
      <point x="1703" y="588" type="line"/>
      <point x="1043" y="588" type="line"/>
      <point x="964" y="245" type="line"/>
      <point x="1712" y="245" type="line"/>
    </contour>
    <contour>
      <point x="769" y="521" type="line"/>
      <point x="921" y="1174" type="line"/>
      <point x="897" y="1174" type="line"/>
      <point x="486" y="521" type="line"/>
    </contour>
  </outline>
</glyph>
<glyph name="multiply" format="2">
  <advance width="1083"/>
  <unicode hex="00D7"/>
  <outline>
    <contour>
      <point x="217" y="157" type="line"/>
      <point x="73" y="301" type="line"/>
      <point x="394" y="625" type="line"/>
      <point x="101" y="918" type="line"/>
      <point x="248" y="1065" type="line"/>
      <point x="541" y="772" type="line"/>
      <point x="864" y="1092" type="line"/>
      <point x="1008" y="948" type="line"/>
      <point x="688" y="625" type="line"/>
      <point x="981" y="332" type="line"/>
      <point x="834" y="185" type="line"/>
      <point x="541" y="478" type="line"/>
    </contour>
  </outline>
</glyph>
<glyph name="Oslash" format="2">
  <advance width="1529"/>
  <unicode hex="00D8"/>
  <outline>
    <contour>
      <point x="658" y="-20" type="qcurve" smooth="yes"/>
      <point x="481" y="-20"/>
      <point x="352" y="43" type="qcurve"/>
      <point x="315" y="0" type="line"/>
      <point x="108" y="0" type="line"/>
      <point x="145" y="43" type="line" smooth="yes"/>
      <point x="186" y="89"/>
      <point x="226" y="138" type="qcurve"/>
      <point x="94" y="284"/>
      <point x="94" y="516" type="qcurve" smooth="yes"/>
      <point x="94" y="769"/>
      <point x="347" y="1217"/>
      <point x="565" y="1338" type="qcurve" smooth="yes"/>
      <point x="740" y="1434"/>
      <point x="967" y="1434" type="qcurve" smooth="yes"/>
      <point x="1149" y="1434"/>
      <point x="1273" y="1369" type="qcurve"/>
      <point x="1310" y="1413" type="line"/>
      <point x="1513" y="1413" type="line"/>
      <point x="1397" y="1277" type="line"/>
      <point x="1529" y="1140"/>
      <point x="1529" y="895" type="qcurve" smooth="yes"/>
      <point x="1529" y="750"/>
      <point x="1431" y="453"/>
      <point x="1348" y="329" type="qcurve"/>
      <point x="1275" y="224"/>
      <point x="1069" y="68"/>
      <point x="810" y="-20"/>
    </contour>
    <contour>
      <point x="420" y="369" type="qcurve"/>
      <point x="596" y="573"/>
      <point x="1091" y="1154" type="qcurve"/>
      <point x="1060" y="1169"/>
      <point x="984" y="1183"/>
      <point x="928" y="1183" type="qcurve" smooth="yes"/>
      <point x="826" y="1183"/>
      <point x="743" y="1145" type="qcurve" smooth="yes"/>
      <point x="656" y="1106"/>
      <point x="525" y="968"/>
      <point x="436" y="785"/>
      <point x="413" y="681" type="qcurve"/>
      <point x="393" y="596"/>
      <point x="393" y="519" type="qcurve" smooth="yes"/>
      <point x="393" y="433"/>
    </contour>
    <contour>
      <point x="696" y="230" type="line" smooth="yes"/>
      <point x="801" y="230"/>
      <point x="970" y="308"/>
      <point x="1100" y="446"/>
      <point x="1188" y="629"/>
      <point x="1211" y="731" type="qcurve"/>
      <point x="1231" y="813"/>
      <point x="1231" y="885" type="qcurve" smooth="yes"/>
      <point x="1231" y="895" type="line" smooth="yes"/>
      <point x="1231" y="984"/>
      <point x="1204" y="1046" type="qcurve"/>
      <point x="1035" y="848"/>
      <point x="869" y="652" type="qcurve" smooth="yes"/>
      <point x="703" y="456"/>
      <point x="533" y="258" type="qcurve"/>
      <point x="595" y="230"/>
      <point x="688" y="230" type="qcurve" smooth="yes"/>
    </contour>
  </outline>
</glyph>
<glyph name="Thorn" format="2">
  <advance width="1144"/>
  <unicode hex="00DE"/>
  <outline>
    <contour>
      <point x="311" y="0" type="line"/>
      <point x="58" y="0" type="line"/>
      <point x="383" y="1413" type="line"/>
      <point x="637" y="1413" type="line"/>
      <point x="593" y="1221" type="line"/>
      <point x="843" y="1221" type="line" smooth="yes"/>
      <point x="967" y="1221"/>
      <point x="1125" y="1146"/>
      <point x="1200" y="1009"/>
      <point x="1200" y="917" type="qcurve" smooth="yes"/>
      <point x="1200" y="761"/>
      <point x="1050" y="522"/>
      <point x="926" y="457" type="qcurve"/>
      <point x="786" y="386"/>
      <point x="596" y="386" type="qcurve" smooth="yes"/>
      <point x="399" y="386" type="line"/>
    </contour>
    <contour>
      <point x="635" y="617" type="line" smooth="yes"/>
      <point x="887" y="617"/>
      <point x="940" y="835" type="qcurve" smooth="yes"/>
      <point x="946" y="862"/>
      <point x="946" y="883" type="qcurve" smooth="yes"/>
      <point x="946" y="948"/>
      <point x="843" y="1008"/>
      <point x="739" y="1008" type="qcurve" smooth="yes"/>
      <point x="545" y="1008" type="line"/>
      <point x="452" y="617" type="line"/>
    </contour>
  </outline>
</glyph>
<glyph name="germandbls" format="2">
  <advance width="1187"/>
  <unicode hex="00DF"/>
  <outline>
    <contour>
      <point x="635" y="-18" type="qcurve" smooth="yes"/>
      <point x="626" y="-18" type="line" smooth="yes"/>
      <point x="586" y="-18"/>
      <point x="487" y="-2"/>
      <point x="440" y="14" type="qcurve"/>
      <point x="573" y="232" type="line"/>
      <point x="590" y="228"/>
      <point x="623" y="225"/>
      <point x="647" y="225" type="qcurve" smooth="yes"/>
      <point x="708" y="225"/>
      <point x="757" y="262" type="qcurve" smooth="yes"/>
      <point x="812" y="303"/>
      <point x="812" y="372" type="qcurve" smooth="yes"/>
      <point x="812" y="404"/>
      <point x="792" y="434" type="qcurve"/>
      <point x="771" y="463"/>
      <point x="733" y="500" type="qcurve" smooth="yes"/>
      <point x="674" y="559"/>
      <point x="652" y="597" type="qcurve" smooth="yes"/>
      <point x="617" y="654"/>
      <point x="615" y="720" type="qcurve"/>
      <point x="615" y="786"/>
      <point x="656" y="865"/>
      <point x="724" y="923"/>
      <point x="769" y="950" type="qcurve"/>
      <point x="870" y="1014"/>
      <point x="897" y="1065" type="qcurve"/>
      <point x="912" y="1091"/>
      <point x="912" y="1115" type="qcurve"/>
      <point x="910" y="1141"/>
      <point x="904" y="1150" type="qcurve"/>
      <point x="879" y="1202"/>
      <point x="775" y="1202" type="qcurve" smooth="yes"/>
      <point x="688" y="1202"/>
      <point x="589" y="1141"/>
      <point x="532" y="1040"/>
      <point x="518" y="975" type="qcurve" smooth="yes"/>
      <point x="489" y="841"/>
      <point x="295" y="0" type="qcurve"/>
      <point x="25" y="0" type="line"/>
      <point x="75" y="216"/>
      <point x="124" y="432" type="qcurve" smooth="yes"/>
      <point x="173" y="647"/>
      <point x="224" y="864" type="qcurve"/>
      <point x="252" y="990"/>
      <point x="295" y="1096" type="qcurve" smooth="yes"/>
      <point x="434" y="1434"/>
      <point x="775" y="1434" type="qcurve" smooth="yes"/>
      <point x="795" y="1434" type="line" smooth="yes"/>
      <point x="855" y="1434"/>
      <point x="912" y="1419" type="qcurve" smooth="yes"/>
      <point x="974" y="1403"/>
      <point x="1023" y="1372" type="qcurve" smooth="yes"/>
      <point x="1130" y="1304"/>
      <point x="1163" y="1191" type="qcurve"/>
      <point x="1171" y="1158"/>
      <point x="1171" y="1114" type="qcurve" smooth="yes"/>
      <point x="1171" y="1028"/>
      <point x="1136" y="959" type="qcurve" smooth="yes"/>
      <point x="1099" y="886"/>
      <point x="1025" y="837" type="qcurve" smooth="yes"/>
      <point x="998" y="820"/>
      <point x="971" y="807" type="qcurve" smooth="yes"/>
      <point x="944" y="793"/>
      <point x="894" y="766"/>
      <point x="878" y="754" type="qcurve" smooth="yes"/>
      <point x="856" y="736"/>
      <point x="856" y="719" type="qcurve" smooth="yes"/>
      <point x="856" y="700"/>
      <point x="898" y="668" type="qcurve" smooth="yes"/>
      <point x="947" y="630" type="line" smooth="yes"/>
      <point x="974" y="609"/>
      <point x="1000" y="583" type="qcurve" smooth="yes"/>
      <point x="1035" y="549"/>
      <point x="1083" y="447"/>
      <point x="1083" y="384" type="qcurve" smooth="yes"/>
      <point x="1083" y="305"/>
      <point x="1014" y="158"/>
      <point x="890" y="46"/>
      <point x="727" y="-18"/>
    </contour>
  </outline>
</glyph>
<glyph name="ae" format="2">
  <advance width="1677"/>
  <unicode hex="00E6"/>
  <outline>
    <contour>
      <point x="293" y="-20" type="qcurve" smooth="yes"/>
      <point x="212" y="-20"/>
      <point x="71" y="41"/>
      <point x="-16" y="159"/>
      <point x="-16" y="246" type="qcurve" smooth="yes"/>
      <point x="-16" y="315"/>
      <point x="31" y="431"/>
      <point x="68" y="473" type="qcurve" smooth="yes"/>
      <point x="178" y="596"/>
      <point x="462" y="604" type="qcurve"/>
      <point x="729" y="604" type="line"/>
      <point x="737" y="644"/>
      <point x="737" y="673" type="qcurve" smooth="yes"/>
      <point x="737" y="732"/>
      <point x="663" y="782"/>
      <point x="576" y="782" type="qcurve" smooth="yes"/>
      <point x="525" y="782"/>
      <point x="428" y="743"/>
      <point x="343" y="683"/>
      <point x="310" y="650" type="qcurve"/>
      <point x="279" y="682"/>
      <point x="250" y="711" type="qcurve" smooth="yes"/>
      <point x="210" y="749" type="line"/>
      <point x="181" y="779"/>
      <point x="150" y="810" type="qcurve"/>
      <point x="252" y="917"/>
      <point x="478" y="1016"/>
      <point x="611" y="1016" type="qcurve" smooth="yes"/>
      <point x="724" y="1016"/>
      <point x="879" y="928"/>
      <point x="916" y="860" type="qcurve"/>
      <point x="1081" y="1012"/>
      <point x="1273" y="1012" type="qcurve" smooth="yes"/>
      <point x="1405" y="1012"/>
      <point x="1569" y="917"/>
      <point x="1644" y="752"/>
      <point x="1644" y="647" type="qcurve" smooth="yes"/>
      <point x="1644" y="586"/>
      <point x="1632" y="520" type="qcurve"/>
      <point x="1626" y="480"/>
      <point x="1605" y="421"/>
      <point x="1595" y="411" type="qcurve"/>
      <point x="907" y="411" type="line"/>
      <point x="909" y="391" type="line"/>
      <point x="909" y="245"/>
      <point x="1087" y="245" type="qcurve" smooth="yes"/>
      <point x="1252" y="245"/>
      <point x="1352" y="342" type="qcurve"/>
      <point x="1512" y="157" type="line"/>
      <point x="1409" y="68"/>
      <point x="1192" y="-12"/>
      <point x="1057" y="-12" type="qcurve" smooth="yes"/>
      <point x="830" y="-12"/>
      <point x="742" y="115" type="qcurve"/>
      <point x="545" y="-20"/>
    </contour>
    <contour>
      <point x="1387" y="604" type="line"/>
      <point x="1387" y="641"/>
      <point x="1385" y="649" type="qcurve"/>
      <point x="1385" y="654" type="line"/>
      <point x="1381" y="719"/>
      <point x="1303" y="784"/>
      <point x="1222" y="784" type="qcurve" smooth="yes"/>
      <point x="1144" y="784"/>
      <point x="1005" y="699"/>
      <point x="957" y="604" type="qcurve"/>
    </contour>
    <contour>
      <point x="363" y="202" type="line" smooth="yes"/>
      <point x="411" y="202"/>
      <point x="510" y="241"/>
      <point x="599" y="304"/>
      <point x="667" y="378"/>
      <point x="683" y="411" type="qcurve"/>
      <point x="444" y="411" type="line"/>
      <point x="378" y="409"/>
      <point x="276" y="355"/>
      <point x="249" y="317" type="qcurve" smooth="yes"/>
      <point x="242" y="307"/>
      <point x="233" y="281"/>
      <point x="233" y="267" type="qcurve"/>
      <point x="230" y="267" type="line"/>
      <point x="229" y="259" type="line"/>
      <point x="229" y="202"/>
      <point x="357" y="202" type="qcurve" smooth="yes"/>
    </contour>
  </outline>
</glyph>
<glyph name="eth" format="2">
  <advance width="1183"/>
  <unicode hex="00F0"/>
  <outline>
    <contour>
      <point x="484" y="-16" type="qcurve" smooth="yes"/>
      <point x="266" y="-16"/>
      <point x="147" y="101" type="qcurve" smooth="yes"/>
      <point x="35" y="212"/>
      <point x="35" y="399" type="qcurve" smooth="yes"/>
      <point x="35" y="477"/>
      <point x="75" y="631"/>
      <point x="151" y="770"/>
      <point x="258" y="888"/>
      <point x="394" y="974"/>
      <point x="474" y="998" type="qcurve" smooth="yes"/>
      <point x="549" y="1020"/>
      <point x="634" y="1020" type="qcurve" smooth="yes"/>
      <point x="644" y="1020" type="line" smooth="yes"/>
      <point x="728" y="1020"/>
      <point x="848" y="975"/>
      <point x="902" y="922" type="qcurve"/>
      <point x="898" y="977"/>
      <point x="882" y="1028" type="qcurve"/>
      <point x="855" y="1099"/>
      <point x="754" y="1193"/>
      <point x="688" y="1224" type="qcurve"/>
      <point x="582" y="1108" type="line"/>
      <point x="487" y="1176" type="line"/>
      <point x="575" y="1272" type="line"/>
      <point x="562" y="1274"/>
      <point x="533" y="1283" type="qcurve" smooth="yes"/>
      <point x="460" y="1306" type="line"/>
      <point x="618" y="1510" type="line"/>
      <point x="681" y="1486"/>
      <point x="744" y="1453" type="qcurve"/>
      <point x="840" y="1558" type="line"/>
      <point x="937" y="1496" type="line"/>
      <point x="845" y="1395" type="line"/>
      <point x="1000" y="1292"/>
      <point x="1153" y="1014"/>
      <point x="1153" y="826" type="qcurve" smooth="yes"/>
      <point x="1153" y="708"/>
      <point x="1103" y="473"/>
      <point x="1010" y="267"/>
      <point x="875" y="103"/>
      <point x="789" y="57" type="qcurve" smooth="yes"/>
      <point x="655" y="-16"/>
    </contour>
    <contour>
      <point x="508" y="235" type="line" smooth="yes"/>
      <point x="569" y="235"/>
      <point x="680" y="284"/>
      <point x="773" y="369"/>
      <point x="836" y="482"/>
      <point x="846" y="544" type="qcurve"/>
      <point x="854" y="576"/>
      <point x="854" y="612" type="qcurve" smooth="yes"/>
      <point x="854" y="696"/>
      <point x="751" y="797"/>
      <point x="658" y="797" type="qcurve" smooth="yes"/>
      <point x="588" y="797"/>
      <point x="458" y="735"/>
      <point x="361" y="631"/>
      <point x="303" y="494"/>
      <point x="303" y="419" type="qcurve" smooth="yes"/>
      <point x="303" y="337"/>
      <point x="402" y="235"/>
      <point x="501" y="235" type="qcurve" smooth="yes"/>
    </contour>
  </outline>
</glyph>
<glyph name="aogonek" format="2">
  <advance width="1070"/>
  <unicode hex="0105"/>
  <outline>
    <contour>
      <point x="621" y="-453" type="qcurve" smooth="yes"/>
      <point x="613" y="-453" type="line"/>
      <point x="591" y="-451"/>
      <point x="577" y="-447" type="qcurve"/>
      <point x="508" y="-434"/>
      <point x="430" y="-344"/>
      <point x="430" y="-275" type="qcurve" smooth="yes"/>
      <point x="430" y="-237"/>
      <point x="448" y="-201" type="qcurve" smooth="yes"/>
      <point x="490" y="-113"/>
      <point x="597" y="-23" type="qcurve" smooth="yes"/>
      <point x="616" y="-7"/>
      <point x="636" y="7" type="qcurve"/>
      <point x="632" y="4" type="line"/>
      <point x="676" y="2" type="line"/>
      <point x="685" y="91" type="line"/>
      <point x="570" y="-20"/>
      <point x="388" y="-20" type="qcurve" smooth="yes"/>
      <point x="301" y="-20"/>
      <point x="170" y="37"/>
      <point x="81" y="139"/>
      <point x="37" y="280"/>
      <point x="37" y="362" type="qcurve" smooth="yes"/>
      <point x="37" y="436"/>
      <point x="72" y="590"/>
      <point x="139" y="737"/>
      <point x="236" y="868"/>
      <point x="360" y="965"/>
      <point x="435" y="993" type="qcurve" smooth="yes"/>
      <point x="506" y="1020"/>
      <point x="586" y="1020" type="qcurve" smooth="yes"/>
      <point x="595" y="1020" type="line" smooth="yes"/>
      <point x="677" y="1020"/>
      <point x="817" y="957"/>
      <point x="853" y="901" type="qcurve"/>
      <point x="872" y="972"/>
      <point x="877" y="987" type="qcurve"/>
      <point x="880" y="999" type="line"/>
      <point x="1158" y="999" type="line"/>
      <point x="928" y="0" type="line"/>
      <point x="872" y="0" type="line"/>
      <point x="864" y="-2"/>
      <point x="815" y="-21"/>
      <point x="752" y="-53"/>
      <point x="683" y="-98"/>
      <point x="626" y="-155"/>
      <point x="587" y="-221"/>
      <point x="587" y="-259" type="qcurve" smooth="yes"/>
      <point x="587" y="-281"/>
      <point x="612" y="-290"/>
      <point x="634" y="-290" type="qcurve" smooth="yes"/>
      <point x="693" y="-290"/>
      <point x="755" y="-226" type="qcurve"/>
      <point x="869" y="-337" type="line"/>
      <point x="815" y="-398"/>
      <point x="696" y="-453"/>
    </contour>
    <contour>
      <point x="484" y="233" type="qcurve" smooth="yes"/>
      <point x="592" y="233"/>
      <point x="758" y="375"/>
      <point x="793" y="524" type="qcurve"/>
      <point x="804" y="576"/>
      <point x="804" y="612" type="qcurve" smooth="yes"/>
      <point x="804" y="685"/>
      <point x="726" y="773"/>
      <point x="636" y="773" type="qcurve" smooth="yes"/>
      <point x="522" y="773"/>
      <point x="348" y="605"/>
      <point x="325" y="474" type="qcurve"/>
      <point x="314" y="432"/>
      <point x="314" y="391" type="qcurve" smooth="yes"/>
      <point x="314" y="321"/>
      <point x="394" y="233"/>
    </contour>
  </outline>
</glyph>
<glyph name="Dcroat" format="2">
  <advance width="1430"/>
  <unicode hex="0110"/>
  <outline>
    <contour>
      <point x="497" y="0" type="qcurve" smooth="yes"/>
      <point x="81" y="0" type="line"/>
      <point x="222" y="610" type="line"/>
      <point x="110" y="610" type="line"/>
      <point x="120" y="652"/>
      <point x="155" y="816" type="qcurve"/>
      <point x="267" y="816" type="line"/>
      <point x="407" y="1413" type="line"/>
      <point x="811" y="1413" type="line" smooth="yes"/>
      <point x="1109" y="1413"/>
      <point x="1431" y="1145"/>
      <point x="1431" y="891" type="qcurve" smooth="yes"/>
      <point x="1431" y="749"/>
      <point x="1335" y="450"/>
      <point x="1252" y="337" type="qcurve" smooth="yes"/>
      <point x="1129" y="172"/>
      <point x="743" y="0"/>
    </contour>
    <contour>
      <point x="513" y="241" type="line" smooth="yes"/>
      <point x="668" y="241"/>
      <point x="933" y="343"/>
      <point x="1120" y="559"/>
      <point x="1159" y="731" type="qcurve" smooth="yes"/>
      <point x="1178" y="817"/>
      <point x="1178" y="881" type="qcurve" smooth="yes"/>
      <point x="1178" y="1033"/>
      <point x="972" y="1173"/>
      <point x="765" y="1173" type="qcurve" smooth="yes"/>
      <point x="606" y="1173" type="line"/>
      <point x="524" y="816" type="line"/>
      <point x="905" y="816" type="line"/>
      <point x="895" y="774"/>
      <point x="860" y="610" type="qcurve"/>
      <point x="479" y="610" type="line"/>
      <point x="392" y="241" type="line"/>
    </contour>
  </outline>
</glyph>
<glyph name="dcroat" format="2">
  <advance width="1183"/>
  <unicode hex="0111"/>
  <outline>
    <contour>
      <point x="388" y="-20" type="qcurve" smooth="yes"/>
      <point x="301" y="-20"/>
      <point x="169" y="38"/>
      <point x="82" y="140"/>
      <point x="37" y="280"/>
      <point x="37" y="362" type="qcurve" smooth="yes"/>
      <point x="37" y="434"/>
      <point x="72" y="590"/>
      <point x="140" y="737"/>
      <point x="237" y="869"/>
      <point x="361" y="967"/>
      <point x="436" y="995" type="qcurve" smooth="yes"/>
      <point x="505" y="1020"/>
      <point x="586" y="1020" type="qcurve" smooth="yes"/>
      <point x="595" y="1020" type="line" smooth="yes"/>
      <point x="677" y="1020"/>
      <point x="817" y="957"/>
      <point x="853" y="901" type="qcurve"/>
      <point x="908" y="1133" type="line"/>
      <point x="668" y="1133" type="line"/>
      <point x="708" y="1312" type="line"/>
      <point x="952" y="1312" type="line"/>
      <point x="958" y="1338"/>
      <point x="964" y="1363" type="qcurve" smooth="yes"/>
      <point x="969" y="1387"/>
      <point x="976" y="1413" type="qcurve"/>
      <point x="1254" y="1413" type="line"/>
      <point x="1231" y="1312" type="line"/>
      <point x="1343" y="1312" type="line"/>
      <point x="1303" y="1133" type="line"/>
      <point x="1190" y="1133" type="line"/>
      <point x="928" y="0" type="line"/>
      <point x="676" y="0" type="line"/>
      <point x="685" y="91" type="line"/>
      <point x="570" y="-20"/>
    </contour>
    <contour>
      <point x="484" y="233" type="qcurve" smooth="yes"/>
      <point x="591" y="233"/>
      <point x="766" y="380"/>
      <point x="793" y="524" type="qcurve"/>
      <point x="804" y="576"/>
      <point x="804" y="612" type="qcurve" smooth="yes"/>
      <point x="804" y="685"/>
      <point x="726" y="773"/>
      <point x="636" y="773" type="qcurve" smooth="yes"/>
      <point x="523" y="773"/>
      <point x="348" y="607"/>
      <point x="325" y="474" type="qcurve"/>
      <point x="314" y="432"/>
      <point x="314" y="391" type="qcurve" smooth="yes"/>
      <point x="314" y="321"/>
      <point x="394" y="233"/>
    </contour>
  </outline>
</glyph>
<glyph name="Eogonek" format="2">
  <advance width="1245"/>
  <unicode hex="0118"/>
  <outline>
    <contour>
      <point x="784" y="-451" type="qcurve" smooth="yes"/>
      <point x="695" y="-451"/>
      <point x="585" y="-357"/>
      <point x="585" y="-275" type="qcurve" smooth="yes"/>
      <point x="585" y="-209"/>
      <point x="649" y="-102"/>
      <point x="739" y="-24"/>
      <point x="779" y="0" type="qcurve"/>
      <point x="58" y="0" type="line"/>
      <point x="383" y="1413" type="line"/>
      <point x="1330" y="1413" type="line"/>
      <point x="1271" y="1150" type="line"/>
      <point x="607" y="1150" type="line"/>
      <point x="532" y="838" type="line"/>
      <point x="1166" y="838" type="line"/>
      <point x="1106" y="574" type="line"/>
      <point x="473" y="574" type="line"/>
      <point x="437" y="422"/>
      <point x="404" y="270" type="qcurve"/>
      <point x="1068" y="270" type="line"/>
      <point x="1005" y="0" type="line"/>
      <point x="887" y="0" type="line"/>
      <point x="1012" y="-5" type="line"/>
      <point x="981" y="-14"/>
      <point x="865" y="-79"/>
      <point x="812" y="-124" type="qcurve"/>
      <point x="784" y="-151"/>
      <point x="742" y="-223"/>
      <point x="742" y="-259" type="qcurve" smooth="yes"/>
      <point x="742" y="-280"/>
      <point x="766" y="-290"/>
      <point x="789" y="-290" type="qcurve" smooth="yes"/>
      <point x="848" y="-290"/>
      <point x="910" y="-226" type="qcurve"/>
      <point x="1024" y="-337" type="line"/>
      <point x="924" y="-451"/>
    </contour>
  </outline>
</glyph>
<glyph name="eogonek" format="2">
  <advance width="1076"/>
  <unicode hex="0119"/>
  <outline>
    <contour>
      <point x="509" y="-404" type="qcurve" smooth="yes"/>
      <point x="466" y="-404"/>
      <point x="392" y="-381"/>
      <point x="340" y="-336"/>
      <point x="310" y="-270"/>
      <point x="310" y="-228" type="qcurve" smooth="yes"/>
      <point x="310" y="-171"/>
      <point x="368" y="-59"/>
      <point x="423" y="-11" type="qcurve"/>
      <point x="324" y="-6"/>
      <point x="177" y="57"/>
      <point x="80" y="161"/>
      <point x="32" y="301"/>
      <point x="32" y="383" type="qcurve" smooth="yes"/>
      <point x="32" y="535"/>
      <point x="107" y="678" type="qcurve"/>
      <point x="143" y="749"/>
      <point x="250" y="872"/>
      <point x="318" y="918" type="qcurve" smooth="yes"/>
      <point x="458" y="1012"/>
      <point x="632" y="1012" type="qcurve"/>
      <point x="736" y="1011"/>
      <point x="800" y="1004" type="qcurve" smooth="yes"/>
      <point x="871" y="996"/>
      <point x="929" y="972" type="qcurve"/>
      <point x="1043" y="849"/>
      <point x="1043" y="648" type="qcurve" smooth="yes"/>
      <point x="1043" y="584"/>
      <point x="1030" y="520" type="qcurve"/>
      <point x="1022" y="487"/>
      <point x="1005" y="420"/>
      <point x="996" y="400" type="qcurve"/>
      <point x="308" y="400" type="line"/>
      <point x="310" y="391" type="line"/>
      <point x="310" y="245"/>
      <point x="486" y="245" type="qcurve" smooth="yes"/>
      <point x="570" y="245"/>
      <point x="632" y="268" type="qcurve"/>
      <point x="690" y="287"/>
      <point x="754" y="342" type="qcurve"/>
      <point x="833" y="250"/>
      <point x="911" y="157" type="qcurve"/>
      <point x="875" y="126"/>
      <point x="803" y="85"/>
      <point x="731" y="49"/>
      <point x="657" y="12"/>
      <point x="618" y="-15" type="qcurve"/>
      <point x="552" y="-58"/>
      <point x="516" y="-99" type="qcurve" smooth="yes"/>
      <point x="467" y="-155"/>
      <point x="467" y="-212" type="qcurve" smooth="yes"/>
      <point x="467" y="-233"/>
      <point x="492" y="-242"/>
      <point x="514" y="-242" type="qcurve" smooth="yes"/>
      <point x="573" y="-242"/>
      <point x="635" y="-179" type="qcurve"/>
      <point x="692" y="-233"/>
      <point x="749" y="-289" type="qcurve"/>
      <point x="698" y="-346"/>
      <point x="583" y="-404"/>
    </contour>
    <contour>
      <point x="783" y="593" type="line"/>
      <point x="783" y="626" type="line" smooth="yes"/>
      <point x="783" y="712"/>
      <point x="705" y="784"/>
      <point x="620" y="784" type="qcurve" smooth="yes"/>
      <point x="526" y="784"/>
      <point x="394" y="677"/>
      <point x="356" y="593" type="qcurve"/>
    </contour>
  </outline>
</glyph>
<glyph name="Iogonek" format="2">
  <advance width="627"/>
  <unicode hex="012E"/>
  <outline>
    <contour>
      <point x="120" y="-451" type="qcurve" smooth="yes"/>
      <point x="31" y="-451"/>
      <point x="-79" y="-355"/>
      <point x="-79" y="-275" type="qcurve" smooth="yes"/>
      <point x="-79" y="-209"/>
      <point x="-15" y="-102"/>
      <point x="75" y="-24"/>
      <point x="115" y="0" type="qcurve"/>
      <point x="58" y="0" type="line"/>
      <point x="383" y="1413" type="line"/>
      <point x="666" y="1413" type="line"/>
      <point x="341" y="0" type="line"/>
      <point x="223" y="0" type="line"/>
      <point x="348" y="-5" type="line"/>
      <point x="317" y="-14"/>
      <point x="201" y="-79"/>
      <point x="148" y="-124" type="qcurve"/>
      <point x="120" y="-151"/>
      <point x="78" y="-223"/>
      <point x="78" y="-259" type="qcurve" smooth="yes"/>
      <point x="78" y="-279"/>
      <point x="101" y="-290"/>
      <point x="125" y="-290" type="qcurve" smooth="yes"/>
      <point x="184" y="-290"/>
      <point x="246" y="-226" type="qcurve"/>
      <point x="360" y="-337" type="line"/>
      <point x="264" y="-451"/>
    </contour>
  </outline>
</glyph>
<glyph name="Idotaccent" format="2">
  <advance width="627"/>
  <unicode hex="0130"/>
  <outline>
    <contour>
      <point x="708" y="1589" type="line"/>
      <point x="426" y="1589" type="line"/>
      <point x="479" y="1824" type="line"/>
      <point x="761" y="1824" type="line"/>
    </contour>
    <contour>
      <point x="341" y="0" type="line"/>
      <point x="58" y="0" type="line"/>
      <point x="383" y="1413" type="line"/>
      <point x="666" y="1413" type="line"/>
    </contour>
  </outline>
</glyph>
<glyph name="dotlessi" format="2">
  <advance width="519"/>
  <unicode hex="0131"/>
  <outline>
    <contour>
      <point x="270" y="0" type="line"/>
      <point x="21" y="0" type="line"/>
      <point x="250" y="999" type="line"/>
      <point x="499" y="999" type="line"/>
    </contour>
  </outline>
</glyph>
<glyph name="IJ" format="2">
  <advance width="1770"/>
  <unicode hex="0132"/>
  <outline>
    <contour>
      <point x="341" y="0" type="line"/>
      <point x="58" y="0" type="line"/>
      <point x="383" y="1413" type="line"/>
      <point x="666" y="1413" type="line"/>
    </contour>
    <contour>
      <point x="1030" y="-20" type="qcurve" smooth="yes"/>
      <point x="1020" y="-20" type="line" smooth="yes"/>
      <point x="930" y="-20"/>
      <point x="784" y="39"/>
      <point x="680" y="147"/>
      <point x="654" y="221" type="qcurve" smooth="yes"/>
      <point x="629" y="290"/>
      <point x="629" y="369" type="qcurve" smooth="yes"/>
      <point x="629" y="393"/>
      <point x="632" y="439"/>
      <point x="636" y="466" type="qcurve"/>
      <point x="916" y="474" type="line"/>
      <point x="910" y="442"/>
      <point x="910" y="407" type="qcurve" smooth="yes"/>
      <point x="910" y="245"/>
      <point x="1065" y="245" type="qcurve" smooth="yes"/>
      <point x="1133" y="245"/>
      <point x="1225" y="282"/>
      <point x="1291" y="352"/>
      <point x="1334" y="457"/>
      <point x="1350" y="524" type="qcurve" smooth="yes"/>
      <point x="1495" y="1150" type="line"/>
      <point x="962" y="1150" type="line"/>
      <point x="1005" y="1339"/>
      <point x="1023" y="1413" type="qcurve"/>
      <point x="1838" y="1413" type="line"/>
      <point x="1628" y="501" type="line" smooth="yes"/>
      <point x="1571" y="255"/>
      <point x="1427" y="123" type="qcurve" smooth="yes"/>
      <point x="1273" y="-20"/>
    </contour>
  </outline>
</glyph>
<glyph name="kgreenlandic" format="2">
  <advance width="1137"/>
  <unicode hex="0138"/>
  <outline>
    <contour>
      <point x="1039" y="0" type="line"/>
      <point x="722" y="0" type="line"/>
      <point x="537" y="443" type="line"/>
      <point x="366" y="294" type="line"/>
      <point x="296" y="0" type="line"/>
      <point x="23" y="0" type="line"/>
      <point x="252" y="999" type="line"/>
      <point x="526" y="999" type="line"/>
      <point x="436" y="618" type="line"/>
      <point x="879" y="999" type="line"/>
      <point x="1241" y="999" type="line"/>
      <point x="760" y="606" type="line"/>
    </contour>
  </outline>
</glyph>
<glyph name="Ldot" format="2">
  <advance width="1069"/>
  <unicode hex="013F"/>
  <outline>
    <contour>
      <point x="945" y="0" type="line"/>
      <point x="58" y="0" type="line"/>
      <point x="383" y="1413" type="line"/>
      <point x="666" y="1413" type="line"/>
      <point x="404" y="270" type="line"/>
      <point x="1008" y="270" type="line"/>
    </contour>
    <contour>
      <point x="735" y="551" type="qcurve" smooth="yes"/>
      <point x="677" y="551"/>
      <point x="604" y="630"/>
      <point x="604" y="691" type="qcurve" smooth="yes"/>
      <point x="604" y="759"/>
      <point x="705" y="863"/>
      <point x="781" y="863" type="qcurve" smooth="yes"/>
      <point x="841" y="863"/>
      <point x="915" y="783"/>
      <point x="915" y="727" type="qcurve" smooth="yes"/>
      <point x="915" y="660"/>
      <point x="814" y="551"/>
    </contour>
  </outline>
</glyph>
<glyph name="ldot" format="2">
  <advance width="806"/>
  <unicode hex="0140"/>
  <outline>
    <contour>
      <point x="256" y="-20" type="qcurve" smooth="yes"/>
      <point x="200" y="-20"/>
      <point x="109" y="9"/>
      <point x="55" y="79"/>
      <point x="55" y="141" type="qcurve" smooth="yes"/>
      <point x="55" y="179"/>
      <point x="72" y="248" type="qcurve"/>
      <point x="341" y="1413" type="line"/>
      <point x="614" y="1413" type="line"/>
      <point x="550" y="1133"/>
      <point x="486" y="863" type="qcurve"/>
      <point x="348" y="267" type="line"/>
      <point x="352" y="283" type="line"/>
      <point x="349" y="272"/>
      <point x="349" y="263" type="qcurve" smooth="yes"/>
      <point x="349" y="243"/>
      <point x="381" y="228"/>
      <point x="419" y="228" type="qcurve"/>
      <point x="447" y="229"/>
      <point x="484" y="234" type="qcurve"/>
      <point x="443" y="-2" type="line"/>
      <point x="312" y="-20"/>
    </contour>
    <contour>
      <point x="626" y="541" type="qcurve" smooth="yes"/>
      <point x="568" y="541"/>
      <point x="495" y="620"/>
      <point x="495" y="681" type="qcurve" smooth="yes"/>
      <point x="495" y="749"/>
      <point x="596" y="853"/>
      <point x="672" y="853" type="qcurve" smooth="yes"/>
      <point x="732" y="853"/>
      <point x="806" y="773"/>
      <point x="806" y="717" type="qcurve" smooth="yes"/>
      <point x="806" y="650"/>
      <point x="705" y="541"/>
    </contour>
  </outline>
</glyph>
<glyph name="lslash" format="2">
  <advance width="588"/>
  <unicode hex="0142"/>
  <outline>
    <contour>
      <point x="256" y="-20" type="qcurve" smooth="yes"/>
      <point x="132" y="-20"/>
      <point x="83" y="32" type="qcurve"/>
      <point x="56" y="67"/>
      <point x="54" y="128" type="qcurve"/>
      <point x="54" y="142" type="line" smooth="yes"/>
      <point x="54" y="193"/>
      <point x="75" y="280" type="qcurve"/>
      <point x="117" y="444" type="line"/>
      <point x="89" y="428"/>
      <point x="62" y="415" type="qcurve" smooth="yes"/>
      <point x="34" y="401"/>
      <point x="6" y="384" type="qcurve"/>
      <point x="44" y="620" type="line"/>
      <point x="95" y="650" type="line"/>
      <point x="162" y="687"/>
      <point x="175" y="695" type="qcurve"/>
      <point x="341" y="1413" type="line"/>
      <point x="614" y="1413" type="line"/>
      <point x="495" y="901" type="line"/>
      <point x="666" y="1001" type="line"/>
      <point x="656" y="941"/>
      <point x="648" y="883" type="qcurve" smooth="yes"/>
      <point x="639" y="824"/>
      <point x="629" y="764" type="qcurve"/>
      <point x="437" y="649" type="line"/>
      <point x="395" y="466" type="line"/>
      <point x="349" y="277"/>
      <point x="349" y="263" type="qcurve" smooth="yes"/>
      <point x="349" y="242"/>
      <point x="383" y="228"/>
      <point x="419" y="228" type="qcurve"/>
      <point x="459" y="231"/>
      <point x="484" y="234" type="qcurve"/>
      <point x="443" y="-2" type="line"/>
      <point x="395" y="-8" type="line"/>
      <point x="358" y="-14"/>
      <point x="294" y="-18" type="qcurve" smooth="yes"/>
      <point x="271" y="-20"/>
    </contour>
  </outline>
</glyph>
<glyph name="Eng" format="2">
  <advance width="1465"/>
  <unicode hex="014A"/>
  <outline>
    <contour>
      <point x="756" y="-369" type="qcurve" smooth="yes"/>
      <point x="616" y="-369" type="line"/>
      <point x="630" y="-296" type="line" smooth="yes"/>
      <point x="640" y="-249"/>
      <point x="648" y="-200" type="qcurve"/>
      <point x="647" y="-199" type="line"/>
      <point x="647" y="-198"/>
      <point x="649" y="-197" type="qcurve"/>
      <point x="649" y="-199"/>
      <point x="648" y="-200" type="qcurve"/>
      <point x="652" y="-204" type="line"/>
      <point x="666" y="-204" type="line" smooth="yes"/>
      <point x="776" y="-204"/>
      <point x="851" y="-160" type="qcurve" smooth="yes"/>
      <point x="931" y="-112"/>
      <point x="931" y="-46" type="qcurve" smooth="yes"/>
      <point x="931" y="-39" type="line"/>
      <point x="929" y="-29"/>
      <point x="543" y="925" type="qcurve"/>
      <point x="328" y="0" type="line"/>
      <point x="59" y="0" type="line"/>
      <point x="140" y="355"/>
      <point x="222" y="707" type="qcurve" smooth="yes"/>
      <point x="303" y="1058"/>
      <point x="384" y="1410" type="qcurve"/>
      <point x="643" y="1410" type="line"/>
      <point x="1016" y="488" type="line"/>
      <point x="1232" y="1410" type="line"/>
      <point x="1501" y="1410" type="line"/>
      <point x="1443" y="1157"/>
      <point x="1170" y="-11" type="qcurve"/>
      <point x="1127" y="-188"/>
      <point x="1037" y="-271" type="qcurve" smooth="yes"/>
      <point x="932" y="-369"/>
    </contour>
  </outline>
</glyph>
<glyph name="eng" format="2">
  <advance width="1167"/>
  <unicode hex="014B"/>
  <outline>
    <contour>
      <point x="535" y="-369" type="qcurve" smooth="yes"/>
      <point x="397" y="-369" type="line"/>
      <point x="450" y="-146" type="line"/>
      <point x="525" y="-146" type="line" smooth="yes"/>
      <point x="563" y="-146"/>
      <point x="615" y="-121"/>
      <point x="651" y="-75"/>
      <point x="675" y="-13"/>
      <point x="685" y="26" type="qcurve"/>
      <point x="810" y="576" type="line"/>
      <point x="818" y="608"/>
      <point x="824" y="658"/>
      <point x="824" y="677" type="qcurve" smooth="yes"/>
      <point x="824" y="725"/>
      <point x="778" y="776"/>
      <point x="719" y="776" type="qcurve" smooth="yes"/>
      <point x="712" y="776" type="line" smooth="yes"/>
      <point x="666" y="776"/>
      <point x="618" y="756" type="qcurve"/>
      <point x="515" y="710"/>
      <point x="449" y="619" type="qcurve"/>
      <point x="418" y="574"/>
      <point x="408" y="532" type="qcurve" smooth="yes"/>
      <point x="319" y="136"/>
      <point x="287" y="0" type="qcurve"/>
      <point x="23" y="0" type="line"/>
      <point x="80" y="251"/>
      <point x="138" y="501" type="qcurve" smooth="yes"/>
      <point x="195" y="750"/>
      <point x="252" y="999" type="qcurve"/>
      <point x="517" y="999" type="line"/>
      <point x="488" y="891" type="line"/>
      <point x="615" y="1016"/>
      <point x="795" y="1016" type="qcurve" smooth="yes"/>
      <point x="939" y="1016"/>
      <point x="1092" y="852"/>
      <point x="1092" y="713" type="qcurve" smooth="yes"/>
      <point x="1092" y="652"/>
      <point x="1077" y="589" type="qcurve" smooth="yes"/>
      <point x="925" y="-72" type="line"/>
      <point x="908" y="-181"/>
      <point x="835" y="-262" type="qcurve" smooth="yes"/>
      <point x="775" y="-328"/>
      <point x="667" y="-354" type="qcurve"/>
      <point x="610" y="-369"/>
    </contour>
  </outline>
</glyph>
<glyph name="OE" format="2">
  <advance width="2256"/>
  <unicode hex="0152"/>
  <outline>
    <contour>
      <point x="657" y="-20" type="qcurve" smooth="yes"/>
      <point x="647" y="-20" type="line" smooth="yes"/>
      <point x="511" y="-20"/>
      <point x="409" y="19" type="qcurve" smooth="yes"/>
      <point x="199" y="99"/>
      <point x="128" y="302" type="qcurve" smooth="yes"/>
      <point x="94" y="397"/>
      <point x="94" y="507" type="qcurve"/>
      <point x="95" y="636"/>
      <point x="126" y="753" type="qcurve" smooth="yes"/>
      <point x="191" y="1002"/>
      <point x="365" y="1186" type="qcurve" smooth="yes"/>
      <point x="452" y="1278"/>
      <point x="565" y="1338" type="qcurve"/>
      <point x="740" y="1434"/>
      <point x="966" y="1434" type="qcurve" smooth="yes"/>
      <point x="1100" y="1434"/>
      <point x="1294" y="1356"/>
      <point x="1355" y="1290" type="qcurve"/>
      <point x="1363" y="1321"/>
      <point x="1380" y="1382"/>
      <point x="1389" y="1413" type="qcurve"/>
      <point x="2341" y="1413" type="line"/>
      <point x="2282" y="1150" type="line"/>
      <point x="1613" y="1150" type="line"/>
      <point x="1538" y="838" type="line"/>
      <point x="2172" y="838" type="line"/>
      <point x="2111" y="574" type="line"/>
      <point x="1478" y="574" type="line"/>
      <point x="1408" y="270" type="line"/>
      <point x="2079" y="270" type="line"/>
      <point x="2062" y="203"/>
      <point x="2047" y="136" type="qcurve" smooth="yes"/>
      <point x="2032" y="68"/>
      <point x="2015" y="0" type="qcurve"/>
      <point x="1062" y="0" type="line"/>
      <point x="1078" y="52"/>
      <point x="1092" y="105" type="qcurve"/>
      <point x="996" y="39"/>
      <point x="785" y="-20"/>
    </contour>
    <contour>
      <point x="701" y="249" type="qcurve"/>
      <point x="803" y="249"/>
      <point x="978" y="323"/>
      <point x="1115" y="452"/>
      <point x="1209" y="629"/>
      <point x="1231" y="731" type="qcurve"/>
      <point x="1249" y="803"/>
      <point x="1249" y="872" type="qcurve" smooth="yes"/>
      <point x="1249" y="1012"/>
      <point x="1091" y="1164"/>
      <point x="932" y="1164" type="qcurve" smooth="yes"/>
      <point x="924" y="1164" type="line" smooth="yes"/>
      <point x="821" y="1164"/>
      <point x="735" y="1129" type="qcurve"/>
      <point x="558" y="1054"/>
      <point x="463" y="872" type="qcurve" smooth="yes"/>
      <point x="417" y="783"/>
      <point x="394" y="681" type="qcurve"/>
      <point x="375" y="604"/>
      <point x="375" y="539" type="qcurve" smooth="yes"/>
      <point x="375" y="328"/>
      <point x="550" y="270" type="qcurve" smooth="yes"/>
      <point x="609" y="250"/>
    </contour>
  </outline>
</glyph>
<glyph name="oe" format="2">
  <advance width="1842"/>
  <unicode hex="0153"/>
  <outline>
    <contour>
      <point x="458" y="-20" type="qcurve" smooth="yes"/>
      <point x="325" y="-20"/>
      <point x="132" y="85"/>
      <point x="28" y="270"/>
      <point x="28" y="390" type="qcurve" smooth="yes"/>
      <point x="28" y="576"/>
      <point x="273" y="916"/>
      <point x="486" y="986" type="qcurve"/>
      <point x="571" y="1012"/>
      <point x="668" y="1012" type="qcurve" smooth="yes"/>
      <point x="785" y="1012"/>
      <point x="956" y="924"/>
      <point x="1009" y="855" type="qcurve"/>
      <point x="1167" y="1012"/>
      <point x="1393" y="1012" type="qcurve" smooth="yes"/>
      <point x="1527" y="1012"/>
      <point x="1702" y="910"/>
      <point x="1788" y="731"/>
      <point x="1788" y="615" type="qcurve" smooth="yes"/>
      <point x="1788" y="480"/>
      <point x="1749" y="397" type="qcurve"/>
      <point x="1066" y="397" type="line"/>
      <point x="1068" y="328"/>
      <point x="1117" y="295" type="qcurve"/>
      <point x="1167" y="259"/>
      <point x="1254" y="259" type="qcurve" smooth="yes"/>
      <point x="1332" y="259"/>
      <point x="1466" y="316"/>
      <point x="1536" y="375" type="qcurve"/>
      <point x="1578" y="326"/>
      <point x="1619" y="277" type="qcurve" smooth="yes"/>
      <point x="1659" y="227"/>
      <point x="1701" y="178" type="qcurve"/>
      <point x="1477" y="-12"/>
      <point x="1219" y="-12" type="qcurve" smooth="yes"/>
      <point x="1094" y="-12"/>
      <point x="912" y="74"/>
      <point x="864" y="141" type="qcurve"/>
      <point x="685" y="-20"/>
    </contour>
    <contour>
      <point x="474" y="207" type="qcurve" smooth="yes"/>
      <point x="601" y="207"/>
      <point x="769" y="372"/>
      <point x="803" y="520" type="qcurve" smooth="yes"/>
      <point x="816" y="573"/>
      <point x="816" y="619" type="qcurve" smooth="yes"/>
      <point x="816" y="691"/>
      <point x="735" y="780"/>
      <point x="643" y="780" type="qcurve" smooth="yes"/>
      <point x="399" y="780"/>
      <point x="314" y="468" type="qcurve"/>
      <point x="301" y="415"/>
      <point x="301" y="369" type="qcurve" smooth="yes"/>
      <point x="301" y="297"/>
      <point x="382" y="207"/>
    </contour>
    <contour>
      <point x="1526" y="593" type="line"/>
      <point x="1524" y="604"/>
      <point x="1523" y="623" type="qcurve" smooth="yes"/>
      <point x="1522" y="641"/>
      <point x="1520" y="656" type="qcurve" smooth="yes"/>
      <point x="1511" y="718"/>
      <point x="1438" y="773"/>
      <point x="1365" y="773" type="qcurve" smooth="yes"/>
      <point x="1280" y="773"/>
      <point x="1154" y="677"/>
      <point x="1113" y="593" type="qcurve"/>
    </contour>
  </outline>
</glyph>
<glyph name="tbar" format="2">
  <advance width="787"/>
  <unicode hex="0167"/>
  <outline>
    <contour>
      <point x="413" y="-20" type="qcurve" smooth="yes"/>
      <point x="277" y="-20"/>
      <point x="127" y="110"/>
      <point x="127" y="217" type="qcurve" smooth="yes"/>
      <point x="127" y="259"/>
      <point x="143" y="334"/>
      <point x="153" y="370" type="qcurve"/>
      <point x="163" y="411" type="line"/>
      <point x="35" y="411" type="line"/>
      <point x="75" y="590" type="line"/>
      <point x="204" y="590" type="line"/>
      <point x="246" y="769" type="line"/>
      <point x="82" y="769" type="line"/>
      <point x="135" y="999" type="line"/>
      <point x="304" y="999" type="line"/>
      <point x="360" y="1254" type="line"/>
      <point x="510" y="1346"/>
      <point x="659" y="1439" type="qcurve"/>
      <point x="559" y="999" type="line"/>
      <point x="821" y="999" type="line"/>
      <point x="767" y="769" type="line"/>
      <point x="505" y="769" type="line"/>
      <point x="464" y="590" type="line"/>
      <point x="710" y="590" type="line"/>
      <point x="670" y="411" type="line"/>
      <point x="422" y="411" type="line"/>
      <point x="403" y="325" type="line"/>
      <point x="397" y="302"/>
      <point x="397" y="286" type="qcurve" smooth="yes"/>
      <point x="397" y="250"/>
      <point x="442" y="224"/>
      <point x="485" y="224" type="qcurve" smooth="yes"/>
      <point x="567" y="224"/>
      <point x="653" y="269" type="qcurve"/>
      <point x="643" y="218"/>
      <point x="605" y="8" type="qcurve"/>
      <point x="574" y="-2"/>
      <point x="461" y="-20"/>
    </contour>
  </outline>
</glyph>
<glyph name="clickretroflex" format="2">
  <advance width="479"/>
  <unicode hex="01C3"/>
  <outline>
    <contour>
      <point x="330" y="443" type="line"/>
      <point x="124" y="443" type="line"/>
      <point x="322" y="1433" type="line"/>
      <point x="586" y="1433" type="line"/>
    </contour>
    <contour>
      <point x="270" y="0" type="line"/>
      <point x="-20" y="0" type="line"/>
      <point x="45" y="286" type="line"/>
      <point x="334" y="286" type="line"/>
    </contour>
  </outline>
</glyph>
<glyph name="eturned" format="2">
  <advance width="1064"/>
  <unicode hex="01DD"/>
  <outline>
    <contour>
      <point x="432" y="-12" type="qcurve" smooth="yes"/>
      <point x="422" y="-12" type="line" smooth="yes"/>
      <point x="316" y="-12"/>
      <point x="165" y="41"/>
      <point x="69" y="137"/>
      <point x="24" y="271"/>
      <point x="24" y="352" type="qcurve" smooth="yes"/>
      <point x="24" y="381"/>
      <point x="31" y="450"/>
      <point x="43" y="518"/>
      <point x="60" y="579"/>
      <point x="69" y="600" type="qcurve"/>
      <point x="757" y="600" type="line"/>
      <point x="756" y="609" type="line"/>
      <point x="756" y="680"/>
      <point x="672" y="754"/>
      <point x="580" y="754" type="qcurve" smooth="yes"/>
      <point x="497" y="754"/>
      <point x="379" y="714"/>
      <point x="313" y="657" type="qcurve"/>
      <point x="155" y="844" type="line"/>
      <point x="208" y="889"/>
      <point x="262" y="921" type="qcurve" smooth="yes"/>
      <point x="413" y="1012"/>
      <point x="611" y="1012" type="qcurve" smooth="yes"/>
      <point x="814" y="1012"/>
      <point x="926" y="903" type="qcurve" smooth="yes"/>
      <point x="1033" y="797"/>
      <point x="1033" y="620" type="qcurve" smooth="yes"/>
      <point x="1033" y="553"/>
      <point x="997" y="406"/>
      <point x="928" y="264"/>
      <point x="823" y="137"/>
      <point x="687" y="42"/>
      <point x="524" y="-12"/>
    </contour>
    <contour>
      <point x="446" y="216" type="qcurve" smooth="yes"/>
      <point x="623" y="216"/>
      <point x="710" y="408" type="qcurve"/>
      <point x="283" y="385" type="line"/>
      <point x="283" y="355" type="line" smooth="yes"/>
      <point x="283" y="283"/>
      <point x="357" y="216"/>
    </contour>
  </outline>
</glyph>
<glyph name="aemacron" format="2">
  <advance width="1694"/>
  <unicode hex="01E3"/>
  <outline>
    <contour>
      <point x="1278" y="1132" type="line"/>
      <point x="711" y="1132" type="line"/>
      <point x="746" y="1283" type="line"/>
      <point x="1313" y="1283" type="line"/>
    </contour>
    <contour>
      <point x="330" y="-20" type="qcurve" smooth="yes"/>
      <point x="252" y="-20"/>
      <point x="130" y="19"/>
      <point x="44" y="87"/>
      <point x="-1" y="184"/>
      <point x="-1" y="244" type="qcurve" smooth="yes"/>
      <point x="-1" y="297"/>
      <point x="25" y="388"/>
      <point x="72" y="465"/>
      <point x="134" y="522"/>
      <point x="170" y="540" type="qcurve" smooth="yes"/>
      <point x="235" y="572"/>
      <point x="387" y="603"/>
      <point x="478" y="603" type="qcurve"/>
      <point x="744" y="602" type="line"/>
      <point x="752" y="629"/>
      <point x="752" y="668" type="qcurve" smooth="yes"/>
      <point x="752" y="730"/>
      <point x="679" y="782"/>
      <point x="611" y="782" type="qcurve" smooth="yes"/>
      <point x="566" y="782"/>
      <point x="489" y="765"/>
      <point x="421" y="731"/>
      <point x="358" y="682"/>
      <point x="328" y="650" type="qcurve"/>
      <point x="247" y="731"/>
      <point x="165" y="811" type="qcurve"/>
      <point x="358" y="1016"/>
      <point x="618" y="1016" type="qcurve" smooth="yes"/>
      <point x="740" y="1016"/>
      <point x="890" y="932"/>
      <point x="932" y="860" type="qcurve"/>
      <point x="1017" y="937"/>
      <point x="1107" y="976" type="qcurve"/>
      <point x="1198" y="1012"/>
      <point x="1308" y="1012" type="qcurve" smooth="yes"/>
      <point x="1499" y="1012"/>
      <point x="1581" y="914" type="qcurve" smooth="yes"/>
      <point x="1652" y="829"/>
      <point x="1652" y="662" type="qcurve" smooth="yes"/>
      <point x="1652" y="577"/>
      <point x="1638" y="475" type="qcurve"/>
      <point x="1633" y="452" type="line"/>
      <point x="1623" y="432"/>
      <point x="1611" y="412" type="qcurve"/>
      <point x="924" y="412" type="line"/>
      <point x="925" y="411"/>
      <point x="925" y="407" type="qcurve" smooth="yes"/>
      <point x="925" y="317"/>
      <point x="1016" y="245"/>
      <point x="1113" y="245" type="qcurve" smooth="yes"/>
      <point x="1182" y="245"/>
      <point x="1312" y="292"/>
      <point x="1367" y="341" type="qcurve"/>
      <point x="1528" y="156" type="line"/>
      <point x="1422" y="66"/>
      <point x="1204" y="-12"/>
      <point x="1082" y="-12" type="qcurve" smooth="yes"/>
      <point x="958" y="-12"/>
      <point x="803" y="50"/>
      <point x="758" y="116" type="qcurve"/>
      <point x="666" y="54"/>
      <point x="556" y="18" type="qcurve" smooth="yes"/>
      <point x="438" y="-20"/>
    </contour>
    <contour>
      <point x="1402" y="602" type="line"/>
      <point x="1402" y="639" type="line"/>
      <point x="1401" y="650" type="line" smooth="yes"/>
      <point x="1400" y="663"/>
      <point x="1398" y="674" type="qcurve" smooth="yes"/>
      <point x="1388" y="730"/>
      <point x="1315" y="784"/>
      <point x="1244" y="784" type="qcurve" smooth="yes"/>
      <point x="1063" y="784"/>
      <point x="973" y="605" type="qcurve"/>
    </contour>
    <contour>
      <point x="364" y="202" type="qcurve"/>
      <point x="419" y="202"/>
      <point x="525" y="240"/>
      <point x="615" y="302"/>
      <point x="682" y="376"/>
      <point x="699" y="409" type="qcurve"/>
      <point x="460" y="411" type="line"/>
      <point x="417" y="411"/>
      <point x="339" y="384"/>
      <point x="281" y="341"/>
      <point x="247" y="287"/>
      <point x="247" y="260" type="qcurve" smooth="yes"/>
      <point x="247" y="229"/>
      <point x="303" y="203"/>
    </contour>
  </outline>
</glyph>
<glyph name="oogonek" format="2">
  <advance width="1129"/>
  <unicode hex="01EB"/>
  <outline>
    <contour>
      <point x="386" y="-453" type="qcurve" smooth="yes"/>
      <point x="378" y="-453" type="line"/>
      <point x="284" y="-446"/>
      <point x="234" y="-389" type="qcurve" smooth="yes"/>
      <point x="195" y="-344"/>
      <point x="195" y="-275" type="qcurve" smooth="yes"/>
      <point x="195" y="-197"/>
      <point x="250" y="-125" type="qcurve"/>
      <point x="292" y="-67"/>
      <point x="368" y="-14" type="qcurve"/>
      <point x="289" y="0"/>
      <point x="163" y="69"/>
      <point x="75" y="175"/>
      <point x="28" y="310"/>
      <point x="28" y="388" type="qcurve" smooth="yes"/>
      <point x="28" y="468"/>
      <point x="51" y="546" type="qcurve" smooth="yes"/>
      <point x="97" y="705"/>
      <point x="339" y="947"/>
      <point x="500" y="991" type="qcurve" smooth="yes"/>
      <point x="576" y="1012"/>
      <point x="657" y="1012" type="qcurve" smooth="yes"/>
      <point x="677" y="1012" type="line" smooth="yes"/>
      <point x="771" y="1012"/>
      <point x="927" y="953"/>
      <point x="1038" y="844"/>
      <point x="1096" y="696"/>
      <point x="1096" y="612" type="qcurve" smooth="yes"/>
      <point x="1096" y="604" type="line" smooth="yes"/>
      <point x="1096" y="502"/>
      <point x="1026" y="309"/>
      <point x="900" y="147"/>
      <point x="724" y="27"/>
      <point x="619" y="-1" type="qcurve"/>
      <point x="631" y="-1" type="line"/>
      <point x="625" y="-2"/>
      <point x="602" y="-11" type="qcurve"/>
      <point x="593" y="-15" type="line" smooth="yes"/>
      <point x="539" y="-39"/>
      <point x="489" y="-73" type="qcurve" smooth="yes"/>
      <point x="447" y="-101"/>
      <point x="419" y="-128" type="qcurve" smooth="yes"/>
      <point x="352" y="-196"/>
      <point x="352" y="-259" type="qcurve" smooth="yes"/>
      <point x="352" y="-281"/>
      <point x="377" y="-290"/>
      <point x="399" y="-290" type="qcurve" smooth="yes"/>
      <point x="458" y="-290"/>
      <point x="520" y="-226" type="qcurve"/>
      <point x="634" y="-337" type="line"/>
      <point x="580" y="-397"/>
      <point x="461" y="-453"/>
    </contour>
    <contour>
      <point x="484" y="214" type="qcurve" smooth="yes"/>
      <point x="567" y="214"/>
      <point x="704" y="295"/>
      <point x="795" y="433"/>
      <point x="810" y="520" type="qcurve"/>
      <point x="821" y="564"/>
      <point x="821" y="605" type="qcurve" smooth="yes"/>
      <point x="821" y="682"/>
      <point x="736" y="776"/>
      <point x="640" y="776" type="qcurve" smooth="yes"/>
      <point x="518" y="776"/>
      <point x="338" y="604"/>
      <point x="314" y="470" type="qcurve"/>
      <point x="303" y="428"/>
      <point x="303" y="386" type="qcurve" smooth="yes"/>
      <point x="303" y="309"/>
      <point x="388" y="214"/>
    </contour>
  </outline>
</glyph>
<glyph name="oopen" format="2">
  <advance width="1007"/>
  <unicode hex="0254"/>
  <outline>
    <contour>
      <point x="362" y="-20" type="qcurve" smooth="yes"/>
      <point x="205" y="-20"/>
      <point x="4" y="152"/>
      <point x="-23" y="291" type="qcurve"/>
      <point x="249" y="367" type="line"/>
      <point x="256" y="241"/>
      <point x="396" y="241" type="qcurve" smooth="yes"/>
      <point x="523" y="241"/>
      <point x="702" y="450"/>
      <point x="702" y="602" type="qcurve" smooth="yes"/>
      <point x="702" y="672"/>
      <point x="627" y="754"/>
      <point x="542" y="754" type="qcurve" smooth="yes"/>
      <point x="465" y="754"/>
      <point x="345" y="671"/>
      <point x="309" y="606" type="qcurve"/>
      <point x="82" y="720" type="line"/>
      <point x="166" y="862"/>
      <point x="424" y="1016"/>
      <point x="572" y="1016" type="qcurve" smooth="yes"/>
      <point x="706" y="1016"/>
      <point x="885" y="912"/>
      <point x="976" y="733"/>
      <point x="976" y="619" type="qcurve" smooth="yes"/>
      <point x="976" y="420"/>
      <point x="746" y="76"/>
      <point x="540" y="6" type="qcurve"/>
      <point x="457" y="-20"/>
    </contour>
  </outline>
</glyph>
<glyph name="ereversed" format="2">
  <advance width="1064"/>
  <unicode hex="0258"/>
  <outline>
    <contour>
      <point x="414" y="-12" type="qcurve" smooth="yes"/>
      <point x="403" y="-12" type="line" smooth="yes"/>
      <point x="270" y="-12"/>
      <point x="77" y="77"/>
      <point x="8" y="174" type="qcurve"/>
      <point x="223" y="323" type="line"/>
      <point x="259" y="277"/>
      <point x="346" y="245"/>
      <point x="438" y="245" type="qcurve" smooth="yes"/>
      <point x="542" y="245"/>
      <point x="677" y="341"/>
      <point x="713" y="422" type="qcurve"/>
      <point x="33" y="422" type="line"/>
      <point x="33" y="489"/>
      <point x="62" y="589" type="qcurve"/>
      <point x="121" y="782"/>
      <point x="257" y="893" type="qcurve"/>
      <point x="406" y="1012"/>
      <point x="630" y="1012" type="qcurve" smooth="yes"/>
      <point x="823" y="1012"/>
      <point x="932" y="899" type="qcurve"/>
      <point x="1032" y="790"/>
      <point x="1032" y="616" type="qcurve" smooth="yes"/>
      <point x="1032" y="540"/>
      <point x="994" y="387"/>
      <point x="920" y="246"/>
      <point x="812" y="125"/>
      <point x="672" y="38"/>
      <point x="587" y="12" type="qcurve" smooth="yes"/>
      <point x="507" y="-12"/>
    </contour>
    <contour>
      <point x="331" y="592" type="qcurve"/>
      <point x="761" y="614" type="line"/>
      <point x="760" y="654" type="line"/>
      <point x="745" y="735"/>
      <point x="699" y="763" type="qcurve"/>
      <point x="662" y="784"/>
      <point x="605" y="784" type="qcurve" smooth="yes"/>
      <point x="505" y="784"/>
      <point x="369" y="690"/>
    </contour>
  </outline>
</glyph>
<glyph name="colontriangularmod" format="2">
  <advance width="586"/>
  <unicode hex="02D0"/>
  <outline>
    <contour>
      <point x="557" y="0" type="line"/>
      <point x="23" y="12" type="line"/>
      <point x="287" y="489" type="line"/>
      <point x="29" y="999" type="line"/>
      <point x="563" y="987" type="line"/>
      <point x="301" y="510" type="line"/>
    </contour>
  </outline>
</glyph>
<glyph name="colontriangularhalfmod" format="2">
  <advance width="574"/>
  <unicode hex="02D1"/>
  <outline>
    <contour>
      <point x="281" y="194" type="line"/>
      <point x="23" y="709" type="line"/>
      <point x="557" y="698" type="line"/>
    </contour>
  </outline>
</glyph>
<glyph name="dotaccent" format="2">
  <advance width="513"/>
  <unicode hex="02D9"/>
  <outline>
    <contour>
      <point x="558" y="1178" type="line"/>
      <point x="276" y="1178" type="line"/>
      <point x="329" y="1413" type="line"/>
      <point x="611" y="1413" type="line"/>
    </contour>
  </outline>
</glyph>
<glyph name="ogonek" format="2">
  <advance width="566"/>
  <unicode hex="02DB"/>
  <outline>
    <contour>
      <point x="150" y="-451" type="qcurve" smooth="yes"/>
      <point x="107" y="-451"/>
      <point x="32" y="-427"/>
      <point x="-20" y="-381"/>
      <point x="-49" y="-315"/>
      <point x="-49" y="-275" type="qcurve" smooth="yes"/>
      <point x="-49" y="-209"/>
      <point x="14" y="-130" type="qcurve"/>
      <point x="54" y="-76"/>
      <point x="124" y="-18" type="qcurve" smooth="yes"/>
      <point x="150" y="3"/>
      <point x="170" y="13" type="qcurve"/>
      <point x="168" y="10" type="line"/>
      <point x="200" y="4"/>
      <point x="237" y="1" type="qcurve"/>
      <point x="378" y="-5" type="line"/>
      <point x="364" y="-10"/>
      <point x="351" y="-16" type="qcurve" smooth="yes"/>
      <point x="254" y="-59"/>
      <point x="195" y="-109" type="qcurve" smooth="yes"/>
      <point x="108" y="-184"/>
      <point x="108" y="-259" type="qcurve" smooth="yes"/>
      <point x="108" y="-281"/>
      <point x="134" y="-290"/>
      <point x="155" y="-290" type="qcurve" smooth="yes"/>
      <point x="214" y="-290"/>
      <point x="276" y="-226" type="qcurve"/>
      <point x="390" y="-337" type="line"/>
      <point x="291" y="-451"/>
    </contour>
  </outline>
</glyph>
<glyph name="tilde" format="2">
  <advance width="1002"/>
  <unicode hex="02DC"/>
  <outline>
    <contour>
      <point x="816" y="1119" type="qcurve"/>
      <point x="781" y="1120"/>
      <point x="732" y="1133"/>
      <point x="697" y="1156"/>
      <point x="672" y="1190"/>
      <point x="660" y="1213" type="qcurve" smooth="yes"/>
      <point x="645" y="1242"/>
      <point x="634" y="1254" type="qcurve"/>
      <point x="623" y="1263"/>
      <point x="607" y="1263" type="qcurve" smooth="yes"/>
      <point x="602" y="1263" type="line"/>
      <point x="559" y="1253"/>
      <point x="529" y="1195" type="qcurve"/>
      <point x="511" y="1163"/>
      <point x="500" y="1122" type="qcurve"/>
      <point x="329" y="1122" type="line"/>
      <point x="354" y="1240"/>
      <point x="403" y="1310" type="qcurve" smooth="yes"/>
      <point x="477" y="1415"/>
      <point x="597" y="1420" type="qcurve"/>
      <point x="632" y="1420"/>
      <point x="678" y="1408"/>
      <point x="712" y="1385"/>
      <point x="740" y="1350"/>
      <point x="753" y="1328" type="qcurve" smooth="yes"/>
      <point x="769" y="1301"/>
      <point x="793" y="1280"/>
      <point x="808" y="1280" type="qcurve" smooth="yes"/>
      <point x="812" y="1280" type="line"/>
      <point x="819" y="1282"/>
      <point x="843" y="1296" type="qcurve"/>
      <point x="861" y="1312"/>
      <point x="897" y="1374"/>
      <point x="907" y="1413" type="qcurve"/>
      <point x="1086" y="1413" type="line"/>
      <point x="1053" y="1264"/>
      <point x="914" y="1119"/>
    </contour>
  </outline>
</glyph>
<glyph name="gravecmb" format="2">
  <unicode hex="0300"/>
  <anchor x="-30" y="999" name="_t.ringcmb_1"/>
  <outline>
    <contour>
      <point x="115" y="1098" type="line"/>
      <point x="-67" y="1098" type="line"/>
      <point x="-317" y="1413" type="line"/>
      <point x="-40" y="1413" type="line"/>
    </contour>
  </outline>
</glyph>
<glyph name="ringcmb" format="2">
  <unicode hex="030A"/>
  <anchor x="-200" y="999" name="_t.ringcmb_1"/>
  <outline>
    <contour>
      <point x="-169" y="1066" type="qcurve" smooth="yes"/>
      <point x="-259" y="1066"/>
      <point x="-371" y="1185"/>
      <point x="-371" y="1268" type="qcurve" smooth="yes"/>
      <point x="-371" y="1342"/>
      <point x="-291" y="1468"/>
      <point x="-163" y="1544"/>
      <point x="-91" y="1544" type="qcurve" smooth="yes"/>
      <point x="-3" y="1544"/>
      <point x="113" y="1428"/>
      <point x="113" y="1342" type="qcurve" smooth="yes"/>
      <point x="113" y="1263"/>
      <point x="27" y="1138"/>
      <point x="-103" y="1066"/>
    </contour>
    <contour>
      <point x="-148" y="1205" type="qcurve" smooth="yes"/>
      <point x="-95" y="1205"/>
      <point x="-59" y="1248" type="qcurve"/>
      <point x="-29" y="1287"/>
      <point x="-29" y="1330" type="qcurve" smooth="yes"/>
      <point x="-29" y="1349"/>
      <point x="-31" y="1351" type="qcurve"/>
      <point x="-35" y="1381"/>
      <point x="-80" y="1412"/>
      <point x="-112" y="1412" type="qcurve" smooth="yes"/>
      <point x="-165" y="1412"/>
      <point x="-229" y="1339"/>
      <point x="-229" y="1285" type="qcurve" smooth="yes"/>
      <point x="-229" y="1248"/>
      <point x="-187" y="1205"/>
    </contour>
  </outline>
</glyph>
<glyph name="hungarumlautcmb" format="2">
  <unicode hex="030B"/>
  <anchor x="-432" y="999" name="_t.ringcmb_1"/>
  <outline>
    <contour>
      <point x="-538" y="1072" type="line"/>
      <point x="-734" y="1072" type="line"/>
      <point x="-428" y="1413" type="line"/>
      <point x="-195" y="1413" type="line"/>
    </contour>
    <contour>
      <point x="-184" y="1072" type="line"/>
      <point x="-380" y="1072" type="line"/>
      <point x="-74" y="1413" type="line"/>
      <point x="211" y="1413" type="line"/>
    </contour>
  </outline>
</glyph>
<glyph name="dblgravecmb" format="2">
  <unicode hex="030F"/>
  <anchor x="-227" y="999" name="_t.ringcmb_1"/>
  <outline>
    <contour>
      <point x="-273" y="1072" type="line"/>
      <point x="-450" y="1072" type="line"/>
      <point x="-695" y="1413" type="line"/>
      <point x="-423" y="1413" type="line"/>
    </contour>
    <contour>
      <point x="106" y="1072" type="line"/>
      <point x="-70" y="1072" type="line"/>
      <point x="-314" y="1413" type="line"/>
      <point x="-43" y="1413" type="line"/>
    </contour>
  </outline>
</glyph>
<glyph name="commaturnedabovecmb" format="2">
  <unicode hex="0312"/>
  <anchor x="-177" y="999" name="_t.ringcmb_1"/>
  <outline>
    <contour>
      <point x="-73" y="1117" type="line"/>
      <point x="-345" y="1117" type="line"/>
      <point x="-7" y="1438" type="line"/>
      <point x="149" y="1438" type="line"/>
    </contour>
  </outline>
</glyph>
<glyph name="horncmb" format="2">
  <unicode hex="031B"/>
  <anchor x="-109" y="999" name="_m.horncmb_3"/>
  <outline>
    <contour>
      <point x="-152" y="999" type="line"/>
      <point x="-311" y="999" type="line"/>
      <point x="-75" y="1413" type="line"/>
      <point x="196" y="1413" type="line"/>
    </contour>
  </outline>
</glyph>
<glyph name="cedillacmb" format="2">
  <unicode hex="0327"/>
  <anchor x="-375" y="0" name="_b.uni0326"/>
  <anchor x="-375" y="0" name="_b.uni0326_2"/>
  <anchor x="-514" y="-500" name="b.uni0326_2"/>
  <outline>
    <contour>
      <point x="-529" y="-528" type="qcurve" smooth="yes"/>
      <point x="-594" y="-528"/>
      <point x="-695" y="-448"/>
      <point x="-710" y="-386" type="qcurve"/>
      <point x="-557" y="-349" type="line"/>
      <point x="-552" y="-377"/>
      <point x="-515" y="-377" type="qcurve" smooth="yes"/>
      <point x="-493" y="-377"/>
      <point x="-440" y="-348"/>
      <point x="-402" y="-299"/>
      <point x="-402" y="-268" type="qcurve" smooth="yes"/>
      <point x="-402" y="-235"/>
      <point x="-477" y="-200"/>
      <point x="-535" y="-200" type="qcurve" smooth="yes"/>
      <point x="-621" y="-200" type="line"/>
      <point x="-454" y="-3" type="line"/>
      <point x="-296" y="-3" type="line"/>
      <point x="-407" y="-97" type="line"/>
      <point x="-330" y="-112"/>
      <point x="-252" y="-199"/>
      <point x="-252" y="-265" type="qcurve" smooth="yes"/>
      <point x="-252" y="-370"/>
      <point x="-413" y="-528"/>
    </contour>
  </outline>
</glyph>
<glyph name="pi" format="2">
  <advance width="1007"/>
  <unicode hex="03C0"/>
  <outline>
    <contour>
      <point x="729" y="-20" type="qcurve" smooth="yes"/>
      <point x="628" y="-20"/>
      <point x="528" y="87"/>
      <point x="528" y="171" type="qcurve" smooth="yes"/>
      <point x="528" y="213"/>
      <point x="539" y="258" type="qcurve"/>
      <point x="657" y="778" type="line"/>
      <point x="446" y="778" type="line"/>
      <point x="268" y="0" type="line"/>
      <point x="46" y="0" type="line"/>
      <point x="225" y="778" type="line"/>
      <point x="143" y="778" type="line"/>
      <point x="161" y="850"/>
      <point x="176" y="919" type="qcurve" smooth="yes"/>
      <point x="194" y="999" type="line"/>
      <point x="1011" y="999" type="line"/>
      <point x="993" y="927"/>
      <point x="978" y="858" type="qcurve" smooth="yes"/>
      <point x="960" y="778" type="line"/>
      <point x="878" y="778" type="line"/>
      <point x="764" y="276" type="line" smooth="yes"/>
      <point x="750" y="215"/>
      <point x="750" y="198" type="qcurve" smooth="yes"/>
      <point x="750" y="183"/>
      <point x="757" y="177"/>
      <point x="763" y="177" type="qcurve" smooth="yes"/>
      <point x="781" y="177"/>
      <point x="812" y="199" type="qcurve"/>
      <point x="854" y="8" type="line"/>
      <point x="802" y="-20"/>
    </contour>
  </outline>
</glyph>
<glyph name="afii10051" format="2">
  <advance width="1603"/>
  <unicode hex="0402"/>
  <outline>
    <contour>
      <point x="973" y="-21" type="qcurve" smooth="yes"/>
      <point x="907" y="-21"/>
      <point x="729" y="65"/>
      <point x="677" y="112" type="qcurve"/>
      <point x="836" y="294" type="line"/>
      <point x="861" y="268"/>
      <point x="927" y="248"/>
      <point x="955" y="248" type="qcurve" smooth="yes"/>
      <point x="1069" y="248"/>
      <point x="1147" y="290" type="qcurve" smooth="yes"/>
      <point x="1268" y="355"/>
      <point x="1268" y="556" type="qcurve" smooth="yes"/>
      <point x="1268" y="642"/>
      <point x="1169" y="726"/>
      <point x="1060" y="726" type="qcurve" smooth="yes"/>
      <point x="878" y="726"/>
      <point x="754" y="607" type="qcurve"/>
      <point x="644" y="154"/>
      <point x="608" y="0" type="qcurve"/>
      <point x="324" y="0" type="line"/>
      <point x="424" y="431" type="line" smooth="yes"/>
      <point x="506" y="783"/>
      <point x="590" y="1153" type="qcurve"/>
      <point x="158" y="1153" type="line"/>
      <point x="218" y="1410" type="line"/>
      <point x="1365" y="1410" type="line"/>
      <point x="1305" y="1153" type="line"/>
      <point x="873" y="1153" type="line"/>
      <point x="821" y="951" type="line"/>
      <point x="959" y="1001"/>
      <point x="1097" y="1001" type="qcurve" smooth="yes"/>
      <point x="1325" y="1001"/>
      <point x="1552" y="790"/>
      <point x="1552" y="596" type="qcurve" smooth="yes"/>
      <point x="1552" y="462"/>
      <point x="1481" y="241"/>
      <point x="1360" y="83"/>
      <point x="1283" y="44" type="qcurve" smooth="yes"/>
      <point x="1154" y="-21"/>
    </contour>
  </outline>
</glyph>
<glyph name="afii10053" format="2">
  <advance width="1437"/>
  <unicode hex="0404"/>
  <outline>
    <contour>
      <point x="661" y="-20" type="qcurve" smooth="yes"/>
      <point x="650" y="-20" type="line" smooth="yes"/>
      <point x="516" y="-20"/>
      <point x="414" y="18" type="qcurve" smooth="yes"/>
      <point x="202" y="98"/>
      <point x="131" y="302" type="qcurve"/>
      <point x="97" y="396"/>
      <point x="97" y="509" type="qcurve"/>
      <point x="98" y="668"/>
      <point x="146" y="813" type="qcurve"/>
      <point x="190" y="954"/>
      <point x="278" y="1083" type="qcurve"/>
      <point x="395" y="1247"/>
      <point x="568" y="1340" type="qcurve"/>
      <point x="750" y="1436"/>
      <point x="968" y="1436" type="qcurve" smooth="yes"/>
      <point x="1182" y="1436"/>
      <point x="1472" y="1213"/>
      <point x="1514" y="1010" type="qcurve"/>
      <point x="1231" y="927" type="line"/>
      <point x="1225" y="1054"/>
      <point x="1072" y="1164"/>
      <point x="932" y="1164" type="qcurve" smooth="yes"/>
      <point x="761" y="1164"/>
      <point x="628" y="1072" type="qcurve"/>
      <point x="502" y="981"/>
      <point x="438" y="828" type="qcurve"/>
      <point x="575" y="830"/>
      <point x="712" y="834" type="qcurve" smooth="yes"/>
      <point x="849" y="837"/>
      <point x="985" y="839" type="qcurve"/>
      <point x="969" y="771"/>
      <point x="955" y="705" type="qcurve" smooth="yes"/>
      <point x="940" y="638"/>
      <point x="924" y="570" type="qcurve"/>
      <point x="785" y="568"/>
      <point x="649" y="565" type="qcurve" smooth="yes"/>
      <point x="513" y="561"/>
      <point x="376" y="559" type="qcurve"/>
      <point x="377" y="556"/>
      <point x="377" y="550" type="qcurve" smooth="yes"/>
      <point x="377" y="251"/>
      <point x="696" y="251" type="qcurve" smooth="yes"/>
      <point x="839" y="251"/>
      <point x="1053" y="378"/>
      <point x="1138" y="515" type="qcurve"/>
      <point x="1198" y="483"/>
      <point x="1316" y="418"/>
      <point x="1375" y="385" type="qcurve"/>
      <point x="1246" y="187"/>
      <point x="879" y="-20"/>
    </contour>
  </outline>
</glyph>
<glyph name="afii10054" format="2">
  <advance width="1143"/>
  <unicode hex="0405"/>
  <outline>
    <contour>
      <point x="543" y="-16" type="qcurve" smooth="yes"/>
      <point x="523" y="-16" type="line" smooth="yes"/>
      <point x="423" y="-16"/>
      <point x="333" y="12" type="qcurve" smooth="yes"/>
      <point x="238" y="41"/>
      <point x="95" y="155"/>
      <point x="15" y="317"/>
      <point x="15" y="416" type="qcurve" smooth="yes"/>
      <point x="15" y="423" type="line"/>
      <point x="89" y="434"/>
      <point x="162" y="447" type="qcurve" smooth="yes"/>
      <point x="234" y="459"/>
      <point x="308" y="470" type="qcurve"/>
      <point x="308" y="416"/>
      <point x="347" y="335"/>
      <point x="415" y="277"/>
      <point x="510" y="248"/>
      <point x="568" y="248" type="qcurve" smooth="yes"/>
      <point x="618" y="248"/>
      <point x="702" y="271"/>
      <point x="762" y="316"/>
      <point x="795" y="382"/>
      <point x="795" y="425" type="qcurve" smooth="yes"/>
      <point x="795" y="472"/>
      <point x="763" y="541"/>
      <point x="706" y="596"/>
      <point x="629" y="642"/>
      <point x="584" y="665" type="qcurve" smooth="yes"/>
      <point x="539" y="687"/>
      <point x="489" y="714" type="qcurve" smooth="yes"/>
      <point x="383" y="769"/>
      <point x="332" y="826" type="qcurve"/>
      <point x="244" y="918"/>
      <point x="243" y="1058" type="qcurve"/>
      <point x="243" y="1145"/>
      <point x="320" y="1290"/>
      <point x="455" y="1391"/>
      <point x="543" y="1416" type="qcurve" smooth="yes"/>
      <point x="617" y="1437"/>
      <point x="699" y="1437" type="qcurve"/>
      <point x="715" y="1436"/>
      <point x="733" y="1435" type="qcurve" smooth="yes"/>
      <point x="750" y="1434"/>
      <point x="769" y="1431" type="qcurve"/>
      <point x="915" y="1418"/>
      <point x="1025" y="1351" type="qcurve"/>
      <point x="1140" y="1278"/>
      <point x="1177" y="1166" type="qcurve"/>
      <point x="930" y="1049" type="line"/>
      <point x="912" y="1106"/>
      <point x="855" y="1150" type="qcurve"/>
      <point x="792" y="1194"/>
      <point x="709" y="1194" type="qcurve" smooth="yes"/>
      <point x="639" y="1194"/>
      <point x="590" y="1161" type="qcurve" smooth="yes"/>
      <point x="535" y="1125"/>
      <point x="535" y="1062" type="qcurve" smooth="yes"/>
      <point x="535" y="995"/>
      <point x="617" y="928" type="qcurve"/>
      <point x="652" y="897"/>
      <point x="695" y="871" type="qcurve" smooth="yes"/>
      <point x="769" y="825"/>
      <point x="848" y="788" type="qcurve" smooth="yes"/>
      <point x="879" y="773"/>
      <point x="891" y="765" type="qcurve"/>
      <point x="975" y="716"/>
      <point x="1028" y="634" type="qcurve"/>
      <point x="1087" y="539"/>
      <point x="1087" y="431" type="qcurve" smooth="yes"/>
      <point x="1087" y="418" type="line" smooth="yes"/>
      <point x="1087" y="322"/>
      <point x="1044" y="245" type="qcurve" smooth="yes"/>
      <point x="998" y="163"/>
      <point x="844" y="46"/>
      <point x="646" y="-16"/>
    </contour>
  </outline>
</glyph>
<glyph name="afii10057" format="2">
  <advance width="1145"/>
  <unicode hex="0408"/>
  <outline>
    <contour>
      <point x="401" y="-20" type="qcurve" smooth="yes"/>
      <point x="392" y="-20" type="line" smooth="yes"/>
      <point x="303" y="-20"/>
      <point x="156" y="39"/>
      <point x="53" y="146"/>
      <point x="26" y="220" type="qcurve" smooth="yes"/>
      <point x="1" y="289"/>
      <point x="1" y="369" type="qcurve" smooth="yes"/>
      <point x="1" y="393"/>
      <point x="4" y="439"/>
      <point x="8" y="466" type="qcurve"/>
      <point x="287" y="474" type="line"/>
      <point x="282" y="419"/>
      <point x="282" y="407" type="qcurve" smooth="yes"/>
      <point x="282" y="245"/>
      <point x="437" y="245" type="qcurve" smooth="yes"/>
      <point x="563" y="245"/>
      <point x="628" y="315" type="qcurve" smooth="yes"/>
      <point x="687" y="377"/>
      <point x="721" y="523" type="qcurve" smooth="yes"/>
      <point x="864" y="1147" type="line"/>
      <point x="331" y="1147" type="line"/>
      <point x="348" y="1213"/>
      <point x="364" y="1279" type="qcurve" smooth="yes"/>
      <point x="379" y="1345"/>
      <point x="395" y="1410" type="qcurve"/>
      <point x="1210" y="1410" type="line"/>
      <point x="1158" y="1182"/>
      <point x="1106" y="957" type="qcurve" smooth="yes"/>
      <point x="1053" y="732"/>
      <point x="1000" y="503" type="qcurve" smooth="yes"/>
      <point x="943" y="254"/>
      <point x="799" y="123" type="qcurve" smooth="yes"/>
      <point x="643" y="-20"/>
    </contour>
  </outline>
</glyph>
<glyph name="afii10058" format="2">
  <advance width="1905"/>
  <unicode hex="0409"/>
  <outline>
    <contour>
      <point x="104" y="-20" type="qcurve" smooth="yes"/>
      <point x="35" y="-20"/>
      <point x="-56" y="13"/>
      <point x="-112" y="54" type="qcurve"/>
      <point x="-67" y="134" type="line" smooth="yes"/>
      <point x="-37" y="186"/>
      <point x="-7" y="241" type="qcurve"/>
      <point x="52" y="224"/>
      <point x="103" y="224" type="qcurve" smooth="yes"/>
      <point x="137" y="224"/>
      <point x="263" y="563"/>
      <point x="345" y="907" type="qcurve"/>
      <point x="460" y="1410" type="line"/>
      <point x="1397" y="1410" type="line"/>
      <point x="1291" y="952"/>
      <point x="1266" y="840" type="qcurve"/>
      <point x="1434" y="840" type="line" smooth="yes"/>
      <point x="1564" y="840"/>
      <point x="1758" y="761"/>
      <point x="1866" y="610"/>
      <point x="1866" y="503" type="qcurve" smooth="yes"/>
      <point x="1866" y="378"/>
      <point x="1735" y="156"/>
      <point x="1624" y="90" type="qcurve"/>
      <point x="1466" y="0"/>
      <point x="1253" y="0" type="qcurve" smooth="yes"/>
      <point x="789" y="0" type="line"/>
      <point x="1053" y="1147" type="line"/>
      <point x="681" y="1147" type="line"/>
      <point x="581" y="707"/>
      <point x="501" y="429" type="qcurve"/>
      <point x="443" y="245"/>
      <point x="246" y="-20"/>
    </contour>
    <contour>
      <point x="1300" y="268" type="line" smooth="yes"/>
      <point x="1536" y="268"/>
      <point x="1582" y="448" type="qcurve"/>
      <point x="1586" y="467"/>
      <point x="1586" y="481" type="qcurve" smooth="yes"/>
      <point x="1586" y="532"/>
      <point x="1489" y="573"/>
      <point x="1385" y="573" type="qcurve" smooth="yes"/>
      <point x="1204" y="573" type="line"/>
      <point x="1176" y="455" type="line" smooth="yes"/>
      <point x="1153" y="360"/>
      <point x="1132" y="268" type="qcurve"/>
    </contour>
  </outline>
</glyph>
<glyph name="afii10059" format="2">
  <advance width="2046"/>
  <unicode hex="040A"/>
  <outline>
    <contour>
      <point x="1404" y="0" type="qcurve" smooth="yes"/>
      <point x="931" y="0" type="line"/>
      <point x="954" y="105"/>
      <point x="1062" y="575" type="qcurve"/>
      <point x="474" y="575" type="line"/>
      <point x="343" y="0" type="line"/>
      <point x="59" y="0" type="line"/>
      <point x="140" y="355"/>
      <point x="222" y="707" type="qcurve" smooth="yes"/>
      <point x="303" y="1058"/>
      <point x="384" y="1410" type="qcurve"/>
      <point x="668" y="1410" type="line"/>
      <point x="634" y="1268"/>
      <point x="601" y="1125" type="qcurve" smooth="yes"/>
      <point x="568" y="982"/>
      <point x="534" y="838" type="qcurve"/>
      <point x="1122" y="838" type="line"/>
      <point x="1257" y="1410" type="line"/>
      <point x="1540" y="1410" type="line"/>
      <point x="1508" y="1268"/>
      <point x="1475" y="1126" type="qcurve" smooth="yes"/>
      <point x="1441" y="983"/>
      <point x="1408" y="840" type="qcurve"/>
      <point x="1575" y="840" type="line" smooth="yes"/>
      <point x="1772" y="840"/>
      <point x="1887" y="752" type="qcurve" smooth="yes"/>
      <point x="2006" y="661"/>
      <point x="2006" y="504" type="qcurve" smooth="yes"/>
      <point x="2006" y="395"/>
      <point x="1914" y="208"/>
      <point x="1749" y="74"/>
      <point x="1637" y="36" type="qcurve" smooth="yes"/>
      <point x="1529" y="0"/>
    </contour>
    <contour>
      <point x="1441" y="268" type="line" smooth="yes"/>
      <point x="1558" y="268"/>
      <point x="1699" y="355"/>
      <point x="1723" y="448" type="qcurve" smooth="yes"/>
      <point x="1727" y="465"/>
      <point x="1727" y="479" type="qcurve" smooth="yes"/>
      <point x="1727" y="531"/>
      <point x="1630" y="573"/>
      <point x="1525" y="573" type="qcurve" smooth="yes"/>
      <point x="1346" y="573" type="line"/>
      <point x="1318" y="455" type="line" smooth="yes"/>
      <point x="1295" y="360"/>
      <point x="1274" y="268" type="qcurve"/>
    </contour>
  </outline>
</glyph>
<glyph name="afii10060" format="2">
  <advance width="1623"/>
  <unicode hex="040B"/>
  <outline>
    <contour>
      <point x="1436" y="0" type="qcurve"/>
      <point x="1152" y="0" type="line"/>
      <point x="1170" y="82"/>
      <point x="1194" y="175" type="qcurve" smooth="yes"/>
      <point x="1222" y="286"/>
      <point x="1268" y="496"/>
      <point x="1268" y="565" type="qcurve" smooth="yes"/>
      <point x="1268" y="650"/>
      <point x="1171" y="726"/>
      <point x="1060" y="726" type="qcurve" smooth="yes"/>
      <point x="874" y="726"/>
      <point x="754" y="607" type="qcurve"/>
      <point x="644" y="154"/>
      <point x="608" y="0" type="qcurve"/>
      <point x="324" y="0" type="line"/>
      <point x="424" y="431" type="line" smooth="yes"/>
      <point x="506" y="783"/>
      <point x="590" y="1153" type="qcurve"/>
      <point x="158" y="1153" type="line"/>
      <point x="218" y="1410" type="line"/>
      <point x="1365" y="1410" type="line"/>
      <point x="1305" y="1153" type="line"/>
      <point x="873" y="1153" type="line"/>
      <point x="820" y="951" type="line"/>
      <point x="968" y="1001"/>
      <point x="1097" y="1001" type="qcurve" smooth="yes"/>
      <point x="1257" y="1001"/>
      <point x="1461" y="906"/>
      <point x="1557" y="731"/>
      <point x="1557" y="612" type="qcurve" smooth="yes"/>
      <point x="1557" y="518"/>
      <point x="1505" y="277"/>
      <point x="1474" y="155" type="qcurve" smooth="yes"/>
      <point x="1453" y="74"/>
    </contour>
  </outline>
</glyph>
<glyph name="Acyrillic" format="2">
  <advance width="1355"/>
  <unicode hex="0410"/>
  <outline>
    <contour>
      <point x="1242" y="0" type="line"/>
      <point x="940" y="0" type="line"/>
      <point x="901" y="307" type="line"/>
      <point x="373" y="307" type="line"/>
      <point x="193" y="0" type="line"/>
      <point x="-120" y="0" type="line"/>
      <point x="781" y="1410" type="line"/>
      <point x="994" y="1410" type="line"/>
    </contour>
    <contour>
      <point x="860" y="546" type="line"/>
      <point x="799" y="993" type="line"/>
      <point x="528" y="546" type="line"/>
    </contour>
  </outline>
</glyph>
<glyph name="afii10019" format="2">
  <advance width="1282"/>
  <unicode hex="0412"/>
  <outline>
    <contour>
      <point x="653" y="0" type="qcurve" smooth="yes"/>
      <point x="58" y="0" type="line"/>
      <point x="139" y="355"/>
      <point x="221" y="708" type="qcurve" smooth="yes"/>
      <point x="302" y="1060"/>
      <point x="383" y="1413" type="qcurve"/>
      <point x="897" y="1413" type="line" smooth="yes"/>
      <point x="1056" y="1413"/>
      <point x="1158" y="1341" type="qcurve" smooth="yes"/>
      <point x="1275" y="1259"/>
      <point x="1275" y="1105" type="qcurve" smooth="yes"/>
      <point x="1275" y="1054"/>
      <point x="1245" y="949"/>
      <point x="1188" y="852"/>
      <point x="1105" y="772"/>
      <point x="1053" y="746" type="qcurve"/>
      <point x="1115" y="722"/>
      <point x="1158" y="643" type="qcurve" smooth="yes"/>
      <point x="1198" y="567"/>
      <point x="1198" y="474" type="qcurve" smooth="yes"/>
      <point x="1198" y="404"/>
      <point x="1153" y="280"/>
      <point x="1072" y="173"/>
      <point x="964" y="88"/>
      <point x="842" y="29"/>
      <point x="774" y="14" type="qcurve" smooth="yes"/>
      <point x="712" y="0"/>
    </contour>
    <contour>
      <point x="802" y="860" type="line" smooth="yes"/>
      <point x="879" y="860"/>
      <point x="991" y="943"/>
      <point x="1014" y="1035" type="qcurve"/>
      <point x="1017" y="1042"/>
      <point x="1017" y="1057" type="qcurve" smooth="yes"/>
      <point x="1017" y="1109"/>
      <point x="924" y="1157"/>
      <point x="855" y="1157" type="qcurve" smooth="yes"/>
      <point x="608" y="1157" type="line"/>
      <point x="540" y="860" type="line"/>
    </contour>
    <contour>
      <point x="695" y="272" type="line" smooth="yes"/>
      <point x="793" y="272"/>
      <point x="908" y="386"/>
      <point x="932" y="480" type="qcurve" smooth="yes"/>
      <point x="934" y="489"/>
      <point x="934" y="498" type="qcurve" smooth="yes"/>
      <point x="934" y="546"/>
      <point x="849" y="617"/>
      <point x="773" y="617" type="qcurve" smooth="yes"/>
      <point x="483" y="617" type="line"/>
      <point x="404" y="272" type="line"/>
    </contour>
  </outline>
</glyph>
<glyph name="afii10020" format="2">
  <advance width="1061"/>
  <unicode hex="0413"/>
  <outline>
    <contour>
      <point x="342" y="0" type="line"/>
      <point x="58" y="0" type="line"/>
      <point x="383" y="1410" type="line"/>
      <point x="1265" y="1410" type="line"/>
      <point x="1202" y="1147" type="line"/>
      <point x="604" y="1147" type="line"/>
    </contour>
  </outline>
</glyph>
<glyph name="afii10024" format="2">
  <advance width="2129"/>
  <unicode hex="0416"/>
  <outline>
    <contour>
      <point x="2006" y="0" type="qcurve"/>
      <point x="1655" y="0" type="line"/>
      <point x="1601" y="485" type="line" smooth="yes"/>
      <point x="1596" y="525"/>
      <point x="1565" y="601"/>
      <point x="1509" y="651"/>
      <point x="1468" y="651" type="qcurve" smooth="yes"/>
      <point x="1240" y="651" type="line"/>
      <point x="1092" y="0" type="line"/>
      <point x="808" y="0" type="line"/>
      <point x="845" y="167"/>
      <point x="882" y="326" type="qcurve" smooth="yes"/>
      <point x="918" y="484"/>
      <point x="955" y="651" type="qcurve"/>
      <point x="745" y="651" type="line" smooth="yes"/>
      <point x="698" y="651"/>
      <point x="608" y="581"/>
      <point x="531" y="482"/>
      <point x="505" y="434" type="qcurve"/>
      <point x="248" y="0" type="line"/>
      <point x="-111" y="0" type="line"/>
      <point x="290" y="581" type="line" smooth="yes"/>
      <point x="337" y="650"/>
      <point x="433" y="767"/>
      <point x="530" y="840"/>
      <point x="577" y="840" type="qcurve"/>
      <point x="288" y="1410" type="line"/>
      <point x="668" y="1410" type="line"/>
      <point x="730" y="1264"/>
      <point x="792" y="1113" type="qcurve"/>
      <point x="873" y="920" type="line"/>
      <point x="1019" y="920" type="line"/>
      <point x="1048" y="1049"/>
      <point x="1079" y="1179" type="qcurve"/>
      <point x="1132" y="1410" type="line"/>
      <point x="1417" y="1410" type="line"/>
      <point x="1303" y="920" type="line"/>
      <point x="1445" y="920" type="line"/>
      <point x="1878" y="1410" type="line"/>
      <point x="2266" y="1410" type="line"/>
      <point x="1697" y="840" type="line"/>
      <point x="1805" y="840"/>
      <point x="1863" y="560" type="qcurve"/>
      <point x="1899" y="415"/>
      <point x="1935" y="280" type="qcurve" smooth="yes"/>
      <point x="1970" y="145"/>
    </contour>
  </outline>
</glyph>
<glyph name="afii10029" format="2">
  <advance width="1348"/>
  <unicode hex="041B"/>
  <outline>
    <contour>
      <point x="1235" y="0" type="line"/>
      <point x="924" y="0" type="line"/>
      <point x="779" y="938" type="line"/>
      <point x="197" y="0" type="line"/>
      <point x="-120" y="0" type="line"/>
      <point x="778" y="1413" type="line"/>
      <point x="986" y="1413" type="line"/>
    </contour>
  </outline>
</glyph>
<glyph name="afii10038" format="2">
  <advance width="1808"/>
  <unicode hex="0424"/>
  <outline>
    <contour>
      <point x="930" y="0" type="line"/>
      <point x="644" y="0" type="line"/>
      <point x="647" y="10"/>
      <point x="651" y="22" type="qcurve" smooth="yes"/>
      <point x="655" y="33"/>
      <point x="675" y="98" type="qcurve"/>
      <point x="536" y="98"/>
      <point x="321" y="168"/>
      <point x="176" y="291"/>
      <point x="102" y="466"/>
      <point x="102" y="571" type="qcurve" smooth="yes"/>
      <point x="102" y="648"/>
      <point x="119" y="724" type="qcurve" smooth="yes"/>
      <point x="153" y="875"/>
      <point x="250" y="1002" type="qcurve" smooth="yes"/>
      <point x="384" y="1177"/>
      <point x="615" y="1260" type="qcurve" smooth="yes"/>
      <point x="757" y="1310"/>
      <point x="930" y="1310" type="qcurve" smooth="yes"/>
      <point x="941" y="1310" type="line"/>
      <point x="973" y="1410" type="line"/>
      <point x="1257" y="1410" type="line"/>
      <point x="1225" y="1310" type="line"/>
      <point x="1366" y="1310"/>
      <point x="1581" y="1239"/>
      <point x="1726" y="1113"/>
      <point x="1800" y="937"/>
      <point x="1800" y="832" type="qcurve" smooth="yes"/>
      <point x="1800" y="765"/>
      <point x="1782" y="679" type="qcurve" smooth="yes"/>
      <point x="1755" y="556"/>
      <point x="1685" y="449" type="qcurve" smooth="yes"/>
      <point x="1541" y="229"/>
      <point x="1263" y="142" type="qcurve"/>
      <point x="1128" y="98"/>
      <point x="969" y="98" type="qcurve" smooth="yes"/>
      <point x="959" y="98" type="line"/>
    </contour>
    <contour>
      <point x="719" y="349" type="qcurve"/>
      <point x="897" y="1059" type="line"/>
      <point x="889" y="1059" type="line" smooth="yes"/>
      <point x="805" y="1059"/>
      <point x="728" y="1031" type="qcurve" smooth="yes"/>
      <point x="647" y="1002"/>
      <point x="519" y="900"/>
      <point x="431" y="760"/>
      <point x="413" y="679" type="qcurve" smooth="yes"/>
      <point x="403" y="637"/>
      <point x="403" y="598" type="qcurve" smooth="yes"/>
      <point x="403" y="543"/>
      <point x="445" y="450"/>
      <point x="527" y="385"/>
      <point x="643" y="349"/>
    </contour>
    <contour>
      <point x="1003" y="349" type="line"/>
      <point x="1125" y="349"/>
      <point x="1326" y="448"/>
      <point x="1463" y="619"/>
      <point x="1490" y="729" type="qcurve" smooth="yes"/>
      <point x="1499" y="765"/>
      <point x="1499" y="807" type="qcurve" smooth="yes"/>
      <point x="1499" y="881"/>
      <point x="1430" y="995"/>
      <point x="1289" y="1059"/>
      <point x="1181" y="1059" type="qcurve"/>
    </contour>
  </outline>
</glyph>
<glyph name="afii10047" format="2">
  <advance width="1435"/>
  <unicode hex="042D"/>
  <outline>
    <contour>
      <point x="560" y="-20" type="qcurve" smooth="yes"/>
      <point x="451" y="-20"/>
      <point x="269" y="37"/>
      <point x="128" y="148"/>
      <point x="34" y="307"/>
      <point x="14" y="407" type="qcurve"/>
      <point x="293" y="492" type="line"/>
      <point x="313" y="362"/>
      <point x="459" y="251"/>
      <point x="595" y="251" type="qcurve" smooth="yes"/>
      <point x="758" y="251"/>
      <point x="881" y="328" type="qcurve" smooth="yes"/>
      <point x="1017" y="412"/>
      <point x="1089" y="581" type="qcurve"/>
      <point x="953" y="579"/>
      <point x="817" y="576" type="qcurve" smooth="yes"/>
      <point x="680" y="572"/>
      <point x="543" y="570" type="qcurve"/>
      <point x="559" y="638"/>
      <point x="574" y="705" type="qcurve" smooth="yes"/>
      <point x="588" y="771"/>
      <point x="604" y="839" type="qcurve"/>
      <point x="743" y="843"/>
      <point x="881" y="846" type="qcurve" smooth="yes"/>
      <point x="1018" y="848"/>
      <point x="1156" y="851" type="qcurve"/>
      <point x="1155" y="853"/>
      <point x="1155" y="875" type="qcurve" smooth="yes"/>
      <point x="1155" y="1010"/>
      <point x="1000" y="1164"/>
      <point x="839" y="1164" type="qcurve" smooth="yes"/>
      <point x="691" y="1164"/>
      <point x="466" y="1036"/>
      <point x="398" y="905" type="qcurve"/>
      <point x="158" y="1032" type="line"/>
      <point x="288" y="1232"/>
      <point x="654" y="1436"/>
      <point x="870" y="1436" type="qcurve" smooth="yes"/>
      <point x="880" y="1436" type="line" smooth="yes"/>
      <point x="1016" y="1436"/>
      <point x="1223" y="1357"/>
      <point x="1365" y="1212"/>
      <point x="1434" y="1013"/>
      <point x="1434" y="894" type="qcurve" smooth="yes"/>
      <point x="1434" y="774"/>
      <point x="1371" y="533"/>
      <point x="1248" y="316"/>
      <point x="1160" y="226" type="qcurve" smooth="yes"/>
      <point x="922" y="-20"/>
    </contour>
  </outline>
</glyph>
<glyph name="afii10067" format="2">
  <advance width="1224"/>
  <unicode hex="0432"/>
  <outline>
    <contour>
      <point x="564" y="-20" type="qcurve" smooth="yes"/>
      <point x="544" y="-20" type="line" smooth="yes"/>
      <point x="458" y="-20"/>
      <point x="378" y="3" type="qcurve"/>
      <point x="293" y="26"/>
      <point x="163" y="117"/>
      <point x="87" y="247"/>
      <point x="87" y="326" type="qcurve" smooth="yes"/>
      <point x="87" y="379"/>
      <point x="99" y="425" type="qcurve" smooth="yes"/>
      <point x="111" y="471"/>
      <point x="122" y="516" type="qcurve"/>
      <point x="199" y="857"/>
      <point x="227" y="974" type="qcurve" smooth="yes"/>
      <point x="251" y="1076"/>
      <point x="291" y="1150" type="qcurve" smooth="yes"/>
      <point x="368" y="1295"/>
      <point x="491" y="1358" type="qcurve"/>
      <point x="597" y="1415"/>
      <point x="743" y="1429" type="qcurve"/>
      <point x="809" y="1434"/>
      <point x="870" y="1434" type="qcurve" smooth="yes"/>
      <point x="1009" y="1434"/>
      <point x="1108" y="1366" type="qcurve"/>
      <point x="1210" y="1294"/>
      <point x="1231" y="1175" type="qcurve" smooth="yes"/>
      <point x="1235" y="1150" type="line"/>
      <point x="1236" y="1115" type="line"/>
      <point x="1236" y="1028"/>
      <point x="1206" y="951" type="qcurve" smooth="yes"/>
      <point x="1174" y="869"/>
      <point x="1114" y="803" type="qcurve" smooth="yes"/>
      <point x="1068" y="754"/>
      <point x="1046" y="735" type="qcurve"/>
      <point x="1146" y="645"/>
      <point x="1146" y="508" type="qcurve" smooth="yes"/>
      <point x="1146" y="421"/>
      <point x="1123" y="345" type="qcurve"/>
      <point x="1074" y="190"/>
      <point x="949" y="96" type="qcurve" smooth="yes"/>
      <point x="796" y="-20"/>
    </contour>
    <contour>
      <point x="589" y="237" type="qcurve" smooth="yes"/>
      <point x="696" y="237"/>
      <point x="840" y="344"/>
      <point x="863" y="446" type="qcurve"/>
      <point x="873" y="483"/>
      <point x="873" y="525" type="qcurve"/>
      <point x="870" y="550"/>
      <point x="859" y="566" type="qcurve"/>
      <point x="821" y="613"/>
      <point x="698" y="613" type="qcurve" smooth="yes"/>
      <point x="670" y="613"/>
      <point x="632" y="608"/>
      <point x="595" y="597"/>
      <point x="522" y="565" type="qcurve"/>
      <point x="548" y="695"/>
      <point x="572" y="825" type="qcurve"/>
      <point x="601" y="845"/>
      <point x="635" y="851" type="qcurve" smooth="yes"/>
      <point x="663" y="856"/>
      <point x="703" y="856" type="qcurve" smooth="yes"/>
      <point x="720" y="856" type="line" smooth="yes"/>
      <point x="767" y="856"/>
      <point x="856" y="881"/>
      <point x="926" y="934"/>
      <point x="968" y="1016"/>
      <point x="968" y="1073" type="qcurve" smooth="yes"/>
      <point x="968" y="1123"/>
      <point x="900" y="1172"/>
      <point x="840" y="1172" type="qcurve" smooth="yes"/>
      <point x="794" y="1172"/>
      <point x="741" y="1165" type="qcurve"/>
      <point x="623" y="1147"/>
      <point x="549" y="1041" type="qcurve" smooth="yes"/>
      <point x="508" y="983"/>
      <point x="484" y="879" type="qcurve" smooth="yes"/>
      <point x="406" y="546"/>
      <point x="396" y="509" type="qcurve"/>
      <point x="386" y="478"/>
      <point x="377" y="434" type="qcurve"/>
      <point x="371" y="410"/>
      <point x="371" y="390" type="qcurve" smooth="yes"/>
      <point x="371" y="356"/>
      <point x="405" y="299"/>
      <point x="463" y="259"/>
      <point x="543" y="237"/>
    </contour>
  </outline>
</glyph>
<glyph name="afii10074" format="2">
  <advance width="1181"/>
  <unicode hex="0438"/>
  <outline>
    <contour>
      <point x="375" y="-23" type="qcurve" smooth="yes"/>
      <point x="273" y="-23"/>
      <point x="139" y="60"/>
      <point x="73" y="206"/>
      <point x="73" y="298" type="qcurve" smooth="yes"/>
      <point x="73" y="364"/>
      <point x="87" y="424" type="qcurve" smooth="yes"/>
      <point x="129" y="611"/>
      <point x="172" y="797" type="qcurve" smooth="yes"/>
      <point x="219" y="999" type="line"/>
      <point x="498" y="999" type="line"/>
      <point x="364" y="420" type="line" smooth="yes"/>
      <point x="352" y="369"/>
      <point x="352" y="336" type="qcurve" smooth="yes"/>
      <point x="352" y="284"/>
      <point x="416" y="241"/>
      <point x="482" y="241" type="qcurve" smooth="yes"/>
      <point x="555" y="241"/>
      <point x="669" y="297"/>
      <point x="750" y="429"/>
      <point x="774" y="541" type="qcurve"/>
      <point x="826" y="770"/>
      <point x="880" y="999" type="qcurve"/>
      <point x="1159" y="999" type="line"/>
      <point x="929" y="0" type="line"/>
      <point x="658" y="0" type="line"/>
      <point x="675" y="92" type="line"/>
      <point x="603" y="26"/>
      <point x="450" y="-23"/>
    </contour>
  </outline>
</glyph>
<glyph name="afii10075" format="2">
  <advance width="1209"/>
  <unicode hex="0439"/>
  <outline>
    <contour>
      <point x="780" y="1143" type="qcurve" smooth="yes"/>
      <point x="501" y="1143"/>
      <point x="501" y="1335" type="qcurve" smooth="yes"/>
      <point x="501" y="1365"/>
      <point x="512" y="1413" type="qcurve"/>
      <point x="695" y="1413" type="line"/>
      <point x="690" y="1393"/>
      <point x="690" y="1372" type="qcurve" smooth="yes"/>
      <point x="690" y="1298"/>
      <point x="783" y="1298" type="qcurve" smooth="yes"/>
      <point x="852" y="1298"/>
      <point x="950" y="1361"/>
      <point x="963" y="1413" type="qcurve"/>
      <point x="1146" y="1413" type="line"/>
      <point x="1114" y="1270"/>
      <point x="944" y="1143"/>
    </contour>
    <contour>
      <point x="406" y="-23" type="qcurve" smooth="yes"/>
      <point x="255" y="-23"/>
      <point x="177" y="68" type="qcurve" smooth="yes"/>
      <point x="103" y="153"/>
      <point x="103" y="298" type="qcurve" smooth="yes"/>
      <point x="103" y="331"/>
      <point x="110" y="394"/>
      <point x="117" y="425" type="qcurve" smooth="yes"/>
      <point x="250" y="999" type="line"/>
      <point x="528" y="999" type="line"/>
      <point x="462" y="709"/>
      <point x="394" y="420" type="qcurve" smooth="yes"/>
      <point x="381" y="362"/>
      <point x="381" y="331" type="qcurve" smooth="yes"/>
      <point x="381" y="286"/>
      <point x="429" y="241"/>
      <point x="486" y="241" type="qcurve" smooth="yes"/>
      <point x="493" y="241" type="line" smooth="yes"/>
      <point x="589" y="241"/>
      <point x="772" y="384"/>
      <point x="787" y="464" type="qcurve"/>
      <point x="910" y="999" type="line"/>
      <point x="1188" y="999" type="line"/>
      <point x="1131" y="750"/>
      <point x="1074" y="501" type="qcurve" smooth="yes"/>
      <point x="1016" y="251"/>
      <point x="959" y="0" type="qcurve"/>
      <point x="680" y="0" type="line"/>
      <point x="687" y="23"/>
      <point x="693" y="47" type="qcurve" smooth="yes"/>
      <point x="699" y="70"/>
      <point x="706" y="93" type="qcurve"/>
      <point x="637" y="30"/>
      <point x="558" y="2" type="qcurve" smooth="yes"/>
      <point x="490" y="-23"/>
    </contour>
  </outline>
</glyph>
<glyph name="afii10076" format="2">
  <advance width="1056"/>
  <unicode hex="043A"/>
  <outline>
    <contour>
      <point x="936" y="0" type="line"/>
      <point x="616" y="0" type="line"/>
      <point x="601" y="152" type="line"/>
      <point x="590" y="252"/>
      <point x="583" y="332" type="qcurve"/>
      <point x="580" y="387"/>
      <point x="540" y="451"/>
      <point x="481" y="451" type="qcurve" smooth="yes"/>
      <point x="397" y="451" type="line"/>
      <point x="293" y="0" type="line"/>
      <point x="21" y="0" type="line"/>
      <point x="192" y="743" type="line"/>
      <point x="268" y="1069"/>
      <point x="346" y="1410" type="qcurve"/>
      <point x="619" y="1410" type="line"/>
      <point x="529" y="1029"/>
      <point x="442" y="647" type="qcurve"/>
      <point x="485" y="647" type="line"/>
      <point x="804" y="999" type="line"/>
      <point x="1125" y="999" type="line"/>
      <point x="721" y="617" type="line"/>
      <point x="756" y="617"/>
      <point x="811" y="562"/>
      <point x="848" y="485"/>
      <point x="856" y="449" type="qcurve"/>
    </contour>
  </outline>
</glyph>
<glyph name="afii10083" format="2">
  <advance width="1011"/>
  <unicode hex="0441"/>
  <outline>
    <contour>
      <point x="438" y="-20" type="qcurve" smooth="yes"/>
      <point x="335" y="-20"/>
      <point x="183" y="41"/>
      <point x="133" y="95" type="qcurve" smooth="yes"/>
      <point x="82" y="148"/>
      <point x="33" y="294"/>
      <point x="33" y="378" type="qcurve" smooth="yes"/>
      <point x="33" y="535"/>
      <point x="190" y="833"/>
      <point x="324" y="922" type="qcurve" smooth="yes"/>
      <point x="468" y="1016"/>
      <point x="638" y="1016" type="qcurve" smooth="yes"/>
      <point x="648" y="1016" type="line" smooth="yes"/>
      <point x="800" y="1016"/>
      <point x="904" y="930" type="qcurve" smooth="yes"/>
      <point x="1003" y="848"/>
      <point x="1032" y="705" type="qcurve"/>
      <point x="758" y="627" type="line"/>
      <point x="752" y="754"/>
      <point x="615" y="754" type="qcurve" smooth="yes"/>
      <point x="551" y="754"/>
      <point x="438" y="698"/>
      <point x="354" y="600"/>
      <point x="306" y="468"/>
      <point x="306" y="393" type="qcurve" smooth="yes"/>
      <point x="306" y="323"/>
      <point x="388" y="241"/>
      <point x="470" y="241" type="qcurve" smooth="yes"/>
      <point x="508" y="241"/>
      <point x="578" y="264"/>
      <point x="635" y="305"/>
      <point x="683" y="359"/>
      <point x="700" y="390" type="qcurve"/>
      <point x="928" y="275" type="line"/>
      <point x="846" y="133"/>
      <point x="593" y="-20"/>
    </contour>
  </outline>
</glyph>
<glyph name="afii10088" format="2">
  <advance width="1210"/>
  <unicode hex="0446"/>
  <outline>
    <contour>
      <point x="965" y="-307" type="line"/>
      <point x="730" y="-307" type="line"/>
      <point x="802" y="-23" type="line"/>
      <point x="769" y="-23"/>
      <point x="710" y="19"/>
      <point x="692" y="51" type="qcurve"/>
      <point x="679" y="77"/>
      <point x="679" y="104" type="qcurve"/>
      <point x="610" y="35"/>
      <point x="529" y="4" type="qcurve" smooth="yes"/>
      <point x="459" y="-23"/>
      <point x="374" y="-23" type="qcurve" smooth="yes"/>
      <point x="224" y="-23"/>
      <point x="148" y="66" type="qcurve"/>
      <point x="72" y="152"/>
      <point x="72" y="298" type="qcurve" smooth="yes"/>
      <point x="72" y="331"/>
      <point x="78" y="394"/>
      <point x="86" y="425" type="qcurve"/>
      <point x="118" y="569"/>
      <point x="152" y="713" type="qcurve" smooth="yes"/>
      <point x="185" y="856"/>
      <point x="218" y="999" type="qcurve"/>
      <point x="496" y="999" type="line"/>
      <point x="430" y="709"/>
      <point x="362" y="420" type="qcurve" smooth="yes"/>
      <point x="349" y="362"/>
      <point x="349" y="331" type="qcurve" smooth="yes"/>
      <point x="349" y="286"/>
      <point x="397" y="241"/>
      <point x="454" y="241" type="qcurve"/>
      <point x="473" y="240" type="line"/>
      <point x="549" y="240"/>
      <point x="618" y="287" type="qcurve" smooth="yes"/>
      <point x="676" y="328"/>
      <point x="720" y="404" type="qcurve" smooth="yes"/>
      <point x="754" y="464"/>
      <point x="768" y="525" type="qcurve" smooth="yes"/>
      <point x="824" y="762"/>
      <point x="878" y="999" type="qcurve"/>
      <point x="1156" y="999" type="line"/>
      <point x="981" y="241" type="line"/>
      <point x="977" y="212"/>
      <point x="977" y="203" type="qcurve" smooth="yes"/>
      <point x="977" y="109"/>
      <point x="1099" y="109" type="qcurve"/>
    </contour>
  </outline>
</glyph>
<glyph name="afii10089" format="2">
  <advance width="1121"/>
  <unicode hex="0447"/>
  <outline>
    <contour>
      <point x="871" y="0" type="qcurve"/>
      <point x="593" y="0" type="line"/>
      <point x="679" y="356" type="line"/>
      <point x="609" y="292"/>
      <point x="456" y="241"/>
      <point x="379" y="241" type="qcurve" smooth="yes"/>
      <point x="301" y="241"/>
      <point x="187" y="290"/>
      <point x="113" y="377"/>
      <point x="77" y="494"/>
      <point x="77" y="563" type="qcurve" smooth="yes"/>
      <point x="77" y="625"/>
      <point x="91" y="688" type="qcurve" smooth="yes"/>
      <point x="163" y="999" type="line"/>
      <point x="441" y="999" type="line"/>
      <point x="422" y="920"/>
      <point x="405" y="841" type="qcurve" smooth="yes"/>
      <point x="387" y="762"/>
      <point x="368" y="683" type="qcurve" smooth="yes"/>
      <point x="355" y="628"/>
      <point x="355" y="596" type="qcurve" smooth="yes"/>
      <point x="355" y="551"/>
      <point x="403" y="505"/>
      <point x="460" y="505" type="qcurve" smooth="yes"/>
      <point x="467" y="505" type="line" smooth="yes"/>
      <point x="510" y="505"/>
      <point x="607" y="542"/>
      <point x="693" y="607"/>
      <point x="753" y="688"/>
      <point x="760" y="728" type="qcurve"/>
      <point x="770" y="774"/>
      <point x="823" y="999" type="qcurve"/>
      <point x="1100" y="999" type="line"/>
      <point x="1043" y="750"/>
      <point x="986" y="501" type="qcurve" smooth="yes"/>
      <point x="928" y="251"/>
    </contour>
  </outline>
</glyph>
<glyph name="afii10090" format="2">
  <advance width="1781"/>
  <unicode hex="0448"/>
  <outline>
    <contour>
      <point x="1023" y="-18" type="qcurve" smooth="yes"/>
      <point x="932" y="-18"/>
      <point x="811" y="53"/>
      <point x="771" y="119" type="qcurve"/>
      <point x="693" y="50"/>
      <point x="502" y="-16"/>
      <point x="407" y="-16" type="qcurve" smooth="yes"/>
      <point x="329" y="-16"/>
      <point x="213" y="32"/>
      <point x="138" y="115"/>
      <point x="101" y="228"/>
      <point x="101" y="294" type="qcurve" smooth="yes"/>
      <point x="101" y="352"/>
      <point x="116" y="414" type="qcurve"/>
      <point x="250" y="999" type="line"/>
      <point x="528" y="999" type="line"/>
      <point x="396" y="426" type="line"/>
      <point x="383" y="365"/>
      <point x="383" y="334" type="qcurve" smooth="yes"/>
      <point x="383" y="285"/>
      <point x="432" y="240"/>
      <point x="486" y="240" type="qcurve" smooth="yes"/>
      <point x="493" y="240" type="line" smooth="yes"/>
      <point x="539" y="240"/>
      <point x="624" y="279"/>
      <point x="659" y="312" type="qcurve" smooth="yes"/>
      <point x="731" y="382"/>
      <point x="748" y="468" type="qcurve"/>
      <point x="829" y="827"/>
      <point x="869" y="999" type="qcurve"/>
      <point x="1146" y="999" type="line"/>
      <point x="1012" y="422" type="line" smooth="yes"/>
      <point x="1000" y="368"/>
      <point x="1000" y="335" type="qcurve" smooth="yes"/>
      <point x="1000" y="289"/>
      <point x="1046" y="240"/>
      <point x="1103" y="240" type="qcurve" smooth="yes"/>
      <point x="1110" y="240" type="line" smooth="yes"/>
      <point x="1200" y="240"/>
      <point x="1273" y="310" type="qcurve"/>
      <point x="1341" y="373"/>
      <point x="1364" y="468" type="qcurve"/>
      <point x="1445" y="827"/>
      <point x="1485" y="999" type="qcurve"/>
      <point x="1760" y="999" type="line"/>
      <point x="1530" y="0" type="line"/>
      <point x="1256" y="0" type="line"/>
      <point x="1275" y="74" type="line"/>
      <point x="1221" y="28"/>
      <point x="1100" y="-18"/>
    </contour>
  </outline>
</glyph>
<glyph name="afii10092" format="2">
  <advance width="1241"/>
  <unicode hex="044A"/>
  <outline>
    <contour>
      <point x="615" y="-20" type="qcurve" smooth="yes"/>
      <point x="600" y="-20" type="line" smooth="yes"/>
      <point x="506" y="-20"/>
      <point x="365" y="26"/>
      <point x="273" y="113"/>
      <point x="227" y="241"/>
      <point x="227" y="320" type="qcurve" smooth="yes"/>
      <point x="227" y="391"/>
      <point x="242" y="461" type="qcurve"/>
      <point x="320" y="796" type="line"/>
      <point x="56" y="796" type="line"/>
      <point x="101" y="999" type="line"/>
      <point x="615" y="999" type="line"/>
      <point x="601" y="940"/>
      <point x="586" y="883" type="qcurve" smooth="yes"/>
      <point x="570" y="826"/>
      <point x="556" y="767" type="qcurve"/>
      <point x="623" y="802"/>
      <point x="736" y="832"/>
      <point x="799" y="832" type="qcurve" smooth="yes"/>
      <point x="993" y="832"/>
      <point x="1187" y="662"/>
      <point x="1187" y="507" type="qcurve" smooth="yes"/>
      <point x="1187" y="428"/>
      <point x="1164" y="351" type="qcurve" smooth="yes"/>
      <point x="1119" y="198"/>
      <point x="979" y="94" type="qcurve" smooth="yes"/>
      <point x="910" y="42"/>
      <point x="724" y="-20"/>
    </contour>
    <contour>
      <point x="621" y="214" type="qcurve" smooth="yes"/>
      <point x="719" y="214"/>
      <point x="866" y="329"/>
      <point x="890" y="431" type="qcurve" smooth="yes"/>
      <point x="894" y="449"/>
      <point x="894" y="462" type="qcurve" smooth="yes"/>
      <point x="894" y="517"/>
      <point x="814" y="597"/>
      <point x="740" y="597" type="qcurve" smooth="yes"/>
      <point x="639" y="597"/>
      <point x="494" y="482"/>
      <point x="476" y="395" type="qcurve" smooth="yes"/>
      <point x="470" y="366"/>
      <point x="470" y="343" type="qcurve" smooth="yes"/>
      <point x="470" y="278"/>
      <point x="551" y="214"/>
    </contour>
  </outline>
</glyph>
<glyph name="afii10093" format="2">
  <advance width="1508"/>
  <unicode hex="044B"/>
  <outline>
    <contour>
      <point x="497" y="-20" type="qcurve" smooth="yes"/>
      <point x="484" y="-20" type="line" smooth="yes"/>
      <point x="295" y="-20"/>
      <point x="113" y="160"/>
      <point x="113" y="320" type="qcurve" smooth="yes"/>
      <point x="113" y="396"/>
      <point x="128" y="460" type="qcurve" smooth="yes"/>
      <point x="253" y="999" type="line"/>
      <point x="502" y="999" type="line"/>
      <point x="443" y="767" type="line"/>
      <point x="511" y="803"/>
      <point x="632" y="832"/>
      <point x="696" y="832" type="qcurve" smooth="yes"/>
      <point x="887" y="832"/>
      <point x="985" y="747" type="qcurve"/>
      <point x="1076" y="664"/>
      <point x="1076" y="511" type="qcurve" smooth="yes"/>
      <point x="1076" y="438"/>
      <point x="1057" y="367" type="qcurve" smooth="yes"/>
      <point x="1018" y="223"/>
      <point x="901" y="121" type="qcurve"/>
      <point x="796" y="26"/>
      <point x="633" y="-6" type="qcurve"/>
      <point x="569" y="-20"/>
    </contour>
    <contour>
      <point x="1351" y="0" type="line"/>
      <point x="1102" y="0" type="line"/>
      <point x="1331" y="999" type="line"/>
      <point x="1580" y="999" type="line"/>
    </contour>
    <contour>
      <point x="511" y="214" type="qcurve" smooth="yes"/>
      <point x="617" y="214"/>
      <point x="755" y="336"/>
      <point x="778" y="431" type="qcurve"/>
      <point x="781" y="449"/>
      <point x="781" y="462" type="qcurve" smooth="yes"/>
      <point x="781" y="519"/>
      <point x="702" y="597"/>
      <point x="628" y="597" type="qcurve" smooth="yes"/>
      <point x="520" y="597"/>
      <point x="386" y="485"/>
      <point x="363" y="395" type="qcurve"/>
      <point x="356" y="362"/>
      <point x="356" y="339" type="qcurve" smooth="yes"/>
      <point x="356" y="280"/>
      <point x="432" y="214"/>
    </contour>
  </outline>
</glyph>
<glyph name="afii10094" format="2">
  <advance width="1127"/>
  <unicode hex="044C"/>
  <outline>
    <contour>
      <point x="489" y="-20" type="qcurve" smooth="yes"/>
      <point x="476" y="-20" type="line" smooth="yes"/>
      <point x="289" y="-20"/>
      <point x="105" y="160"/>
      <point x="105" y="320" type="qcurve" smooth="yes"/>
      <point x="105" y="389"/>
      <point x="121" y="462" type="qcurve"/>
      <point x="245" y="999" type="line"/>
      <point x="494" y="999" type="line"/>
      <point x="435" y="767" type="line"/>
      <point x="503" y="803"/>
      <point x="624" y="832"/>
      <point x="688" y="832" type="qcurve" smooth="yes"/>
      <point x="877" y="832"/>
      <point x="976" y="747" type="qcurve" smooth="yes"/>
      <point x="1068" y="667"/>
      <point x="1068" y="513" type="qcurve" smooth="yes"/>
      <point x="1068" y="444"/>
      <point x="1050" y="374" type="qcurve"/>
      <point x="1009" y="225"/>
      <point x="896" y="123" type="qcurve" smooth="yes"/>
      <point x="788" y="26"/>
      <point x="626" y="-6" type="qcurve"/>
      <point x="561" y="-20"/>
    </contour>
    <contour>
      <point x="504" y="214" type="qcurve" smooth="yes"/>
      <point x="606" y="214"/>
      <point x="745" y="332"/>
      <point x="768" y="431" type="qcurve" smooth="yes"/>
      <point x="772" y="446"/>
      <point x="772" y="464" type="qcurve" smooth="yes"/>
      <point x="772" y="522"/>
      <point x="695" y="597"/>
      <point x="620" y="597" type="qcurve" smooth="yes"/>
      <point x="512" y="597"/>
      <point x="378" y="485"/>
      <point x="355" y="395" type="qcurve"/>
      <point x="349" y="366"/>
      <point x="349" y="337" type="qcurve" smooth="yes"/>
      <point x="349" y="214"/>
    </contour>
  </outline>
</glyph>
<glyph name="afii10097" format="2">
  <advance width="1102"/>
  <unicode hex="044F"/>
  <outline>
    <contour>
      <point x="853" y="0" type="line"/>
      <point x="579" y="0" type="line"/>
      <point x="669" y="383" type="line"/>
      <point x="598" y="383" type="line" smooth="yes"/>
      <point x="549" y="383"/>
      <point x="471" y="315"/>
      <point x="448" y="273" type="qcurve"/>
      <point x="260" y="0" type="line"/>
      <point x="-68" y="0" type="line"/>
      <point x="95" y="286" type="line"/>
      <point x="132" y="336"/>
      <point x="245" y="430"/>
      <point x="302" y="437" type="qcurve"/>
      <point x="254" y="452"/>
      <point x="177" y="499"/>
      <point x="131" y="576"/>
      <point x="131" y="638" type="qcurve" smooth="yes"/>
      <point x="131" y="743"/>
      <point x="241" y="906"/>
      <point x="465" y="999"/>
      <point x="634" y="999" type="qcurve" smooth="yes"/>
      <point x="1083" y="999" type="line"/>
    </contour>
    <contour>
      <point x="713" y="581" type="line"/>
      <point x="724" y="624"/>
      <point x="734" y="668" type="qcurve" smooth="yes"/>
      <point x="743" y="711"/>
      <point x="754" y="754" type="qcurve"/>
      <point x="535" y="754" type="line" smooth="yes"/>
      <point x="498" y="754"/>
      <point x="438" y="712"/>
      <point x="403" y="654"/>
      <point x="403" y="628" type="qcurve" smooth="yes"/>
      <point x="403" y="595"/>
      <point x="463" y="581"/>
      <point x="533" y="581" type="qcurve" smooth="yes"/>
    </contour>
  </outline>
</glyph>
<glyph name="afii10101" format="2">
  <advance width="1004"/>
  <unicode hex="0454"/>
  <outline>
    <contour>
      <point x="432" y="-20" type="qcurve" smooth="yes"/>
      <point x="329" y="-20"/>
      <point x="177" y="42"/>
      <point x="76" y="149"/>
      <point x="27" y="295"/>
      <point x="27" y="379" type="qcurve" smooth="yes"/>
      <point x="27" y="456"/>
      <point x="66" y="610"/>
      <point x="103" y="681" type="qcurve" smooth="yes"/>
      <point x="183" y="833"/>
      <point x="317" y="921" type="qcurve"/>
      <point x="459" y="1016"/>
      <point x="632" y="1016" type="qcurve" smooth="yes"/>
      <point x="642" y="1016" type="line" smooth="yes"/>
      <point x="720" y="1016"/>
      <point x="848" y="971"/>
      <point x="946" y="889"/>
      <point x="1012" y="775"/>
      <point x="1026" y="705" type="qcurve"/>
      <point x="753" y="627" type="line"/>
      <point x="748" y="687"/>
      <point x="681" y="754"/>
      <point x="609" y="754" type="qcurve" smooth="yes"/>
      <point x="427" y="754"/>
      <point x="349" y="584" type="qcurve"/>
      <point x="434" y="588"/>
      <point x="516" y="591" type="qcurve" smooth="yes"/>
      <point x="598" y="593"/>
      <point x="682" y="596" type="qcurve"/>
      <point x="670" y="545"/>
      <point x="659" y="494" type="qcurve" smooth="yes"/>
      <point x="648" y="442"/>
      <point x="636" y="391" type="qcurve"/>
      <point x="552" y="389"/>
      <point x="469" y="386" type="qcurve" smooth="yes"/>
      <point x="385" y="382"/>
      <point x="301" y="380" type="qcurve"/>
      <point x="301" y="322"/>
      <point x="325" y="278" type="qcurve"/>
      <point x="348" y="254"/>
      <point x="421" y="241"/>
      <point x="464" y="241" type="qcurve" smooth="yes"/>
      <point x="502" y="241"/>
      <point x="571" y="264"/>
      <point x="630" y="304"/>
      <point x="677" y="358"/>
      <point x="693" y="390" type="qcurve"/>
      <point x="808" y="333"/>
      <point x="922" y="275" type="qcurve"/>
      <point x="840" y="133"/>
      <point x="587" y="-20"/>
    </contour>
  </outline>
</glyph>
<glyph name="afii10105" format="2">
  <advance width="552"/>
  <unicode hex="0458"/>
  <outline>
    <contour>
      <point x="575" y="1146" type="qcurve"/>
      <point x="294" y="1146" type="line"/>
      <point x="324" y="1280"/>
      <point x="355" y="1408" type="qcurve"/>
      <point x="636" y="1408" type="line"/>
      <point x="606" y="1274"/>
    </contour>
    <contour>
      <point x="-93" y="-438" type="qcurve" smooth="yes"/>
      <point x="-199" y="-438"/>
      <point x="-271" y="-406" type="qcurve"/>
      <point x="-152" y="-175" type="line"/>
      <point x="-144" y="-177"/>
      <point x="-70" y="-177" type="qcurve" smooth="yes"/>
      <point x="-35" y="-177"/>
      <point x="0" y="-130"/>
      <point x="21" y="-55"/>
      <point x="28" y="-8" type="qcurve" smooth="yes"/>
      <point x="34" y="40"/>
      <point x="45" y="89" type="qcurve" smooth="yes"/>
      <point x="255" y="999" type="line"/>
      <point x="530" y="999" type="line"/>
      <point x="278" y="-101" type="line"/>
      <point x="240" y="-256"/>
      <point x="150" y="-343" type="qcurve" smooth="yes"/>
      <point x="51" y="-438"/>
    </contour>
  </outline>
</glyph>
<glyph name="uni045D" format="2">
  <advance width="1209"/>
  <unicode hex="045D"/>
  <outline>
    <contour>
      <point x="872" y="1097" type="line"/>
      <point x="687" y="1097" type="line"/>
      <point x="562" y="1250"/>
      <point x="432" y="1413" type="qcurve"/>
      <point x="716" y="1413" type="line"/>
      <point x="767" y="1307"/>
      <point x="820" y="1202" type="qcurve" smooth="yes"/>
    </contour>
    <contour>
      <point x="406" y="-23" type="qcurve" smooth="yes"/>
      <point x="255" y="-23"/>
      <point x="177" y="68" type="qcurve" smooth="yes"/>
      <point x="103" y="153"/>
      <point x="103" y="298" type="qcurve" smooth="yes"/>
      <point x="103" y="331"/>
      <point x="110" y="394"/>
      <point x="117" y="425" type="qcurve" smooth="yes"/>
      <point x="250" y="999" type="line"/>
      <point x="528" y="999" type="line"/>
      <point x="462" y="709"/>
      <point x="394" y="420" type="qcurve" smooth="yes"/>
      <point x="381" y="362"/>
      <point x="381" y="331" type="qcurve" smooth="yes"/>
      <point x="381" y="286"/>
      <point x="429" y="241"/>
      <point x="486" y="241" type="qcurve" smooth="yes"/>
      <point x="493" y="241" type="line" smooth="yes"/>
      <point x="589" y="241"/>
      <point x="772" y="384"/>
      <point x="787" y="464" type="qcurve"/>
      <point x="910" y="999" type="line"/>
      <point x="1188" y="999" type="line"/>
      <point x="1131" y="750"/>
      <point x="1074" y="501" type="qcurve" smooth="yes"/>
      <point x="1016" y="251"/>
      <point x="959" y="0" type="qcurve"/>
      <point x="680" y="0" type="line"/>
      <point x="687" y="23"/>
      <point x="693" y="47" type="qcurve" smooth="yes"/>
      <point x="699" y="70"/>
      <point x="706" y="93" type="qcurve"/>
      <point x="637" y="30"/>
      <point x="558" y="2" type="qcurve" smooth="yes"/>
      <point x="490" y="-23"/>
    </contour>
  </outline>
</glyph>
<glyph name="afii10110" format="2">
  <advance width="1047"/>
  <unicode hex="045E"/>
  <outline>
    <contour>
      <point x="688" y="1143" type="qcurve" smooth="yes"/>
      <point x="409" y="1143"/>
      <point x="409" y="1335" type="qcurve" smooth="yes"/>
      <point x="409" y="1367"/>
      <point x="419" y="1413" type="qcurve"/>
      <point x="602" y="1413" type="line"/>
      <point x="597" y="1393"/>
      <point x="597" y="1372" type="qcurve" smooth="yes"/>
      <point x="597" y="1298"/>
      <point x="690" y="1298" type="qcurve" smooth="yes"/>
      <point x="754" y="1298"/>
      <point x="856" y="1359"/>
      <point x="870" y="1413" type="qcurve"/>
      <point x="1053" y="1413" type="line"/>
      <point x="1021" y="1272"/>
      <point x="854" y="1143"/>
    </contour>
    <contour>
      <point x="272" y="-430" type="line"/>
      <point x="-33" y="-430" type="line"/>
      <point x="266" y="33" type="line"/>
      <point x="180" y="516"/>
      <point x="97" y="999" type="qcurve"/>
      <point x="392" y="999" type="line"/>
      <point x="480" y="343" type="line"/>
      <point x="879" y="999" type="line"/>
      <point x="1184" y="999" type="line"/>
    </contour>
  </outline>
</glyph>
<glyph name="afii10146" format="2">
  <advance width="1201"/>
  <unicode hex="0462"/>
  <outline>
    <contour>
      <point x="549" y="0" type="qcurve" smooth="yes"/>
      <point x="86" y="0" type="line"/>
      <point x="200" y="494" type="line"/>
      <point x="264" y="765"/>
      <point x="327" y="1041" type="qcurve"/>
      <point x="148" y="1041" type="line"/>
      <point x="169" y="1129"/>
      <point x="189" y="1220" type="qcurve" smooth="yes"/>
      <point x="208" y="1304" type="line"/>
      <point x="387" y="1304" type="line"/>
      <point x="412" y="1410" type="line"/>
      <point x="693" y="1410" type="line"/>
      <point x="668" y="1304" type="line"/>
      <point x="944" y="1304" type="line"/>
      <point x="923" y="1216"/>
      <point x="903" y="1125" type="qcurve" smooth="yes"/>
      <point x="884" y="1041" type="line"/>
      <point x="608" y="1041" type="line"/>
      <point x="560" y="840" type="line"/>
      <point x="730" y="840" type="line" smooth="yes"/>
      <point x="858" y="840"/>
      <point x="1052" y="761"/>
      <point x="1161" y="612"/>
      <point x="1161" y="505" type="qcurve" smooth="yes"/>
      <point x="1161" y="363"/>
      <point x="1008" y="133"/>
      <point x="881" y="71" type="qcurve" smooth="yes"/>
      <point x="733" y="0"/>
    </contour>
    <contour>
      <point x="596" y="268" type="line" smooth="yes"/>
      <point x="831" y="268"/>
      <point x="878" y="448" type="qcurve" smooth="yes"/>
      <point x="882" y="465"/>
      <point x="882" y="480" type="qcurve" smooth="yes"/>
      <point x="882" y="532"/>
      <point x="785" y="573"/>
      <point x="681" y="573" type="qcurve" smooth="yes"/>
      <point x="498" y="573" type="line"/>
      <point x="427" y="268" type="line"/>
    </contour>
  </outline>
</glyph>
<glyph name="yuslittlecyrillic" format="2">
  <advance width="965"/>
  <unicode hex="0467"/>
  <outline>
    <contour>
      <point x="852" y="0" type="line"/>
      <point x="598" y="0" type="line"/>
      <point x="597" y="99" type="line"/>
      <point x="485" y="99" type="line"/>
      <point x="462" y="0" type="line"/>
      <point x="279" y="0" type="line"/>
      <point x="301" y="99" type="line"/>
      <point x="190" y="99" type="line"/>
      <point x="146" y="0" type="line"/>
      <point x="-120" y="0" type="line"/>
      <point x="490" y="999" type="line"/>
      <point x="701" y="999" type="line"/>
    </contour>
    <contour>
      <point x="582" y="294" type="line"/>
      <point x="528" y="676" type="line"/>
      <point x="296" y="294" type="line"/>
    </contour>
  </outline>
</glyph>
<glyph name="yuslittleiotifiedcyrillic" format="2">
  <advance width="1465"/>
  <unicode hex="0469"/>
  <outline>
    <contour>
      <point x="1351" y="0" type="line"/>
      <point x="1098" y="0" type="line"/>
      <point x="1097" y="99" type="line"/>
      <point x="985" y="99" type="line"/>
      <point x="962" y="0" type="line"/>
      <point x="779" y="0" type="line"/>
      <point x="801" y="99" type="line"/>
      <point x="690" y="99" type="line"/>
      <point x="646" y="0" type="line"/>
      <point x="379" y="0" type="line"/>
      <point x="624" y="403" type="line"/>
      <point x="392" y="403" type="line"/>
      <point x="299" y="0" type="line"/>
      <point x="21" y="0" type="line"/>
      <point x="250" y="999" type="line"/>
      <point x="528" y="999" type="line"/>
      <point x="438" y="606" type="line"/>
      <point x="748" y="606" type="line"/>
      <point x="990" y="999" type="line"/>
      <point x="1201" y="999" type="line"/>
    </contour>
    <contour>
      <point x="1082" y="294" type="line"/>
      <point x="1028" y="676" type="line"/>
      <point x="796" y="294" type="line"/>
    </contour>
  </outline>
</glyph>
<glyph name="afii10195" format="2">
  <advance width="1156"/>
  <unicode hex="0473"/>
  <outline>
    <contour>
      <point x="482" y="-20" type="qcurve" smooth="yes"/>
      <point x="462" y="-20" type="line" smooth="yes"/>
      <point x="367" y="-20"/>
      <point x="206" y="42"/>
      <point x="90" y="153"/>
      <point x="59" y="230" type="qcurve" smooth="yes"/>
      <point x="29" y="303"/>
      <point x="29" y="387" type="qcurve" smooth="yes"/>
      <point x="29" y="395" type="line" smooth="yes"/>
      <point x="29" y="551"/>
      <point x="211" y="844"/>
      <point x="502" y="1012"/>
      <point x="669" y="1012" type="qcurve" smooth="yes"/>
      <point x="690" y="1012" type="line" smooth="yes"/>
      <point x="785" y="1012"/>
      <point x="945" y="951"/>
      <point x="1060" y="840"/>
      <point x="1122" y="686"/>
      <point x="1122" y="596" type="qcurve" smooth="yes"/>
      <point x="1122" y="520"/>
      <point x="1076" y="366"/>
      <point x="1034" y="297" type="qcurve" smooth="yes"/>
      <point x="947" y="154"/>
      <point x="655" y="-20"/>
    </contour>
    <contour>
      <point x="363" y="583" type="qcurve"/>
      <point x="599" y="593"/>
      <point x="835" y="605" type="qcurve"/>
      <point x="834" y="617" type="line"/>
      <point x="834" y="629"/>
      <point x="831" y="643" type="qcurve"/>
      <point x="809" y="776"/>
      <point x="653" y="776" type="qcurve" smooth="yes"/>
      <point x="555" y="776"/>
      <point x="406" y="670"/>
    </contour>
    <contour>
      <point x="497" y="214" type="qcurve" smooth="yes"/>
      <point x="596" y="214"/>
      <point x="741" y="316"/>
      <point x="784" y="398" type="qcurve"/>
      <point x="313" y="375" type="line"/>
      <point x="327" y="214"/>
    </contour>
  </outline>
</glyph>
<glyph name="afii10148" format="2">
  <advance width="1379"/>
  <unicode hex="0474"/>
  <outline>
    <contour>
      <point x="691" y="0" type="line"/>
      <point x="484" y="0" type="line"/>
      <point x="217" y="1413" type="line"/>
      <point x="530" y="1413" type="line"/>
      <point x="691" y="475" type="line"/>
      <point x="774" y="611"/>
      <point x="859" y="746" type="qcurve" smooth="yes"/>
      <point x="943" y="881"/>
      <point x="1024" y="1019" type="qcurve"/>
      <point x="1078" y="1108"/>
      <point x="1173" y="1236"/>
      <point x="1260" y="1325"/>
      <point x="1343" y="1380"/>
      <point x="1425" y="1408"/>
      <point x="1468" y="1412" type="qcurve"/>
      <point x="1511" y="1414" type="line"/>
      <point x="1556" y="1412" type="line"/>
      <point x="1507" y="1152" type="line"/>
      <point x="1489" y="1150"/>
      <point x="1466" y="1138" type="qcurve"/>
      <point x="1384" y="1090"/>
      <point x="1261" y="891" type="qcurve"/>
    </contour>
  </outline>
</glyph>
<glyph name="afii10050" format="2">
  <advance width="1061"/>
  <unicode hex="0490"/>
  <outline>
    <contour>
      <point x="342" y="0" type="line"/>
      <point x="58" y="0" type="line"/>
      <point x="383" y="1410" type="line"/>
      <point x="980" y="1410" type="line"/>
      <point x="1050" y="1717" type="line"/>
      <point x="1335" y="1717" type="line"/>
      <point x="1202" y="1147" type="line"/>
      <point x="604" y="1147" type="line"/>
    </contour>
  </outline>
</glyph>
<glyph name="ghestrokecyrillic" format="2">
  <advance width="812"/>
  <unicode hex="0493"/>
  <outline>
    <contour>
      <point x="303" y="0" type="line"/>
      <point x="24" y="0" type="line"/>
      <point x="253" y="999" type="line"/>
      <point x="940" y="999" type="line"/>
      <point x="895" y="797" type="line"/>
      <point x="486" y="797" type="line"/>
    </contour>
  </outline>
</glyph>
<glyph name="Zhedescendercyrillic" format="2">
  <advance width="2129"/>
  <unicode hex="0496"/>
  <outline>
    <contour>
      <point x="2066" y="-238" type="qcurve"/>
      <point x="1795" y="-238" type="line"/>
      <point x="1851" y="0" type="line"/>
      <point x="1655" y="0" type="line"/>
      <point x="1643" y="116"/>
      <point x="1630" y="229" type="qcurve" smooth="yes"/>
      <point x="1617" y="342"/>
      <point x="1604" y="456" type="qcurve" smooth="yes"/>
      <point x="1600" y="494"/>
      <point x="1583" y="563"/>
      <point x="1551" y="618"/>
      <point x="1503" y="651"/>
      <point x="1468" y="651" type="qcurve" smooth="yes"/>
      <point x="1240" y="651" type="line"/>
      <point x="1092" y="0" type="line"/>
      <point x="808" y="0" type="line"/>
      <point x="844" y="164"/>
      <point x="882" y="326" type="qcurve" smooth="yes"/>
      <point x="919" y="487"/>
      <point x="955" y="651" type="qcurve"/>
      <point x="803" y="651"/>
      <point x="757" y="652" type="qcurve"/>
      <point x="722" y="652"/>
      <point x="644" y="620"/>
      <point x="556" y="527"/>
      <point x="505" y="434" type="qcurve"/>
      <point x="248" y="0" type="line"/>
      <point x="-111" y="0" type="line"/>
      <point x="290" y="581" type="line"/>
      <point x="322" y="629"/>
      <point x="393" y="722"/>
      <point x="467" y="795"/>
      <point x="541" y="840"/>
      <point x="577" y="840" type="qcurve"/>
      <point x="288" y="1410" type="line"/>
      <point x="668" y="1410" type="line"/>
      <point x="873" y="920" type="line"/>
      <point x="1019" y="920" type="line"/>
      <point x="1132" y="1410" type="line"/>
      <point x="1417" y="1410" type="line"/>
      <point x="1303" y="920" type="line"/>
      <point x="1445" y="920" type="line"/>
      <point x="1878" y="1410" type="line"/>
      <point x="2266" y="1410" type="line"/>
      <point x="1697" y="840" type="line"/>
      <point x="1758" y="840"/>
      <point x="1804" y="751" type="qcurve"/>
      <point x="1837" y="682"/>
      <point x="1863" y="560" type="qcurve"/>
      <point x="1963" y="170" type="line"/>
      <point x="2191" y="168" type="line"/>
      <point x="2160" y="168" type="line"/>
      <point x="2143" y="92"/>
      <point x="2125" y="16" type="qcurve" smooth="yes"/>
      <point x="2101" y="-86" type="line" smooth="yes"/>
      <point x="2083" y="-162"/>
    </contour>
  </outline>
</glyph>
<glyph name="Endescendercyrillic" format="2">
  <advance width="1500"/>
  <unicode hex="04A2"/>
  <outline>
    <contour>
      <point x="1410" y="-238" type="line"/>
      <point x="1139" y="-238" type="line"/>
      <point x="1195" y="0" type="line"/>
      <point x="930" y="0" type="line"/>
      <point x="1061" y="574" type="line"/>
      <point x="473" y="574" type="line"/>
      <point x="341" y="0" type="line"/>
      <point x="58" y="0" type="line"/>
      <point x="383" y="1413" type="line"/>
      <point x="666" y="1413" type="line"/>
      <point x="532" y="838" type="line"/>
      <point x="1121" y="838" type="line"/>
      <point x="1256" y="1413" type="line"/>
      <point x="1539" y="1413" type="line"/>
      <point x="1252" y="168" type="line"/>
      <point x="1504" y="168" type="line"/>
    </contour>
  </outline>
</glyph>
<glyph name="endescendercyrillic" format="2">
  <advance width="1209"/>
  <unicode hex="04A3"/>
  <outline>
    <contour>
      <point x="1153" y="-238" type="line"/>
      <point x="883" y="-238" type="line"/>
      <point x="939" y="0" type="line"/>
      <point x="681" y="0" type="line"/>
      <point x="786" y="454" type="line"/>
      <point x="403" y="454" type="line"/>
      <point x="299" y="0" type="line"/>
      <point x="21" y="0" type="line"/>
      <point x="250" y="999" type="line"/>
      <point x="528" y="999" type="line"/>
      <point x="448" y="656" type="line"/>
      <point x="831" y="656" type="line"/>
      <point x="911" y="999" type="line"/>
      <point x="1188" y="999" type="line"/>
      <point x="998" y="168" type="line"/>
      <point x="1247" y="168" type="line"/>
    </contour>
  </outline>
</glyph>
<glyph name="Hadescendercyrillic" format="2">
  <advance width="1366"/>
  <unicode hex="04B2"/>
  <outline>
    <contour>
      <point x="1316" y="-238" type="line"/>
      <point x="1046" y="-238" type="line"/>
      <point x="1102" y="0" type="line"/>
      <point x="906" y="0" type="line"/>
      <point x="693" y="524" type="line"/>
      <point x="234" y="0" type="line"/>
      <point x="-111" y="0" type="line"/>
      <point x="531" y="707" type="line"/>
      <point x="224" y="1413" type="line"/>
      <point x="558" y="1413" type="line"/>
      <point x="767" y="881" type="line"/>
      <point x="1226" y="1413" type="line"/>
      <point x="1569" y="1413" type="line"/>
      <point x="930" y="707" type="line"/>
      <point x="1165" y="168" type="line"/>
      <point x="1410" y="168" type="line"/>
    </contour>
  </outline>
</glyph>
